%
M48
M72
T01C0.0197
T02C0.0400
T03C0.0591
T04C0.0669
%
T01
X7267Y3007
X10416Y3007
X13566Y3007
X16715Y3007
X19274Y7731
X19274Y8322
X19865Y8322
X19865Y7731
X23015Y10290
X23015Y10684
X23015Y11078
X23015Y11471
X23015Y11865
X23015Y12259
X22621Y12259
X22227Y12259
X21834Y12259
X22818Y13046
X24393Y14227
X23015Y15015
X24393Y16393
X26558Y16393
X28526Y17770
X29314Y17770
X30495Y15015
X30495Y14227
X29314Y11865
X29314Y11471
X27542Y9306
X26164Y9306
X26558Y7534
X27345Y7534
X29314Y6353
X29314Y5959
X28231Y4286
X28231Y3893
X27837Y3893
X27444Y3893
X27050Y3893
X27050Y4286
X30003Y3991
X31086Y2613
X31282Y2318
X30889Y2318
X30889Y1924
X30790Y1530
X29806Y2251
X28723Y1530
X28822Y644
X28428Y644
X26460Y644
X25869Y644
X25278Y644
X24688Y644
X24688Y1235
X25278Y1235
X25869Y1235
X26460Y1235
X30889Y644
X31282Y644
X30495Y8125
X30495Y8912
X32267Y11274
X33054Y11274
X26558Y14227
X25180Y18558
X24393Y18558
X19274Y16393
X19274Y14227
X11007Y23085
X10219Y23085
X9432Y23085
X8645Y22889
X7660Y22889
X7463Y23479
X6676Y22889
X5889Y23479
X5692Y22889
X4708Y22889
X3723Y22889
X2739Y22889
X1755Y22889
X967Y23282
X967Y24070
X967Y24857
X967Y25644
X967Y26432
X1558Y26235
X1952Y26629
X2345Y26235
X3133Y26235
X3723Y26235
X3723Y25448
X4117Y25448
X3723Y24070
X2739Y24660
X3330Y27416
X3330Y28007
X3920Y28007
X4511Y28007
X5101Y28007
X5692Y28007
X6282Y28007
X6873Y28007
X7463Y28007
X7463Y27416
X7463Y26826
X7463Y26038
X7463Y25054
X7463Y24267
X5889Y24267
X5889Y25054
X6086Y25644
X5692Y26038
X6086Y26432
X5692Y26826
X8054Y27416
X8645Y27416
X9235Y27416
X9826Y27416
X9826Y28007
X9235Y28007
X8645Y28007
X8054Y28007
X10416Y28007
X11007Y28007
X11007Y27416
X11007Y26826
X11007Y25841
X11007Y24857
X10219Y24857
X9432Y24857
X2345Y28007
X1952Y28007
X1558Y28007
X967Y28007
X967Y27219
X35810Y18755
X36400Y18755
X36400Y18164
X35810Y18164
X35810Y17574
X36400Y17574
X36400Y16983
X35810Y16983
T02
X32676Y10290
X31676Y10290
X31576Y9290
X32576Y9290
X32676Y8290
X31676Y8290
X34432Y3318
X34432Y2318
X22924Y2416
X21924Y2416
T03
X20991Y10700
X19991Y11700
X18991Y12700
X20991Y12700
X18991Y10700
T04
X20160Y22889
X17168Y22889
X17168Y28991
X20160Y28991
X33349Y28991
X36341Y28991
X36341Y22889
X33349Y22889
M30
