G75*
%MOIN*%
%OFA0B0*%
%FSLAX24Y24*%
%IPPOS*%
%LPD*%
%AMOC8*
5,1,8,0,0,1.08239X$1,22.5*
%
%ADD10R,0.0580X0.0200*%
%ADD11R,0.0200X0.0580*%
%ADD12R,0.0787X0.0394*%
%ADD13R,0.0787X0.0512*%
%ADD14R,0.0709X0.0315*%
%ADD15R,0.0709X0.0276*%
%ADD16R,0.0591X0.0591*%
%ADD17R,0.0354X0.0276*%
%ADD18R,0.0276X0.0354*%
%ADD19R,0.0394X0.0394*%
%ADD20R,0.0394X0.0433*%
%ADD21R,0.0433X0.0394*%
%ADD22R,0.1063X0.0630*%
%ADD23R,0.0600X0.0180*%
%ADD24R,0.0787X0.0787*%
%ADD25R,0.0110X0.0197*%
%ADD26C,0.0050*%
%ADD27R,0.2362X0.1181*%
D10*
X023837Y014269D03*
X023837Y014579D03*
X023837Y014899D03*
X023837Y015209D03*
X023837Y015529D03*
X023837Y015839D03*
X023837Y016159D03*
X023837Y016469D03*
X027177Y016469D03*
X027177Y016159D03*
X027177Y015839D03*
X027177Y015529D03*
X027177Y015209D03*
X027177Y014899D03*
X027177Y014579D03*
X027177Y014269D03*
D11*
X026607Y013699D03*
X026297Y013699D03*
X025977Y013699D03*
X025667Y013699D03*
X025347Y013699D03*
X025037Y013699D03*
X024717Y013699D03*
X024407Y013699D03*
X024407Y017039D03*
X024717Y017039D03*
X025037Y017039D03*
X025347Y017039D03*
X025667Y017039D03*
X025977Y017039D03*
X026297Y017039D03*
X026607Y017039D03*
D12*
X002873Y028961D03*
X002873Y031757D03*
D13*
X021676Y015959D03*
X021676Y014463D03*
X022298Y011629D03*
X022298Y010841D03*
X022298Y010054D03*
X022298Y009267D03*
X022298Y008479D03*
X022298Y007692D03*
X022298Y006904D03*
X022298Y006117D03*
X028597Y006117D03*
X028597Y006904D03*
X028597Y007692D03*
X028597Y008479D03*
X028597Y009267D03*
X028597Y010054D03*
X028597Y010841D03*
X028597Y011629D03*
D14*
X008652Y023786D03*
X008652Y024219D03*
X008652Y024652D03*
X008652Y025085D03*
X008652Y025519D03*
X008652Y025952D03*
X008652Y026385D03*
X004912Y026385D03*
X004912Y025952D03*
X004912Y025519D03*
X004912Y025085D03*
X004912Y024652D03*
X004912Y024219D03*
X004912Y023786D03*
D15*
X004912Y023373D03*
X008652Y023373D03*
X008652Y026798D03*
X004912Y026798D03*
D16*
X007267Y003893D03*
X007267Y005270D03*
X010416Y005270D03*
X010416Y003893D03*
X013566Y003893D03*
X013566Y005270D03*
X016715Y005270D03*
X016715Y003893D03*
D17*
X026656Y002672D03*
X026656Y002160D03*
X032562Y001688D03*
X032562Y001176D03*
X029314Y015152D03*
X029314Y015664D03*
X028526Y015664D03*
X028526Y015152D03*
X028526Y016727D03*
X028526Y017239D03*
X029314Y017239D03*
X029314Y016727D03*
X023015Y015861D03*
X023015Y015349D03*
X009629Y026373D03*
X009629Y026885D03*
D18*
X010357Y024267D03*
X010869Y024267D03*
X010869Y023676D03*
X010357Y023676D03*
X005554Y027416D03*
X005042Y027416D03*
X019806Y016393D03*
X020318Y016393D03*
X021971Y016983D03*
X022483Y016983D03*
X022483Y017574D03*
X021971Y017574D03*
X021971Y018164D03*
X022483Y018164D03*
X020318Y014227D03*
X019806Y014227D03*
X020397Y008322D03*
X020908Y008322D03*
X024530Y005172D03*
X025042Y005172D03*
X022188Y004089D03*
X021676Y004089D03*
X026893Y000743D03*
X027404Y000743D03*
X027286Y001432D03*
X027798Y001432D03*
X028861Y001038D03*
X029373Y001038D03*
X030239Y001038D03*
X030751Y001038D03*
X031420Y001038D03*
X031932Y001038D03*
X033586Y000940D03*
X034097Y000940D03*
X034767Y016393D03*
X035278Y016393D03*
X035278Y017574D03*
X034767Y017574D03*
D19*
X003133Y025251D03*
X002345Y025251D03*
X001952Y027219D03*
X002739Y027219D03*
D20*
X003920Y026885D03*
X003920Y027554D03*
X010219Y026963D03*
X010219Y026294D03*
X027641Y005113D03*
X027641Y004444D03*
X026066Y002751D03*
X026066Y002081D03*
D21*
X020987Y007731D03*
X020318Y007731D03*
X034688Y016983D03*
X035357Y016983D03*
X035357Y018164D03*
X034688Y018164D03*
D22*
X029117Y005133D03*
X029117Y004030D03*
X025082Y002967D03*
X025082Y001865D03*
D23*
X030286Y001741D03*
X030286Y001991D03*
X030286Y002251D03*
X030286Y002501D03*
X031886Y002501D03*
X031886Y002251D03*
X031886Y001991D03*
X031886Y001741D03*
D24*
X029117Y002613D03*
X027542Y002613D03*
D25*
X003290Y025900D03*
X003074Y025900D03*
X002857Y025900D03*
X002857Y026688D03*
X003074Y026688D03*
X003290Y026688D03*
D26*
X002810Y026521D02*
X002810Y026067D01*
X002810Y026521D02*
X003338Y026521D01*
X003338Y026067D01*
X002810Y026067D01*
X002810Y026116D02*
X003338Y026116D01*
X003338Y026165D02*
X002810Y026165D01*
X002810Y026214D02*
X003338Y026214D01*
X003338Y026263D02*
X002810Y026263D01*
X002810Y026312D02*
X003338Y026312D01*
X003338Y026361D02*
X002810Y026361D01*
X002810Y026410D02*
X003338Y026410D01*
X003338Y026459D02*
X002810Y026459D01*
X002810Y026508D02*
X003338Y026508D01*
D27*
X031578Y005581D03*
X031578Y003581D03*
M02*
