G75*
%MOIN*%
%OFA0B0*%
%FSLAX24Y24*%
%IPPOS*%
%LPD*%
%AMOC8*
5,1,8,0,0,1.08239X$1,22.5*
%
%ADD10C,0.0280*%
%ADD11C,0.0170*%
%ADD12C,0.0400*%
%ADD13C,0.0060*%
%ADD14C,0.0000*%
%ADD15R,0.0236X0.0591*%
%ADD16C,0.0080*%
%ADD17C,0.0039*%
%ADD18C,0.0050*%
%ADD19C,0.0472*%
%ADD20C,0.0040*%
%ADD21R,0.0197X0.0049*%
%ADD22R,0.0089X0.0128*%
%ADD23R,0.0049X0.0089*%
%ADD24R,0.0167X0.0049*%
%ADD25R,0.0197X0.0138*%
%ADD26R,0.0236X0.0049*%
%ADD27R,0.0669X0.0118*%
%ADD28R,0.0669X0.0276*%
%ADD29R,0.0128X0.0167*%
%ADD30R,0.0138X0.0138*%
%ADD31R,0.0236X0.0118*%
%ADD32R,0.0118X0.0236*%
%ADD33R,0.0118X0.0472*%
%ADD34R,0.0374X0.0197*%
%ADD35R,0.0197X0.0374*%
%ADD36R,0.1024X0.0295*%
%ADD37C,0.0100*%
%ADD38C,0.0070*%
%ADD39R,0.0200X0.0200*%
%ADD40C,0.0700*%
%ADD41R,0.0165X0.0640*%
%ADD42R,0.0165X0.0630*%
%ADD43R,0.0295X0.1378*%
%ADD44R,0.0295X0.0197*%
D10*
X001607Y001087D02*
X003869Y001087D01*
X003869Y002595D01*
X003492Y003425D02*
X003115Y003802D01*
X003115Y004933D01*
X002738Y004933D02*
X003869Y004933D01*
X003869Y003802D01*
X003492Y003425D01*
X002361Y003802D02*
X002361Y004556D01*
X002738Y004933D01*
X002361Y005764D02*
X003869Y005764D01*
X003115Y005764D02*
X002361Y006518D01*
X002361Y006895D01*
X001607Y007713D02*
X001607Y008090D01*
X003869Y008090D01*
X003869Y007713D02*
X003869Y008467D01*
X003492Y009272D02*
X003869Y009649D01*
X003869Y010780D01*
X004246Y010780D02*
X004623Y010403D01*
X004623Y010026D01*
X004246Y010780D02*
X002361Y010780D01*
X002361Y009272D02*
X003492Y009272D01*
X003869Y013950D02*
X001607Y013950D01*
X001607Y015081D01*
X001984Y015458D01*
X002361Y015458D01*
X002738Y015081D01*
X002738Y013950D01*
X002738Y015081D02*
X003115Y015458D01*
X003492Y015458D01*
X003869Y015081D01*
X003869Y013950D01*
X003869Y016289D02*
X003869Y017043D01*
X003869Y016666D02*
X002361Y016666D01*
X002361Y016289D01*
X001607Y016666D02*
X001230Y016666D01*
X002361Y017848D02*
X003869Y017848D01*
X003115Y017848D02*
X002361Y018602D01*
X002361Y018979D01*
X002738Y019797D02*
X002361Y020174D01*
X002361Y021305D01*
X001607Y021305D02*
X003869Y021305D01*
X003869Y020174D01*
X003492Y019797D01*
X002738Y019797D01*
X001607Y002595D02*
X001607Y001087D01*
X002738Y001087D02*
X002738Y001841D01*
D11*
X006600Y007906D02*
X006600Y008572D01*
X006822Y008794D01*
X007266Y008794D01*
X007488Y008572D01*
X007488Y007906D01*
X007932Y007906D02*
X006600Y007906D01*
X006822Y009288D02*
X007710Y009288D01*
X007932Y009509D01*
X007932Y009953D01*
X007710Y010175D01*
X006822Y010175D01*
X006600Y009953D01*
X006600Y009509D01*
X006822Y009288D01*
X006600Y010669D02*
X007932Y010669D01*
X007488Y011113D01*
X007932Y011556D01*
X006600Y011556D01*
X006600Y012050D02*
X007932Y012050D01*
X007932Y012937D01*
X007932Y013431D02*
X006600Y013431D01*
X006600Y014097D01*
X006822Y014319D01*
X007266Y014319D01*
X007488Y014097D01*
X007488Y013431D01*
X007488Y013875D02*
X007932Y014319D01*
X006600Y012937D02*
X006600Y012050D01*
X007266Y012050D02*
X007266Y012494D01*
X009947Y013553D02*
X010169Y013331D01*
X011056Y013331D01*
X011278Y013553D01*
X011278Y013997D01*
X011056Y014219D01*
X010169Y014219D01*
X009947Y013997D01*
X009947Y013553D01*
X009947Y014712D02*
X011278Y014712D01*
X010834Y014712D02*
X009947Y015600D01*
X010613Y014934D02*
X011278Y015600D01*
X012900Y014319D02*
X014231Y014319D01*
X012900Y013431D01*
X014231Y013431D01*
X014009Y012937D02*
X013122Y012937D01*
X012900Y012716D01*
X012900Y012272D01*
X013122Y012050D01*
X014009Y012050D01*
X014231Y012272D01*
X014231Y012716D01*
X014009Y012937D01*
X015852Y013651D02*
X016074Y013430D01*
X016962Y013430D01*
X017184Y013651D01*
X017184Y014095D01*
X016962Y014317D01*
X016074Y014317D01*
X015852Y014095D01*
X015852Y013651D01*
X015852Y014811D02*
X017184Y015698D01*
X015852Y015698D01*
X015852Y014811D02*
X017184Y014811D01*
X017184Y011555D02*
X015852Y010667D01*
X015852Y010173D02*
X016962Y010173D01*
X017184Y009952D01*
X017184Y009508D01*
X016962Y009286D01*
X015852Y009286D01*
X016296Y008792D02*
X017184Y008792D01*
X016518Y008792D02*
X016518Y007905D01*
X016296Y007905D02*
X015852Y008349D01*
X016296Y008792D01*
X016296Y007905D02*
X017184Y007905D01*
X014231Y007906D02*
X012900Y007906D01*
X012900Y008572D01*
X013122Y008794D01*
X013565Y008794D01*
X013787Y008572D01*
X013787Y007906D01*
X013787Y008350D02*
X014231Y008794D01*
X014231Y009288D02*
X012900Y009288D01*
X012900Y010175D01*
X013565Y009731D02*
X013565Y009288D01*
X011278Y009188D02*
X009947Y009188D01*
X009947Y009853D01*
X010169Y010075D01*
X010613Y010075D01*
X010834Y009853D01*
X010834Y009188D01*
X010613Y008694D02*
X010613Y008250D01*
X010613Y008694D02*
X011056Y008694D01*
X011278Y008472D01*
X011278Y008028D01*
X011056Y007806D01*
X010169Y007806D01*
X009947Y008028D01*
X009947Y008472D01*
X010169Y008694D01*
X010169Y010569D02*
X010391Y010569D01*
X010613Y010791D01*
X010613Y011234D01*
X010834Y011456D01*
X011056Y011456D01*
X011278Y011234D01*
X011278Y010791D01*
X011056Y010569D01*
X010169Y010569D02*
X009947Y010791D01*
X009947Y011234D01*
X010169Y011456D01*
X015852Y011555D02*
X017184Y010667D01*
D12*
X016715Y006944D02*
X016715Y005763D01*
X015928Y005763D01*
X015928Y003400D01*
X017503Y003400D01*
X017503Y005763D01*
X016715Y005763D01*
X014353Y005763D02*
X013566Y005763D01*
X013566Y006944D01*
X013566Y005763D02*
X012778Y005763D01*
X012778Y003400D01*
X014353Y003400D01*
X014353Y005763D01*
X011204Y005763D02*
X011204Y003400D01*
X009629Y003400D01*
X009629Y005763D01*
X010416Y005763D01*
X010416Y006944D01*
X010416Y005763D02*
X011204Y005763D01*
X008054Y005763D02*
X008054Y003400D01*
X006479Y003400D01*
X006479Y005763D01*
X007267Y005763D01*
X007267Y006944D01*
X007267Y005763D02*
X008054Y005763D01*
D13*
X019965Y014139D02*
X020158Y014139D01*
X020158Y014315D02*
X019965Y014315D01*
X019965Y016304D02*
X020158Y016304D01*
X020158Y016481D02*
X019965Y016481D01*
X022131Y016895D02*
X022324Y016895D01*
X022324Y017071D02*
X022131Y017071D01*
X022131Y017485D02*
X022324Y017485D01*
X022324Y017662D02*
X022131Y017662D01*
X022131Y018076D02*
X022324Y018076D01*
X022324Y018252D02*
X022131Y018252D01*
X024107Y016769D02*
X024107Y016699D01*
X024107Y016769D02*
X024177Y016769D01*
X024467Y016619D02*
X024257Y016409D01*
X023103Y015702D02*
X023103Y015509D01*
X022926Y015509D02*
X022926Y015702D01*
X024107Y014039D02*
X024107Y013969D01*
X024177Y013969D01*
X024707Y013279D02*
X024707Y012879D01*
X026837Y013969D02*
X026907Y013969D01*
X026907Y014039D01*
X027607Y015219D02*
X028007Y015219D01*
X028438Y015312D02*
X028438Y015505D01*
X028615Y015505D02*
X028615Y015312D01*
X029226Y015312D02*
X029226Y015505D01*
X029402Y015505D02*
X029402Y015312D01*
X029402Y016887D02*
X029402Y017080D01*
X029226Y017080D02*
X029226Y016887D01*
X028615Y016887D02*
X028615Y017080D01*
X028438Y017080D02*
X028438Y016887D01*
X026907Y016769D02*
X026907Y016699D01*
X026907Y016769D02*
X026837Y016769D01*
X025037Y017459D02*
X025037Y017859D01*
X034926Y017662D02*
X035119Y017662D01*
X035119Y017485D02*
X034926Y017485D01*
X034926Y016481D02*
X035119Y016481D01*
X035119Y016304D02*
X034926Y016304D01*
X037835Y017207D02*
X038536Y017207D01*
X038536Y016975D02*
X038069Y016975D01*
X038302Y017207D02*
X038069Y017558D01*
X038302Y017207D02*
X038536Y017558D01*
X038536Y017790D02*
X037835Y018258D01*
X038536Y016975D02*
X038536Y016624D01*
X038419Y016508D01*
X038069Y016508D01*
X038419Y016274D02*
X038536Y016274D01*
X038536Y016158D01*
X038419Y016158D01*
X038419Y016274D01*
X038419Y015925D02*
X038186Y015925D01*
X038069Y015808D01*
X038069Y015575D01*
X038186Y015458D01*
X038419Y015458D01*
X038536Y015575D01*
X038536Y015808D01*
X038419Y015925D01*
X038536Y015225D02*
X038536Y014875D01*
X038419Y014758D01*
X038186Y014758D01*
X038069Y014875D01*
X038069Y015225D01*
X038419Y014525D02*
X038536Y014525D01*
X038536Y014408D01*
X038419Y014408D01*
X038419Y014525D01*
X038419Y014175D02*
X038536Y014059D01*
X038536Y013708D01*
X038536Y013476D02*
X038186Y013476D01*
X038069Y013359D01*
X038186Y013242D01*
X038536Y013242D01*
X038536Y013009D02*
X038069Y013009D01*
X038069Y013125D01*
X038186Y013242D01*
X038069Y012776D02*
X038536Y012776D01*
X038536Y012426D01*
X038419Y012309D01*
X038069Y012309D01*
X038069Y012076D02*
X038069Y011959D01*
X038302Y011726D01*
X038069Y011726D02*
X038536Y011726D01*
X038536Y011493D02*
X038536Y011143D01*
X038419Y011026D01*
X038186Y011026D01*
X038069Y011143D01*
X038069Y011493D01*
X038536Y010793D02*
X038536Y010559D01*
X038536Y010676D02*
X037835Y010676D01*
X037835Y010559D01*
X037835Y010209D02*
X037718Y010209D01*
X038069Y010209D02*
X038536Y010209D01*
X038536Y010093D02*
X038536Y010326D01*
X038536Y009860D02*
X038186Y009860D01*
X038069Y009743D01*
X038069Y009510D01*
X038186Y009393D01*
X038186Y009160D02*
X038419Y009160D01*
X038536Y009043D01*
X038536Y008693D01*
X038536Y008460D02*
X038536Y008343D01*
X038419Y008343D01*
X038419Y008460D01*
X038536Y008460D01*
X038769Y008693D02*
X038069Y008693D01*
X038069Y009043D01*
X038186Y009160D01*
X038536Y009393D02*
X037835Y009393D01*
X038069Y010093D02*
X038069Y010209D01*
X036567Y009994D02*
X036100Y010461D01*
X035983Y010461D01*
X035867Y010345D01*
X035867Y010111D01*
X035983Y009994D01*
X036567Y009994D02*
X036567Y010461D01*
X036451Y010694D02*
X035983Y011161D01*
X036451Y011161D01*
X036567Y011044D01*
X036567Y010811D01*
X036451Y010694D01*
X035983Y010694D01*
X035867Y010811D01*
X035867Y011044D01*
X035983Y011161D01*
X036100Y011394D02*
X035867Y011627D01*
X036567Y011627D01*
X036567Y011394D02*
X036567Y011861D01*
X036217Y012094D02*
X036217Y012561D01*
X035867Y012444D02*
X036217Y012094D01*
X036567Y012444D02*
X035867Y012444D01*
X038069Y013708D02*
X038069Y014059D01*
X038186Y014175D01*
X038419Y014175D01*
X038769Y013708D02*
X038069Y013708D01*
X036217Y009062D02*
X036217Y008595D01*
X035983Y007662D02*
X035867Y007662D01*
X035983Y007662D02*
X036217Y007429D01*
X036567Y007429D01*
X036217Y007429D02*
X035983Y007195D01*
X035867Y007195D01*
X035867Y006962D02*
X036567Y006962D01*
X035867Y006495D01*
X036567Y006495D01*
X036451Y006263D02*
X035983Y006263D01*
X035867Y006146D01*
X035867Y005796D01*
X036567Y005796D01*
X036567Y006146D01*
X036451Y006263D01*
X036451Y005563D02*
X035983Y005563D01*
X036451Y005096D01*
X036567Y005212D01*
X036567Y005446D01*
X036451Y005563D01*
X035983Y005563D02*
X035867Y005446D01*
X035867Y005212D01*
X035983Y005096D01*
X036451Y005096D01*
X036567Y004863D02*
X035867Y004863D01*
X036100Y004629D01*
X035867Y004396D01*
X036567Y004396D01*
X036567Y003463D02*
X036567Y003230D01*
X036567Y003346D02*
X035867Y003346D01*
X035867Y003230D01*
X035867Y002880D02*
X035750Y002880D01*
X036100Y002880D02*
X036567Y002880D01*
X036567Y002763D02*
X036567Y002997D01*
X036567Y002530D02*
X036217Y002530D01*
X036100Y002414D01*
X036100Y002180D01*
X036217Y002063D01*
X036217Y001831D02*
X035983Y001831D01*
X035867Y001714D01*
X035867Y001363D01*
X036567Y001363D01*
X036334Y001363D02*
X036334Y001714D01*
X036217Y001831D01*
X035867Y002063D02*
X036567Y002063D01*
X036100Y002763D02*
X036100Y002880D01*
X037952Y002745D02*
X038419Y002745D01*
X038536Y002862D01*
X038536Y003095D02*
X038536Y003445D01*
X038419Y003562D01*
X038186Y003562D01*
X038069Y003445D01*
X038069Y003095D01*
X038769Y003095D01*
X038536Y003795D02*
X038536Y004145D01*
X038419Y004262D01*
X038302Y004145D01*
X038302Y003911D01*
X038186Y003795D01*
X038069Y003911D01*
X038069Y004262D01*
X038069Y004494D02*
X038186Y004494D01*
X038186Y004611D01*
X038069Y004611D01*
X038069Y004494D01*
X038419Y004494D02*
X038419Y004611D01*
X038536Y004611D01*
X038536Y004494D01*
X038419Y004494D01*
X038536Y004844D02*
X037835Y005311D01*
X037835Y006011D02*
X038536Y005544D01*
X038419Y006244D02*
X038069Y006244D01*
X038419Y006244D02*
X038536Y006361D01*
X038419Y006477D01*
X038536Y006594D01*
X038419Y006711D01*
X038069Y006711D01*
X038069Y006944D02*
X038419Y006944D01*
X038536Y007060D01*
X038419Y007177D01*
X038536Y007294D01*
X038419Y007411D01*
X038069Y007411D01*
X038069Y007643D02*
X038419Y007643D01*
X038536Y007760D01*
X038419Y007877D01*
X038536Y007994D01*
X038419Y008110D01*
X038069Y008110D01*
X038069Y002862D02*
X038069Y002628D01*
X038069Y002395D02*
X038069Y002162D01*
X037952Y002278D02*
X038419Y002278D01*
X038536Y002395D01*
X038536Y001929D02*
X038186Y001929D01*
X038069Y001812D01*
X038069Y001579D01*
X038186Y001462D01*
X038536Y001462D02*
X037835Y001462D01*
X033938Y001028D02*
X033745Y001028D01*
X033745Y000852D02*
X033938Y000852D01*
X032650Y001335D02*
X032650Y001528D01*
X032474Y001528D02*
X032474Y001335D01*
X032076Y001661D02*
X032076Y001811D01*
X031676Y001811D01*
X031676Y001661D01*
X031676Y001531D01*
X031206Y001531D01*
X030966Y001531D01*
X031206Y001531D01*
X031536Y001531D01*
X031626Y001531D01*
X031676Y001661D02*
X032046Y001661D01*
X032076Y001661D01*
X032046Y001661D02*
X032046Y001821D01*
X031676Y001821D01*
X031676Y001811D01*
X031676Y001821D02*
X031676Y001911D01*
X031676Y002071D01*
X031676Y002171D01*
X031676Y002331D01*
X031676Y002421D01*
X032046Y002421D01*
X032046Y002581D01*
X032076Y002581D01*
X032076Y002431D01*
X031676Y002431D01*
X031676Y002581D01*
X031676Y002711D01*
X030496Y002711D01*
X030496Y002581D01*
X030496Y002431D01*
X030096Y002431D01*
X030096Y002581D01*
X030126Y002581D01*
X030126Y002421D01*
X030496Y002421D01*
X030496Y001821D01*
X030496Y001911D01*
X030496Y002071D01*
X030496Y002171D01*
X030496Y002331D01*
X030496Y002421D01*
X030496Y002431D01*
X030496Y002331D02*
X030126Y002331D01*
X030096Y002331D01*
X030096Y002171D01*
X030126Y002171D01*
X030496Y002171D01*
X030496Y002071D02*
X030126Y002071D01*
X030096Y002071D01*
X030096Y001911D01*
X030126Y001911D01*
X030496Y001911D01*
X030496Y001821D02*
X030126Y001821D01*
X030126Y001661D01*
X030096Y001661D01*
X030096Y001811D01*
X030496Y001811D01*
X030496Y001661D01*
X030496Y001531D01*
X030966Y001531D01*
X030636Y001531D01*
X030546Y001531D01*
X030496Y001661D02*
X030126Y001661D01*
X030126Y001911D02*
X030126Y002071D01*
X030126Y002171D02*
X030126Y002331D01*
X030126Y002581D02*
X030496Y002581D01*
X030546Y002711D02*
X031626Y002711D01*
X031536Y002711D02*
X030636Y002711D01*
X031676Y002581D02*
X032046Y002581D01*
X032046Y002331D02*
X032076Y002331D01*
X032076Y002171D01*
X032046Y002171D01*
X032046Y002331D01*
X031676Y002331D01*
X031676Y002421D02*
X031676Y002431D01*
X031676Y002171D02*
X031676Y002071D01*
X032046Y002071D01*
X032076Y002071D01*
X032076Y001911D01*
X032046Y001911D01*
X032046Y002071D01*
X032046Y002171D02*
X031676Y002171D01*
X031676Y001911D02*
X032046Y001911D01*
X031773Y001126D02*
X031580Y001126D01*
X031580Y000950D02*
X031773Y000950D01*
X030591Y000950D02*
X030399Y000950D01*
X030399Y001126D02*
X030591Y001126D01*
X030496Y001811D02*
X030496Y001821D01*
X029213Y001126D02*
X029021Y001126D01*
X029021Y000950D02*
X029213Y000950D01*
X027639Y001344D02*
X027446Y001344D01*
X027446Y001520D02*
X027639Y001520D01*
X027245Y000831D02*
X027052Y000831D01*
X027052Y000655D02*
X027245Y000655D01*
X026745Y002320D02*
X026745Y002513D01*
X026568Y002513D02*
X026568Y002320D01*
X024883Y005084D02*
X024690Y005084D01*
X024690Y005260D02*
X024883Y005260D01*
X022028Y004178D02*
X021836Y004178D01*
X021836Y004001D02*
X022028Y004001D01*
X020749Y008233D02*
X020556Y008233D01*
X020556Y008410D02*
X020749Y008410D01*
X010710Y023588D02*
X010517Y023588D01*
X010517Y023764D02*
X010710Y023764D01*
X010710Y024178D02*
X010517Y024178D01*
X010517Y024355D02*
X010710Y024355D01*
X009717Y026532D02*
X009717Y026725D01*
X009541Y026725D02*
X009541Y026532D01*
X005395Y027328D02*
X005202Y027328D01*
X005202Y027504D02*
X005395Y027504D01*
D14*
X023687Y016559D02*
X023687Y016379D01*
X024107Y016379D01*
X024107Y016559D01*
X023687Y016559D01*
X023687Y016249D02*
X023687Y016069D01*
X024107Y016069D01*
X024107Y016249D01*
X023687Y016249D01*
X023687Y015929D02*
X023687Y015749D01*
X024107Y015749D01*
X024107Y015929D01*
X023687Y015929D01*
X023687Y015619D02*
X023687Y015439D01*
X024107Y015439D01*
X024107Y015619D01*
X023687Y015619D01*
X023687Y015299D02*
X023687Y015119D01*
X024107Y015119D01*
X024107Y015299D01*
X023687Y015299D01*
X023687Y014989D02*
X023687Y014809D01*
X024107Y014809D01*
X024107Y014989D01*
X023687Y014989D01*
X023687Y014669D02*
X023687Y014489D01*
X024107Y014489D01*
X024107Y014669D01*
X023687Y014669D01*
X023687Y014359D02*
X023687Y014179D01*
X024107Y014179D01*
X024107Y014359D01*
X023687Y014359D01*
X024107Y013969D02*
X024107Y016769D01*
X026907Y016769D01*
X026907Y013969D01*
X024107Y013969D01*
X024317Y013969D02*
X024317Y013549D01*
X024497Y013549D01*
X024497Y013969D01*
X024317Y013969D01*
X024627Y013969D02*
X024627Y013549D01*
X024807Y013549D01*
X024807Y013969D01*
X024627Y013969D01*
X024947Y013969D02*
X024947Y013549D01*
X025127Y013549D01*
X025127Y013969D01*
X024947Y013969D01*
X025257Y013969D02*
X025257Y013549D01*
X025437Y013549D01*
X025437Y013969D01*
X025257Y013969D01*
X025577Y013969D02*
X025577Y013549D01*
X025757Y013549D01*
X025757Y013969D01*
X025577Y013969D01*
X025887Y013969D02*
X025887Y013549D01*
X026067Y013549D01*
X026067Y013969D01*
X025887Y013969D01*
X026207Y013969D02*
X026207Y013549D01*
X026387Y013549D01*
X026387Y013969D01*
X026207Y013969D01*
X026517Y013969D02*
X026517Y013549D01*
X026697Y013549D01*
X026697Y013969D01*
X026517Y013969D01*
X026907Y014179D02*
X026907Y014359D01*
X027327Y014359D01*
X027327Y014179D01*
X026907Y014179D01*
X026907Y014489D02*
X027327Y014489D01*
X027327Y014669D01*
X026907Y014669D01*
X026907Y014489D01*
X026907Y014809D02*
X027327Y014809D01*
X027327Y014989D01*
X026907Y014989D01*
X026907Y014809D01*
X026907Y015119D02*
X027327Y015119D01*
X027327Y015299D01*
X026907Y015299D01*
X026907Y015119D01*
X026907Y015439D02*
X027327Y015439D01*
X027327Y015619D01*
X026907Y015619D01*
X026907Y015439D01*
X026907Y015749D02*
X027327Y015749D01*
X027327Y015929D01*
X026907Y015929D01*
X026907Y015749D01*
X026907Y016069D02*
X027327Y016069D01*
X027327Y016249D01*
X026907Y016249D01*
X026907Y016069D01*
X026907Y016379D02*
X027327Y016379D01*
X027327Y016559D01*
X026907Y016559D01*
X026907Y016379D01*
X026697Y016769D02*
X026517Y016769D01*
X026517Y017189D01*
X026697Y017189D01*
X026697Y016769D01*
X026387Y016769D02*
X026387Y017189D01*
X026207Y017189D01*
X026207Y016769D01*
X026387Y016769D01*
X026067Y016769D02*
X026067Y017189D01*
X025887Y017189D01*
X025887Y016769D01*
X026067Y016769D01*
X025757Y016769D02*
X025757Y017189D01*
X025577Y017189D01*
X025577Y016769D01*
X025757Y016769D01*
X025437Y016769D02*
X025437Y017189D01*
X025257Y017189D01*
X025257Y016769D01*
X025437Y016769D01*
X025127Y016769D02*
X025127Y017189D01*
X024947Y017189D01*
X024947Y016769D01*
X025127Y016769D01*
X024807Y016769D02*
X024807Y017189D01*
X024627Y017189D01*
X024627Y016769D01*
X024807Y016769D01*
X024607Y016769D02*
X024107Y016269D01*
X024317Y016769D02*
X024317Y017189D01*
X024497Y017189D01*
X024497Y016769D01*
X024317Y016769D01*
X030966Y001531D02*
X030968Y001552D01*
X030973Y001572D01*
X030982Y001591D01*
X030994Y001608D01*
X031009Y001623D01*
X031026Y001635D01*
X031045Y001644D01*
X031065Y001649D01*
X031086Y001651D01*
X031107Y001649D01*
X031127Y001644D01*
X031146Y001635D01*
X031163Y001623D01*
X031178Y001608D01*
X031190Y001591D01*
X031199Y001572D01*
X031204Y001552D01*
X031206Y001531D01*
X031204Y001552D01*
X031199Y001572D01*
X031190Y001591D01*
X031178Y001608D01*
X031163Y001623D01*
X031146Y001635D01*
X031127Y001644D01*
X031107Y001649D01*
X031086Y001651D01*
X031065Y001649D01*
X031045Y001644D01*
X031026Y001635D01*
X031009Y001623D01*
X030994Y001608D01*
X030982Y001591D01*
X030973Y001572D01*
X030968Y001552D01*
X030966Y001531D01*
X030968Y001552D01*
X030973Y001572D01*
X030982Y001591D01*
X030994Y001608D01*
X031009Y001623D01*
X031026Y001635D01*
X031045Y001644D01*
X031065Y001649D01*
X031086Y001651D01*
X031107Y001649D01*
X031127Y001644D01*
X031146Y001635D01*
X031163Y001623D01*
X031178Y001608D01*
X031190Y001591D01*
X031199Y001572D01*
X031204Y001552D01*
X031206Y001531D01*
X031204Y001552D01*
X031199Y001572D01*
X031190Y001591D01*
X031178Y001608D01*
X031163Y001623D01*
X031146Y001635D01*
X031127Y001644D01*
X031107Y001649D01*
X031086Y001651D01*
X031065Y001649D01*
X031045Y001644D01*
X031026Y001635D01*
X031009Y001623D01*
X030994Y001608D01*
X030982Y001591D01*
X030973Y001572D01*
X030968Y001552D01*
X030966Y001531D01*
D15*
X002885Y029694D03*
D16*
X018731Y012959D02*
X018731Y010440D01*
X018849Y010440D01*
X021133Y010440D01*
X021251Y010440D01*
X021251Y012959D01*
X022298Y012022D02*
X022298Y005723D01*
X028597Y005723D01*
X028597Y012022D01*
X022298Y012022D01*
X025554Y008341D02*
X027432Y008341D01*
X027432Y006463D01*
X025554Y006463D01*
X025554Y008341D01*
X024160Y007692D02*
X023400Y007692D01*
X023400Y006723D01*
X024160Y006723D01*
X024160Y007692D01*
X031176Y008040D02*
X031176Y008540D01*
X031426Y008790D01*
X032926Y008790D01*
X033176Y008540D01*
X033176Y008040D01*
X032926Y007790D01*
X031426Y007790D01*
X031176Y008040D01*
X031426Y008790D02*
X031176Y009040D01*
X031176Y009540D01*
X031426Y009790D01*
X032926Y009790D01*
X033176Y009540D01*
X033176Y009040D01*
X032926Y008790D01*
X032926Y009790D02*
X033176Y010040D01*
X033176Y010540D01*
X032926Y010790D01*
X031426Y010790D01*
X031176Y010540D01*
X031176Y010040D01*
X031426Y009790D01*
X031044Y010040D02*
X031044Y010540D01*
X034182Y003818D02*
X033932Y003568D01*
X033932Y003068D01*
X034182Y002818D01*
X033932Y002568D01*
X033932Y002068D01*
X034182Y001818D01*
X034682Y001818D01*
X034932Y002068D01*
X034932Y002568D01*
X034682Y002818D01*
X034932Y003068D01*
X034932Y003568D01*
X034682Y003818D01*
X034182Y003818D01*
D17*
X008692Y023078D02*
X008692Y023176D01*
X008692Y023078D02*
X004873Y023078D01*
X004873Y023176D01*
X004873Y026995D02*
X004873Y027054D01*
X008692Y027054D01*
X008692Y026995D01*
D18*
X008001Y025168D02*
X007821Y024988D01*
X007866Y024873D02*
X007821Y024828D01*
X007821Y024738D01*
X007866Y024693D01*
X007956Y024693D01*
X008001Y024738D01*
X008001Y024828D01*
X007956Y024873D01*
X007866Y024873D01*
X008001Y024988D02*
X007821Y025168D01*
X008001Y024587D02*
X008001Y024496D01*
X008001Y024542D02*
X007731Y024542D01*
X007731Y024496D01*
X007866Y024382D02*
X007821Y024337D01*
X007821Y024202D01*
X007731Y024202D02*
X008001Y024202D01*
X008001Y024337D01*
X007956Y024382D01*
X007866Y024382D01*
X007821Y024087D02*
X008001Y024087D01*
X008001Y023952D01*
X007956Y023907D01*
X007821Y023907D01*
X003408Y025841D02*
X003408Y026747D01*
X002739Y026747D01*
X002739Y025841D01*
X003408Y025841D01*
X020928Y016038D02*
X020928Y014306D01*
X021086Y014188D01*
X021243Y014188D01*
X022109Y014188D02*
X022267Y014188D01*
X022424Y014345D01*
X022424Y016038D01*
X022267Y016196D01*
X022109Y016196D01*
X021243Y016196D02*
X021125Y016196D01*
X020928Y016038D01*
X030003Y006156D02*
X033152Y006156D01*
X033152Y003007D01*
X030003Y003007D01*
X030003Y006156D01*
X023424Y003566D02*
X022424Y003566D01*
X022024Y003566D02*
X021924Y003566D01*
X021924Y003416D01*
X021674Y001266D02*
X021524Y001266D01*
X022424Y001266D02*
X022674Y001266D01*
X023174Y001266D02*
X023424Y001266D01*
D19*
X007826Y023550D03*
D20*
X010049Y026489D02*
X010049Y026769D01*
X010384Y026769D02*
X010384Y026489D01*
X004085Y027079D02*
X004085Y027359D01*
X003750Y027359D02*
X003750Y027079D01*
X002686Y027007D02*
X002005Y027007D01*
X002005Y027437D02*
X002686Y027437D01*
X002399Y025463D02*
X003079Y025463D01*
X003079Y025033D02*
X002399Y025033D01*
X020512Y007896D02*
X020793Y007896D01*
X020793Y007561D02*
X020512Y007561D01*
X017030Y004956D02*
X017030Y004207D01*
X016893Y004020D02*
X016895Y004032D01*
X016900Y004043D01*
X016909Y004052D01*
X016920Y004057D01*
X016932Y004059D01*
X016944Y004057D01*
X016955Y004052D01*
X016964Y004043D01*
X016969Y004032D01*
X016971Y004020D01*
X016969Y004008D01*
X016964Y003997D01*
X016955Y003988D01*
X016944Y003983D01*
X016932Y003981D01*
X016920Y003983D01*
X016909Y003988D01*
X016900Y003997D01*
X016895Y004008D01*
X016893Y004020D01*
X016873Y003951D02*
X016869Y003975D01*
X016863Y003997D01*
X016852Y004019D01*
X016839Y004039D01*
X016823Y004056D01*
X016805Y004071D01*
X016784Y004083D01*
X016762Y004092D01*
X016739Y004097D01*
X016715Y004099D01*
X016691Y004097D01*
X016668Y004092D01*
X016646Y004083D01*
X016625Y004071D01*
X016607Y004056D01*
X016591Y004039D01*
X016578Y004019D01*
X016567Y003997D01*
X016561Y003975D01*
X016557Y003951D01*
X016400Y004207D02*
X016400Y004956D01*
X013881Y004956D02*
X013881Y004207D01*
X013743Y004020D02*
X013745Y004032D01*
X013750Y004043D01*
X013759Y004052D01*
X013770Y004057D01*
X013782Y004059D01*
X013794Y004057D01*
X013805Y004052D01*
X013814Y004043D01*
X013819Y004032D01*
X013821Y004020D01*
X013819Y004008D01*
X013814Y003997D01*
X013805Y003988D01*
X013794Y003983D01*
X013782Y003981D01*
X013770Y003983D01*
X013759Y003988D01*
X013750Y003997D01*
X013745Y004008D01*
X013743Y004020D01*
X013724Y003951D02*
X013720Y003975D01*
X013714Y003997D01*
X013703Y004019D01*
X013690Y004039D01*
X013674Y004056D01*
X013656Y004071D01*
X013635Y004083D01*
X013613Y004092D01*
X013590Y004097D01*
X013566Y004099D01*
X013542Y004097D01*
X013519Y004092D01*
X013497Y004083D01*
X013476Y004071D01*
X013458Y004056D01*
X013442Y004039D01*
X013429Y004019D01*
X013418Y003997D01*
X013412Y003975D01*
X013408Y003951D01*
X013251Y004207D02*
X013251Y004956D01*
X010731Y004956D02*
X010731Y004207D01*
X010594Y004020D02*
X010596Y004032D01*
X010601Y004043D01*
X010610Y004052D01*
X010621Y004057D01*
X010633Y004059D01*
X010645Y004057D01*
X010656Y004052D01*
X010665Y004043D01*
X010670Y004032D01*
X010672Y004020D01*
X010670Y004008D01*
X010665Y003997D01*
X010656Y003988D01*
X010645Y003983D01*
X010633Y003981D01*
X010621Y003983D01*
X010610Y003988D01*
X010601Y003997D01*
X010596Y004008D01*
X010594Y004020D01*
X010574Y003951D02*
X010570Y003975D01*
X010564Y003997D01*
X010553Y004019D01*
X010540Y004039D01*
X010524Y004056D01*
X010506Y004071D01*
X010485Y004083D01*
X010463Y004092D01*
X010440Y004097D01*
X010416Y004099D01*
X010392Y004097D01*
X010369Y004092D01*
X010347Y004083D01*
X010326Y004071D01*
X010308Y004056D01*
X010292Y004039D01*
X010279Y004019D01*
X010268Y003997D01*
X010262Y003975D01*
X010258Y003951D01*
X010101Y004207D02*
X010101Y004956D01*
X007582Y004956D02*
X007582Y004207D01*
X007444Y004020D02*
X007446Y004032D01*
X007451Y004043D01*
X007460Y004052D01*
X007471Y004057D01*
X007483Y004059D01*
X007495Y004057D01*
X007506Y004052D01*
X007515Y004043D01*
X007520Y004032D01*
X007522Y004020D01*
X007520Y004008D01*
X007515Y003997D01*
X007506Y003988D01*
X007495Y003983D01*
X007483Y003981D01*
X007471Y003983D01*
X007460Y003988D01*
X007451Y003997D01*
X007446Y004008D01*
X007444Y004020D01*
X007425Y003951D02*
X007421Y003975D01*
X007415Y003997D01*
X007404Y004019D01*
X007391Y004039D01*
X007375Y004056D01*
X007357Y004071D01*
X007336Y004083D01*
X007314Y004092D01*
X007291Y004097D01*
X007267Y004099D01*
X007243Y004097D01*
X007220Y004092D01*
X007198Y004083D01*
X007177Y004071D01*
X007159Y004056D01*
X007143Y004039D01*
X007130Y004019D01*
X007119Y003997D01*
X007113Y003975D01*
X007109Y003951D01*
X006952Y004207D02*
X006952Y004956D01*
X024592Y002796D02*
X024592Y002036D01*
X025572Y002036D02*
X025572Y002796D01*
X025901Y002556D02*
X025901Y002276D01*
X026236Y002276D02*
X026236Y002556D01*
X028627Y004201D02*
X028627Y004961D01*
X029607Y004961D02*
X029607Y004201D01*
X027811Y004638D02*
X027811Y004919D01*
X027476Y004919D02*
X027476Y004638D01*
X034882Y016818D02*
X035163Y016818D01*
X035163Y017153D02*
X034882Y017153D01*
X034882Y017999D02*
X035163Y017999D01*
X035163Y018334D02*
X034882Y018334D01*
D21*
X016952Y003956D03*
X013802Y003956D03*
X010652Y003956D03*
X007503Y003956D03*
D22*
X007557Y004035D03*
X010707Y004035D03*
X013856Y004035D03*
X017006Y004035D03*
D23*
X016868Y004055D03*
X013718Y004055D03*
X010569Y004055D03*
X007419Y004055D03*
D24*
X007439Y004075D03*
X010588Y004075D03*
X013738Y004075D03*
X016888Y004075D03*
D25*
X016479Y004001D03*
X013330Y004001D03*
X010180Y004001D03*
X007030Y004001D03*
D26*
X007050Y004075D03*
X010200Y004075D03*
X013349Y004075D03*
X016499Y004075D03*
D27*
X016715Y004148D03*
X013566Y004148D03*
X010416Y004148D03*
X007267Y004148D03*
D28*
X007267Y005093D03*
X010416Y005093D03*
X013566Y005093D03*
X016715Y005093D03*
D29*
X016445Y004360D03*
X016986Y004360D03*
X013836Y004360D03*
X013295Y004360D03*
X010687Y004360D03*
X010146Y004360D03*
X007537Y004360D03*
X006996Y004360D03*
D30*
X007267Y004513D03*
X010416Y004513D03*
X013566Y004513D03*
X016715Y004513D03*
D31*
X026654Y002575D03*
X026654Y002255D03*
X032564Y001593D03*
X032564Y001273D03*
X029312Y015247D03*
X029312Y015567D03*
X028528Y015569D03*
X028528Y015249D03*
X028528Y016824D03*
X028528Y017144D03*
X029312Y017142D03*
X029312Y016822D03*
X023013Y015764D03*
X023013Y015444D03*
X009631Y026470D03*
X009631Y026790D03*
D32*
X010454Y024265D03*
X010774Y024265D03*
X010774Y023674D03*
X010454Y023674D03*
X005457Y027418D03*
X005137Y027418D03*
X019901Y016394D03*
X020221Y016394D03*
X022066Y016985D03*
X022386Y016985D03*
X022386Y017576D03*
X022066Y017576D03*
X022066Y018166D03*
X022386Y018166D03*
X020221Y014229D03*
X019901Y014229D03*
X020491Y008324D03*
X020811Y008324D03*
X024625Y005174D03*
X024945Y005174D03*
X022091Y004091D03*
X021771Y004091D03*
X026989Y000741D03*
X027309Y000741D03*
X027381Y001434D03*
X027701Y001434D03*
X028956Y001040D03*
X029276Y001040D03*
X030336Y001036D03*
X030656Y001036D03*
X031517Y001036D03*
X031837Y001036D03*
X033682Y000938D03*
X034002Y000938D03*
X034863Y016391D03*
X035183Y016391D03*
X035183Y017572D03*
X034863Y017572D03*
D33*
X003128Y025247D03*
X002348Y025247D03*
X002736Y027223D03*
X001956Y027223D03*
D34*
X003918Y027448D03*
X003918Y026988D03*
X010217Y026857D03*
X010217Y026397D03*
X027643Y005010D03*
X027643Y004550D03*
X026068Y002648D03*
X026068Y002188D03*
D35*
X020884Y007729D03*
X020424Y007729D03*
X034791Y016985D03*
X035251Y016985D03*
X035251Y018166D03*
X034791Y018166D03*
D36*
X029119Y005104D03*
X029115Y004059D03*
X025083Y002938D03*
X025080Y001894D03*
D37*
X023424Y002416D02*
X023424Y001266D01*
X023174Y001266D01*
X023174Y001516D01*
X022674Y001516D01*
X022674Y001266D01*
X022174Y001266D01*
X022174Y001516D01*
X021674Y001516D01*
X021674Y001266D01*
X021424Y001266D01*
X022424Y001266D01*
X022674Y001266D02*
X023174Y001266D01*
X023424Y002416D02*
X023424Y003566D01*
X022924Y003566D02*
X022924Y003166D01*
X022824Y002966D01*
X022024Y002966D01*
X021924Y003166D01*
X022024Y003166D01*
X022024Y003566D01*
X021924Y003566D02*
X021924Y003166D01*
X022024Y003166D02*
X022824Y003166D01*
X022824Y003566D01*
X022424Y003566D02*
X021924Y003566D01*
X021424Y003566D01*
X021424Y002416D01*
X021424Y001266D01*
X022824Y003166D02*
X022924Y003166D01*
X027444Y003105D02*
X027444Y002121D01*
X027444Y001894D01*
X029215Y001894D01*
X029215Y002121D02*
X029215Y003105D01*
X029215Y003331D01*
X027444Y003331D01*
X027444Y003105D01*
X029216Y002121D02*
X029215Y002008D01*
X029216Y001895D01*
D38*
X024035Y002211D02*
X023749Y002211D01*
X023892Y002211D02*
X023892Y002641D01*
X023749Y002497D01*
X021285Y002467D02*
X021285Y002539D01*
X021214Y002611D01*
X021070Y002611D01*
X020999Y002539D01*
X021285Y002467D02*
X020999Y002181D01*
X021285Y002181D01*
D39*
X021924Y002416D03*
X022924Y002416D03*
X031676Y008290D03*
X032676Y008290D03*
X032676Y009290D03*
X031676Y009290D03*
X031676Y010290D03*
X032676Y010290D03*
X034432Y003318D03*
X034432Y002318D03*
D40*
X029755Y021200D02*
X029755Y023200D01*
X028755Y022200D02*
X030755Y022200D01*
X023755Y027991D02*
X023755Y029991D01*
X024755Y028991D02*
X022755Y028991D01*
D41*
X029349Y002608D03*
D42*
X027310Y002613D03*
D43*
X027887Y002613D03*
D44*
X027887Y003204D03*
X027887Y002022D03*
M02*
