solid OpenSCAD_Model
  facet normal -1 0 0
    outer loop
      vertex 0 0 0
      vertex 0 0 3.9
      vertex 0 20.75 0.45
    endloop
  endfacet
  facet normal -1 0 0
    outer loop
      vertex 0 0 0
      vertex 0 20.75 0.45
      vertex 0 35.4 0
    endloop
  endfacet
  facet normal -1 0 0
    outer loop
      vertex 0 20.75 0.45
      vertex 0 23.25 0.45
      vertex 0 35.4 0
    endloop
  endfacet
  facet normal -1 0 0
    outer loop
      vertex 0 24.75 5.45
      vertex 0 23.25 5.9
      vertex 0 28.75 5.9
    endloop
  endfacet
  facet normal -1 0 0
    outer loop
      vertex 0 27.25 5.45
      vertex 0 28.75 0.45
      vertex 0 27.25 0.45
    endloop
  endfacet
  facet normal -1 0 0
    outer loop
      vertex 0 27.25 0.45
      vertex 0 28.75 0.45
      vertex 0 35.4 0
    endloop
  endfacet
  facet normal -1 0 0
    outer loop
      vertex 0 23.25 5.9
      vertex 0 24.75 0.45
      vertex 0 23.25 0.45
    endloop
  endfacet
  facet normal -1 0 0
    outer loop
      vertex 0 28.75 0.45
      vertex 0 31.25 0.45
      vertex 0 35.4 0
    endloop
  endfacet
  facet normal -1 0 0
    outer loop
      vertex 0 35.4 3.9
      vertex 0 35.4 0
      vertex 0 33.4 3.9
    endloop
  endfacet
  facet normal -1 0 0
    outer loop
      vertex 0 33.4 3.9
      vertex 0 31.25 5.9
      vertex 0 33.4 5.9
    endloop
  endfacet
  facet normal -1 0 0
    outer loop
      vertex 0 35.4 0
      vertex 0 31.25 5.9
      vertex 0 33.4 3.9
    endloop
  endfacet
  facet normal -1 0 0
    outer loop
      vertex 0 24.75 0.45
      vertex 0 23.25 5.9
      vertex 0 24.75 5.45
    endloop
  endfacet
  facet normal -1 0 0
    outer loop
      vertex 0 27.25 5.45
      vertex 0 24.75 5.45
      vertex 0 28.75 5.9
    endloop
  endfacet
  facet normal -1 0 0
    outer loop
      vertex 0 31.25 5.9
      vertex 0 35.4 0
      vertex 0 31.25 0.45
    endloop
  endfacet
  facet normal -1 0 0
    outer loop
      vertex 0 23.25 0.45
      vertex 0 24.75 0.45
      vertex 0 35.4 0
    endloop
  endfacet
  facet normal -1 0 0
    outer loop
      vertex 0 24.75 0.45
      vertex 0 27.25 0.45
      vertex 0 35.4 0
    endloop
  endfacet
  facet normal -1 0 0
    outer loop
      vertex 0 20.75 0.45
      vertex 0 0 3.9
      vertex 0 2 3.9
    endloop
  endfacet
  facet normal -1 0 0
    outer loop
      vertex 0 20.75 0.45
      vertex 0 2 3.9
      vertex 0 2 5.9
    endloop
  endfacet
  facet normal -1 0 0
    outer loop
      vertex 0 20.75 0.45
      vertex 0 2 5.9
      vertex 0 20.75 5.9
    endloop
  endfacet
  facet normal -1 0 0
    outer loop
      vertex 0 28.75 0.45
      vertex 0 27.25 5.45
      vertex 0 28.75 5.9
    endloop
  endfacet
  facet normal 0 -1 0
    outer loop
      vertex 0 0 3.9
      vertex 0 0 0
      vertex 40.3 0 0
    endloop
  endfacet
  facet normal 0 -1 0
    outer loop
      vertex 2 0 3.9
      vertex 0 0 3.9
      vertex 40.3 0 0
    endloop
  endfacet
  facet normal 0 -1 0
    outer loop
      vertex 40.3 0 5.9
      vertex 2 0 3.9
      vertex 40.3 0 0
    endloop
  endfacet
  facet normal 0 -1 0
    outer loop
      vertex 2 0 5.9
      vertex 2 0 3.9
      vertex 40.3 0 5.9
    endloop
  endfacet
  facet normal 0 0 -1
    outer loop
      vertex 0 0 0
      vertex 0 35.4 0
      vertex 40.3 0 0
    endloop
  endfacet
  facet normal 0 0 -1
    outer loop
      vertex 40.3 0 0
      vertex 0 35.4 0
      vertex 40.3 35.4 0
    endloop
  endfacet
  facet normal 0 1 0
    outer loop
      vertex 0 35.4 0
      vertex 0 35.4 3.9
      vertex 40.3 35.4 0
    endloop
  endfacet
  facet normal 0 1 0
    outer loop
      vertex 40.3 35.4 0
      vertex 0 35.4 3.9
      vertex 2 35.4 3.9
    endloop
  endfacet
  facet normal 0 1 0
    outer loop
      vertex 40.3 35.4 0
      vertex 2 35.4 3.9
      vertex 2 35.4 5.9
    endloop
  endfacet
  facet normal 0 1 0
    outer loop
      vertex 40.3 35.4 0
      vertex 2 35.4 5.9
      vertex 40.3 35.4 5.9
    endloop
  endfacet
  facet normal 0 0 1
    outer loop
      vertex 2 33.4 3.9
      vertex 2 35.4 3.9
      vertex 0 35.4 3.9
    endloop
  endfacet
  facet normal 0 0 1
    outer loop
      vertex 0 33.4 3.9
      vertex 2 33.4 3.9
      vertex 0 35.4 3.9
    endloop
  endfacet
  facet normal 0 1 0
    outer loop
      vertex 2 33.4 5.9
      vertex 2 33.4 3.9
      vertex 0 33.4 5.9
    endloop
  endfacet
  facet normal 0 1 0
    outer loop
      vertex 0 33.4 5.9
      vertex 2 33.4 3.9
      vertex 0 33.4 3.9
    endloop
  endfacet
  facet normal 0 0 1
    outer loop
      vertex 0 33.4 5.9
      vertex 0 31.25 5.9
      vertex 5 31.25 5.9
    endloop
  endfacet
  facet normal 0 0 1
    outer loop
      vertex 29 30.75 5.9
      vertex 0 33.4 5.9
      vertex 5 31.25 5.9
    endloop
  endfacet
  facet normal 0 0 1
    outer loop
      vertex 5 30.75 5.9
      vertex 29 30.75 5.9
      vertex 5 31.25 5.9
    endloop
  endfacet
  facet normal 0 0 1
    outer loop
      vertex 29 20.25 5.9
      vertex 40.3 20.25 5.9
      vertex 29 30.75 5.9
    endloop
  endfacet
  facet normal 0 0 1
    outer loop
      vertex 40.3 20.25 5.9
      vertex 40.3 35.4 5.9
      vertex 29 30.75 5.9
    endloop
  endfacet
  facet normal 0 0 1
    outer loop
      vertex 29 30.75 5.9
      vertex 2 33.4 5.9
      vertex 0 33.4 5.9
    endloop
  endfacet
  facet normal 0 0 1
    outer loop
      vertex 29 30.75 5.9
      vertex 40.3 35.4 5.9
      vertex 2 33.4 5.9
    endloop
  endfacet
  facet normal 0 0 1
    outer loop
      vertex 2 35.4 5.9
      vertex 2 33.4 5.9
      vertex 40.3 35.4 5.9
    endloop
  endfacet
  facet normal 0 -1 0
    outer loop
      vertex 5 31.25 5.9
      vertex 0.5 31.25 5.4
      vertex 5 31.25 5.4
    endloop
  endfacet
  facet normal 0 -1 0
    outer loop
      vertex 0 31.25 5.9
      vertex 0.5 31.25 5.4
      vertex 5 31.25 5.9
    endloop
  endfacet
  facet normal 0 -1 0
    outer loop
      vertex 0.5 31.25 0.45
      vertex 0.5 31.25 5.4
      vertex 0 31.25 5.9
    endloop
  endfacet
  facet normal 0 -1 0
    outer loop
      vertex 0 31.25 0.45
      vertex 0.5 31.25 0.45
      vertex 0 31.25 5.9
    endloop
  endfacet
  facet normal 0 0 1
    outer loop
      vertex 0.5 28.75 0.45
      vertex 0.5 31.25 0.45
      vertex 0 31.25 0.45
    endloop
  endfacet
  facet normal 0 0 1
    outer loop
      vertex 0 28.75 0.45
      vertex 0.5 28.75 0.45
      vertex 0 31.25 0.45
    endloop
  endfacet
  facet normal 0 1 0
    outer loop
      vertex 5 28.75 5.9
      vertex 5 28.75 5.4
      vertex 0 28.75 5.9
    endloop
  endfacet
  facet normal 0 1 0
    outer loop
      vertex 0 28.75 5.9
      vertex 5 28.75 5.4
      vertex 0.5 28.75 5.4
    endloop
  endfacet
  facet normal 0 1 0
    outer loop
      vertex 0 28.75 5.9
      vertex 0.5 28.75 5.4
      vertex 0.5 28.75 0.45
    endloop
  endfacet
  facet normal 0 1 0
    outer loop
      vertex 0 28.75 5.9
      vertex 0.5 28.75 0.45
      vertex 0 28.75 0.45
    endloop
  endfacet
  facet normal 0 0 1
    outer loop
      vertex 0 28.75 5.9
      vertex 0 23.25 5.9
      vertex 5 23.25 5.9
    endloop
  endfacet
  facet normal 0 0 1
    outer loop
      vertex 19 22.75 5.9
      vertex 0 28.75 5.9
      vertex 5 23.25 5.9
    endloop
  endfacet
  facet normal 0 0 1
    outer loop
      vertex 5 22.75 5.9
      vertex 19 22.75 5.9
      vertex 5 23.25 5.9
    endloop
  endfacet
  facet normal 0 0 1
    outer loop
      vertex 20.5 16.75 5.9
      vertex 27.5 15.25 5.9
      vertex 19 22.75 5.9
    endloop
  endfacet
  facet normal 0 0 1
    outer loop
      vertex 19 16.75 5.9
      vertex 20.5 16.75 5.9
      vertex 19 22.75 5.9
    endloop
  endfacet
  facet normal 0 0 1
    outer loop
      vertex 20.5 15.25 5.9
      vertex 27.5 15.25 5.9
      vertex 20.5 16.75 5.9
    endloop
  endfacet
  facet normal 0 0 1
    outer loop
      vertex 27.5 15.25 5.9
      vertex 27.5 27.75 5.9
      vertex 19 22.75 5.9
    endloop
  endfacet
  facet normal 0 0 1
    outer loop
      vertex 19 22.75 5.9
      vertex 26 27.75 5.9
      vertex 0 28.75 5.9
    endloop
  endfacet
  facet normal 0 0 1
    outer loop
      vertex 19 22.75 5.9
      vertex 27.5 27.75 5.9
      vertex 26 27.75 5.9
    endloop
  endfacet
  facet normal 0 0 1
    outer loop
      vertex 5 29.25 5.9
      vertex 5 28.75 5.9
      vertex 26 29.25 5.9
    endloop
  endfacet
  facet normal 0 0 1
    outer loop
      vertex 26 27.75 5.9
      vertex 5 28.75 5.9
      vertex 0 28.75 5.9
    endloop
  endfacet
  facet normal 0 0 1
    outer loop
      vertex 26 27.75 5.9
      vertex 26 29.25 5.9
      vertex 5 28.75 5.9
    endloop
  endfacet
  facet normal 0 -1 0
    outer loop
      vertex 5 23.25 5.9
      vertex 0.5 23.25 5.4
      vertex 5 23.25 5.4
    endloop
  endfacet
  facet normal 0 -1 0
    outer loop
      vertex 0 23.25 5.9
      vertex 0.5 23.25 5.4
      vertex 5 23.25 5.9
    endloop
  endfacet
  facet normal 0 -1 0
    outer loop
      vertex 0.5 23.25 0.45
      vertex 0.5 23.25 5.4
      vertex 0 23.25 5.9
    endloop
  endfacet
  facet normal 0 -1 0
    outer loop
      vertex 0 23.25 0.45
      vertex 0.5 23.25 0.45
      vertex 0 23.25 5.9
    endloop
  endfacet
  facet normal 0 0 1
    outer loop
      vertex 0.5 20.75 0.45
      vertex 0.5 23.25 0.45
      vertex 0 23.25 0.45
    endloop
  endfacet
  facet normal 0 0 1
    outer loop
      vertex 0 20.75 0.45
      vertex 0.5 20.75 0.45
      vertex 0 23.25 0.45
    endloop
  endfacet
  facet normal 0 1 0
    outer loop
      vertex 5 20.75 5.9
      vertex 5 20.75 5.4
      vertex 0 20.75 5.9
    endloop
  endfacet
  facet normal 0 1 0
    outer loop
      vertex 0 20.75 5.9
      vertex 5 20.75 5.4
      vertex 0.5 20.75 5.4
    endloop
  endfacet
  facet normal 0 1 0
    outer loop
      vertex 0 20.75 5.9
      vertex 0.5 20.75 5.4
      vertex 0.5 20.75 0.45
    endloop
  endfacet
  facet normal 0 1 0
    outer loop
      vertex 0 20.75 5.9
      vertex 0.5 20.75 0.45
      vertex 0 20.75 0.45
    endloop
  endfacet
  facet normal 0 0 1
    outer loop
      vertex 0 20.75 5.9
      vertex 0 2 5.9
      vertex 2 2 5.9
    endloop
  endfacet
  facet normal 0 0 1
    outer loop
      vertex 40.3 0 5.9
      vertex 0 20.75 5.9
      vertex 2 2 5.9
    endloop
  endfacet
  facet normal 0 0 1
    outer loop
      vertex 2 0 5.9
      vertex 40.3 0 5.9
      vertex 2 2 5.9
    endloop
  endfacet
  facet normal 0 0 1
    outer loop
      vertex 16 19.75 5.9
      vertex 16 21.25 5.9
      vertex 5 20.75 5.9
    endloop
  endfacet
  facet normal 0 0 1
    outer loop
      vertex 40.3 0 5.9
      vertex 17.5 13.75 5.9
      vertex 0 20.75 5.9
    endloop
  endfacet
  facet normal 0 0 1
    outer loop
      vertex 40.3 0 5.9
      vertex 40.3 13.75 5.9
      vertex 17.5 13.75 5.9
    endloop
  endfacet
  facet normal 0 0 1
    outer loop
      vertex 16 19.75 5.9
      vertex 5 20.75 5.9
      vertex 0 20.75 5.9
    endloop
  endfacet
  facet normal 0 0 1
    outer loop
      vertex 5 21.25 5.9
      vertex 5 20.75 5.9
      vertex 16 21.25 5.9
    endloop
  endfacet
  facet normal 0 0 1
    outer loop
      vertex 17.5 13.75 5.9
      vertex 16 19.75 5.9
      vertex 0 20.75 5.9
    endloop
  endfacet
  facet normal 0 0 1
    outer loop
      vertex 17.5 13.75 5.9
      vertex 17.5 19.75 5.9
      vertex 16 19.75 5.9
    endloop
  endfacet
  facet normal 0 -1 0
    outer loop
      vertex 2 2 3.9
      vertex 2 2 5.9
      vertex 0 2 5.9
    endloop
  endfacet
  facet normal 0 -1 0
    outer loop
      vertex 0 2 3.9
      vertex 2 2 3.9
      vertex 0 2 5.9
    endloop
  endfacet
  facet normal 0 0 1
    outer loop
      vertex 2 0 3.9
      vertex 2 2 3.9
      vertex 0 2 3.9
    endloop
  endfacet
  facet normal 0 0 1
    outer loop
      vertex 0 0 3.9
      vertex 2 0 3.9
      vertex 0 2 3.9
    endloop
  endfacet
  facet normal 0 0 -1
    outer loop
      vertex 0.5 27.25 5.45
      vertex 0.5 24.75 5.45
      vertex 0 27.25 5.45
    endloop
  endfacet
  facet normal 0 0 -1
    outer loop
      vertex 0 27.25 5.45
      vertex 0.5 24.75 5.45
      vertex 0 24.75 5.45
    endloop
  endfacet
  facet normal 0 1 0
    outer loop
      vertex 0.5 24.75 5.45
      vertex 0.5 24.75 0.45
      vertex 0 24.75 5.45
    endloop
  endfacet
  facet normal 0 1 0
    outer loop
      vertex 0 24.75 5.45
      vertex 0.5 24.75 0.45
      vertex 0 24.75 0.45
    endloop
  endfacet
  facet normal 0 -1 0
    outer loop
      vertex 0.5 27.25 0.45
      vertex 0.5 27.25 5.45
      vertex 0 27.25 5.45
    endloop
  endfacet
  facet normal 0 -1 0
    outer loop
      vertex 0 27.25 0.45
      vertex 0.5 27.25 0.45
      vertex 0 27.25 5.45
    endloop
  endfacet
  facet normal 0 0 1
    outer loop
      vertex 0.5 24.75 0.45
      vertex 0.5 27.25 0.45
      vertex 0 27.25 0.45
    endloop
  endfacet
  facet normal 0 0 1
    outer loop
      vertex 0 24.75 0.45
      vertex 0.5 24.75 0.45
      vertex 0 27.25 0.45
    endloop
  endfacet
  facet normal -1 0 0
    outer loop
      vertex 2 2 5.9
      vertex 2 2 3.9
      vertex 2 0 5.9
    endloop
  endfacet
  facet normal -1 0 0
    outer loop
      vertex 2 0 5.9
      vertex 2 2 3.9
      vertex 2 0 3.9
    endloop
  endfacet
  facet normal 1 0 0
    outer loop
      vertex 40.3 20.25 1.9
      vertex 40.3 0 0
      vertex 40.3 35.4 0
    endloop
  endfacet
  facet normal 1 0 0
    outer loop
      vertex 40.3 13.75 1.9
      vertex 40.3 13.75 5.9
      vertex 40.3 0 5.9
    endloop
  endfacet
  facet normal 1 0 0
    outer loop
      vertex 40.3 35.4 5.9
      vertex 40.3 20.25 5.9
      vertex 40.3 35.4 0
    endloop
  endfacet
  facet normal 1 0 0
    outer loop
      vertex 40.3 13.75 1.9
      vertex 40.3 0 0
      vertex 40.3 20.25 1.9
    endloop
  endfacet
  facet normal 1 0 0
    outer loop
      vertex 40.3 0 5.9
      vertex 40.3 0 0
      vertex 40.3 13.75 1.9
    endloop
  endfacet
  facet normal 1 0 0
    outer loop
      vertex 40.3 20.25 5.9
      vertex 40.3 20.25 1.9
      vertex 40.3 35.4 0
    endloop
  endfacet
  facet normal -1 0 0
    outer loop
      vertex 2 35.4 5.9
      vertex 2 35.4 3.9
      vertex 2 33.4 5.9
    endloop
  endfacet
  facet normal -1 0 0
    outer loop
      vertex 2 33.4 5.9
      vertex 2 35.4 3.9
      vertex 2 33.4 3.9
    endloop
  endfacet
  facet normal 0 -1 0
    outer loop
      vertex 40.3 20.25 1.9
      vertex 40.3 20.25 5.9
      vertex 29 20.25 5.9
    endloop
  endfacet
  facet normal 0 -1 0
    outer loop
      vertex 27.5 20.25 4.4
      vertex 40.3 20.25 1.9
      vertex 29 20.25 4.4
    endloop
  endfacet
  facet normal 0 -1 0
    outer loop
      vertex 29 20.25 4.4
      vertex 40.3 20.25 1.9
      vertex 29 20.25 5.9
    endloop
  endfacet
  facet normal 0 -1 0
    outer loop
      vertex 27.5 20.25 1.9
      vertex 40.3 20.25 1.9
      vertex 27.5 20.25 4.4
    endloop
  endfacet
  facet normal -1 0 0
    outer loop
      vertex 29 30.75 5.9
      vertex 29 30.75 4.4
      vertex 29 20.25 5.9
    endloop
  endfacet
  facet normal -1 0 0
    outer loop
      vertex 29 20.25 5.9
      vertex 29 30.75 4.4
      vertex 29 20.25 4.4
    endloop
  endfacet
  facet normal 0 -1 0
    outer loop
      vertex 29 30.75 4.4
      vertex 29 30.75 5.9
      vertex 5 30.75 5.9
    endloop
  endfacet
  facet normal 0 -1 0
    outer loop
      vertex 2.5 30.75 5.4
      vertex 29 30.75 4.4
      vertex 5 30.75 5.4
    endloop
  endfacet
  facet normal 0 -1 0
    outer loop
      vertex 5 30.75 5.4
      vertex 29 30.75 4.4
      vertex 5 30.75 5.9
    endloop
  endfacet
  facet normal 0 -1 0
    outer loop
      vertex 2.5 30.75 4.4
      vertex 29 30.75 4.4
      vertex 2.5 30.75 5.4
    endloop
  endfacet
  facet normal -1 0 0
    outer loop
      vertex 5 31.25 5.9
      vertex 5 31.25 5.4
      vertex 5 30.75 5.9
    endloop
  endfacet
  facet normal -1 0 0
    outer loop
      vertex 5 30.75 5.9
      vertex 5 31.25 5.4
      vertex 5 30.75 5.4
    endloop
  endfacet
  facet normal -1 0 0
    outer loop
      vertex 0.5 31.25 5.4
      vertex 0.5 31.25 0.45
      vertex 0.5 28.75 5.4
    endloop
  endfacet
  facet normal -1 0 0
    outer loop
      vertex 0.5 28.75 5.4
      vertex 0.5 31.25 0.45
      vertex 0.5 28.75 0.45
    endloop
  endfacet
  facet normal 0 0 1
    outer loop
      vertex 2.5 30.75 5.4
      vertex 0.5 31.25 5.4
      vertex 2.5 29.25 5.4
    endloop
  endfacet
  facet normal 0 0 1
    outer loop
      vertex 5 28.75 5.4
      vertex 5 29.25 5.4
      vertex 2.5 29.25 5.4
    endloop
  endfacet
  facet normal 0 0 1
    outer loop
      vertex 0.5 28.75 5.4
      vertex 5 28.75 5.4
      vertex 2.5 29.25 5.4
    endloop
  endfacet
  facet normal 0 0 1
    outer loop
      vertex 5 30.75 5.4
      vertex 5 31.25 5.4
      vertex 2.5 30.75 5.4
    endloop
  endfacet
  facet normal 0 0 1
    outer loop
      vertex 5 31.25 5.4
      vertex 0.5 31.25 5.4
      vertex 2.5 30.75 5.4
    endloop
  endfacet
  facet normal 0 0 1
    outer loop
      vertex 0.5 31.25 5.4
      vertex 0.5 28.75 5.4
      vertex 2.5 29.25 5.4
    endloop
  endfacet
  facet normal -1 0 0
    outer loop
      vertex 5 29.25 5.9
      vertex 5 29.25 5.4
      vertex 5 28.75 5.9
    endloop
  endfacet
  facet normal -1 0 0
    outer loop
      vertex 5 28.75 5.9
      vertex 5 29.25 5.4
      vertex 5 28.75 5.4
    endloop
  endfacet
  facet normal 0 1 0
    outer loop
      vertex 5 29.25 5.4
      vertex 5 29.25 5.9
      vertex 26 29.25 5.9
    endloop
  endfacet
  facet normal 0 1 0
    outer loop
      vertex 5 29.25 5.4
      vertex 26 29.25 5.9
      vertex 26 29.25 4.4
    endloop
  endfacet
  facet normal 0 1 0
    outer loop
      vertex 5 29.25 5.4
      vertex 26 29.25 4.4
      vertex 2.5 29.25 5.4
    endloop
  endfacet
  facet normal 0 1 0
    outer loop
      vertex 26 29.25 4.4
      vertex 2.5 29.25 4.4
      vertex 2.5 29.25 5.4
    endloop
  endfacet
  facet normal 1 0 0
    outer loop
      vertex 26 29.25 4.4
      vertex 26 29.25 5.9
      vertex 26 27.75 5.9
    endloop
  endfacet
  facet normal 1 0 0
    outer loop
      vertex 26 27.75 4.4
      vertex 26 29.25 4.4
      vertex 26 27.75 5.9
    endloop
  endfacet
  facet normal 0 1 0
    outer loop
      vertex 27.5 27.75 5.9
      vertex 27.5 27.75 4.4
      vertex 26 27.75 5.9
    endloop
  endfacet
  facet normal 0 1 0
    outer loop
      vertex 26 27.75 5.9
      vertex 27.5 27.75 4.4
      vertex 26 27.75 4.4
    endloop
  endfacet
  facet normal 1 0 0
    outer loop
      vertex 27.5 27.75 5.9
      vertex 27.5 20.25 4.4
      vertex 27.5 27.75 4.4
    endloop
  endfacet
  facet normal 1 0 0
    outer loop
      vertex 27.5 15.25 5.9
      vertex 27.5 20.25 4.4
      vertex 27.5 27.75 5.9
    endloop
  endfacet
  facet normal 1 0 0
    outer loop
      vertex 27.5 20.25 1.9
      vertex 27.5 20.25 4.4
      vertex 27.5 15.25 5.9
    endloop
  endfacet
  facet normal 1 0 0
    outer loop
      vertex 27.5 15.25 4.4
      vertex 27.5 20.25 1.9
      vertex 27.5 15.25 5.9
    endloop
  endfacet
  facet normal 1 0 0
    outer loop
      vertex 27.5 13.75 4.4
      vertex 27.5 20.25 1.9
      vertex 27.5 15.25 4.4
    endloop
  endfacet
  facet normal 1 0 0
    outer loop
      vertex 27.5 13.75 1.9
      vertex 27.5 20.25 1.9
      vertex 27.5 13.75 4.4
    endloop
  endfacet
  facet normal 0 -1 0
    outer loop
      vertex 27.5 15.25 4.4
      vertex 27.5 15.25 5.9
      vertex 20.5 15.25 5.9
    endloop
  endfacet
  facet normal 0 -1 0
    outer loop
      vertex 20.5 15.25 4.4
      vertex 27.5 15.25 4.4
      vertex 20.5 15.25 5.9
    endloop
  endfacet
  facet normal -1 0 0
    outer loop
      vertex 20.5 16.75 5.9
      vertex 20.5 16.75 4.4
      vertex 20.5 15.25 5.9
    endloop
  endfacet
  facet normal -1 0 0
    outer loop
      vertex 20.5 15.25 5.9
      vertex 20.5 16.75 4.4
      vertex 20.5 15.25 4.4
    endloop
  endfacet
  facet normal 0 -1 0
    outer loop
      vertex 20.5 16.75 4.4
      vertex 20.5 16.75 5.9
      vertex 19 16.75 5.9
    endloop
  endfacet
  facet normal 0 -1 0
    outer loop
      vertex 19 16.75 4.4
      vertex 20.5 16.75 4.4
      vertex 19 16.75 5.9
    endloop
  endfacet
  facet normal -1 0 0
    outer loop
      vertex 19 22.75 5.9
      vertex 19 22.75 4.4
      vertex 19 16.75 5.9
    endloop
  endfacet
  facet normal -1 0 0
    outer loop
      vertex 19 16.75 5.9
      vertex 19 22.75 4.4
      vertex 19 16.75 4.4
    endloop
  endfacet
  facet normal 0 -1 0
    outer loop
      vertex 19 22.75 4.4
      vertex 19 22.75 5.9
      vertex 5 22.75 5.9
    endloop
  endfacet
  facet normal 0 -1 0
    outer loop
      vertex 2.5 22.75 5.4
      vertex 19 22.75 4.4
      vertex 5 22.75 5.4
    endloop
  endfacet
  facet normal 0 -1 0
    outer loop
      vertex 5 22.75 5.4
      vertex 19 22.75 4.4
      vertex 5 22.75 5.9
    endloop
  endfacet
  facet normal 0 -1 0
    outer loop
      vertex 2.5 22.75 4.4
      vertex 19 22.75 4.4
      vertex 2.5 22.75 5.4
    endloop
  endfacet
  facet normal -1 0 0
    outer loop
      vertex 5 23.25 5.9
      vertex 5 23.25 5.4
      vertex 5 22.75 5.9
    endloop
  endfacet
  facet normal -1 0 0
    outer loop
      vertex 5 22.75 5.9
      vertex 5 23.25 5.4
      vertex 5 22.75 5.4
    endloop
  endfacet
  facet normal -1 0 0
    outer loop
      vertex 0.5 23.25 5.4
      vertex 0.5 23.25 0.45
      vertex 0.5 20.75 5.4
    endloop
  endfacet
  facet normal -1 0 0
    outer loop
      vertex 0.5 20.75 5.4
      vertex 0.5 23.25 0.45
      vertex 0.5 20.75 0.45
    endloop
  endfacet
  facet normal 0 0 1
    outer loop
      vertex 2.5 22.75 5.4
      vertex 0.5 23.25 5.4
      vertex 2.5 21.25 5.4
    endloop
  endfacet
  facet normal 0 0 1
    outer loop
      vertex 5 20.75 5.4
      vertex 5 21.25 5.4
      vertex 2.5 21.25 5.4
    endloop
  endfacet
  facet normal 0 0 1
    outer loop
      vertex 0.5 20.75 5.4
      vertex 5 20.75 5.4
      vertex 2.5 21.25 5.4
    endloop
  endfacet
  facet normal 0 0 1
    outer loop
      vertex 5 22.75 5.4
      vertex 5 23.25 5.4
      vertex 2.5 22.75 5.4
    endloop
  endfacet
  facet normal 0 0 1
    outer loop
      vertex 5 23.25 5.4
      vertex 0.5 23.25 5.4
      vertex 2.5 22.75 5.4
    endloop
  endfacet
  facet normal 0 0 1
    outer loop
      vertex 0.5 23.25 5.4
      vertex 0.5 20.75 5.4
      vertex 2.5 21.25 5.4
    endloop
  endfacet
  facet normal -1 0 0
    outer loop
      vertex 5 21.25 5.9
      vertex 5 21.25 5.4
      vertex 5 20.75 5.9
    endloop
  endfacet
  facet normal -1 0 0
    outer loop
      vertex 5 20.75 5.9
      vertex 5 21.25 5.4
      vertex 5 20.75 5.4
    endloop
  endfacet
  facet normal 0 1 0
    outer loop
      vertex 5 21.25 5.4
      vertex 5 21.25 5.9
      vertex 16 21.25 5.9
    endloop
  endfacet
  facet normal 0 1 0
    outer loop
      vertex 5 21.25 5.4
      vertex 16 21.25 5.9
      vertex 16 21.25 4.4
    endloop
  endfacet
  facet normal 0 1 0
    outer loop
      vertex 5 21.25 5.4
      vertex 16 21.25 4.4
      vertex 2.5 21.25 5.4
    endloop
  endfacet
  facet normal 0 1 0
    outer loop
      vertex 16 21.25 4.4
      vertex 2.5 21.25 4.4
      vertex 2.5 21.25 5.4
    endloop
  endfacet
  facet normal 1 0 0
    outer loop
      vertex 16 21.25 4.4
      vertex 16 21.25 5.9
      vertex 16 19.75 5.9
    endloop
  endfacet
  facet normal 1 0 0
    outer loop
      vertex 16 19.75 4.4
      vertex 16 21.25 4.4
      vertex 16 19.75 5.9
    endloop
  endfacet
  facet normal 0 1 0
    outer loop
      vertex 17.5 19.75 5.9
      vertex 17.5 19.75 4.4
      vertex 16 19.75 5.9
    endloop
  endfacet
  facet normal 0 1 0
    outer loop
      vertex 16 19.75 5.9
      vertex 17.5 19.75 4.4
      vertex 16 19.75 4.4
    endloop
  endfacet
  facet normal 1 0 0
    outer loop
      vertex 17.5 19.75 4.4
      vertex 17.5 19.75 5.9
      vertex 17.5 13.75 5.9
    endloop
  endfacet
  facet normal 1 0 0
    outer loop
      vertex 17.5 13.75 4.4
      vertex 17.5 19.75 4.4
      vertex 17.5 13.75 5.9
    endloop
  endfacet
  facet normal 0 1 0
    outer loop
      vertex 17.5 13.75 4.4
      vertex 17.5 13.75 5.9
      vertex 27.5 13.75 4.4
    endloop
  endfacet
  facet normal 0 1 0
    outer loop
      vertex 40.3 13.75 5.9
      vertex 40.3 13.75 1.9
      vertex 27.5 13.75 4.4
    endloop
  endfacet
  facet normal 0 1 0
    outer loop
      vertex 40.3 13.75 5.9
      vertex 27.5 13.75 4.4
      vertex 17.5 13.75 5.9
    endloop
  endfacet
  facet normal 0 1 0
    outer loop
      vertex 27.5 13.75 4.4
      vertex 40.3 13.75 1.9
      vertex 27.5 13.75 1.9
    endloop
  endfacet
  facet normal -1 0 0
    outer loop
      vertex 0.5 27.25 5.45
      vertex 0.5 27.25 0.45
      vertex 0.5 24.75 5.45
    endloop
  endfacet
  facet normal -1 0 0
    outer loop
      vertex 0.5 24.75 5.45
      vertex 0.5 27.25 0.45
      vertex 0.5 24.75 0.45
    endloop
  endfacet
  facet normal 0 0 1
    outer loop
      vertex 40.3 13.75 1.9
      vertex 40.3 20.25 1.9
      vertex 27.5 20.25 1.9
    endloop
  endfacet
  facet normal 0 0 1
    outer loop
      vertex 27.5 13.75 1.9
      vertex 40.3 13.75 1.9
      vertex 27.5 20.25 1.9
    endloop
  endfacet
  facet normal 0 0 1
    outer loop
      vertex 26 29.25 4.4
      vertex 26 27.75 4.4
      vertex 27.5 27.75 4.4
    endloop
  endfacet
  facet normal 0 0 1
    outer loop
      vertex 29 30.75 4.4
      vertex 26 29.25 4.4
      vertex 27.5 27.75 4.4
    endloop
  endfacet
  facet normal 0 0 1
    outer loop
      vertex 27.5 20.25 4.4
      vertex 29 20.25 4.4
      vertex 27.5 27.75 4.4
    endloop
  endfacet
  facet normal 0 0 1
    outer loop
      vertex 29 20.25 4.4
      vertex 29 30.75 4.4
      vertex 27.5 27.75 4.4
    endloop
  endfacet
  facet normal 0 0 1
    outer loop
      vertex 29 30.75 4.4
      vertex 2.5 30.75 4.4
      vertex 26 29.25 4.4
    endloop
  endfacet
  facet normal 0 0 1
    outer loop
      vertex 2.5 29.25 4.4
      vertex 26 29.25 4.4
      vertex 2.5 30.75 4.4
    endloop
  endfacet
  facet normal 1 0 0
    outer loop
      vertex 2.5 30.75 4.4
      vertex 2.5 30.75 5.4
      vertex 2.5 29.25 5.4
    endloop
  endfacet
  facet normal 1 0 0
    outer loop
      vertex 2.5 29.25 4.4
      vertex 2.5 30.75 4.4
      vertex 2.5 29.25 5.4
    endloop
  endfacet
  facet normal 0 0 1
    outer loop
      vertex 16 21.25 4.4
      vertex 16 19.75 4.4
      vertex 17.5 19.75 4.4
    endloop
  endfacet
  facet normal 0 0 1
    outer loop
      vertex 17.5 19.75 4.4
      vertex 19 22.75 4.4
      vertex 16 21.25 4.4
    endloop
  endfacet
  facet normal 0 0 1
    outer loop
      vertex 20.5 16.75 4.4
      vertex 19 16.75 4.4
      vertex 20.5 15.25 4.4
    endloop
  endfacet
  facet normal 0 0 1
    outer loop
      vertex 19 16.75 4.4
      vertex 19 22.75 4.4
      vertex 17.5 19.75 4.4
    endloop
  endfacet
  facet normal 0 0 1
    outer loop
      vertex 17.5 13.75 4.4
      vertex 27.5 13.75 4.4
      vertex 20.5 15.25 4.4
    endloop
  endfacet
  facet normal 0 0 1
    outer loop
      vertex 17.5 13.75 4.4
      vertex 19 16.75 4.4
      vertex 17.5 19.75 4.4
    endloop
  endfacet
  facet normal 0 0 1
    outer loop
      vertex 17.5 13.75 4.4
      vertex 20.5 15.25 4.4
      vertex 19 16.75 4.4
    endloop
  endfacet
  facet normal 0 0 1
    outer loop
      vertex 19 22.75 4.4
      vertex 2.5 22.75 4.4
      vertex 16 21.25 4.4
    endloop
  endfacet
  facet normal 0 0 1
    outer loop
      vertex 2.5 21.25 4.4
      vertex 16 21.25 4.4
      vertex 2.5 22.75 4.4
    endloop
  endfacet
  facet normal 0 0 1
    outer loop
      vertex 27.5 15.25 4.4
      vertex 20.5 15.25 4.4
      vertex 27.5 13.75 4.4
    endloop
  endfacet
  facet normal 1 0 0
    outer loop
      vertex 2.5 22.75 4.4
      vertex 2.5 22.75 5.4
      vertex 2.5 21.25 5.4
    endloop
  endfacet
  facet normal 1 0 0
    outer loop
      vertex 2.5 21.25 4.4
      vertex 2.5 22.75 4.4
      vertex 2.5 21.25 5.4
    endloop
  endfacet
endsolid OpenSCAD_Model
