G75*
%MOIN*%
%OFA0B0*%
%FSLAX24Y24*%
%IPPOS*%
%LPD*%
%AMOC8*
5,1,8,0,0,1.08239X$1,22.5*
%
%ADD10C,0.0000*%
%ADD11R,0.0580X0.0200*%
%ADD12R,0.0200X0.0580*%
%ADD13R,0.0787X0.0394*%
%ADD14R,0.0787X0.0512*%
%ADD15R,0.0709X0.0315*%
%ADD16R,0.0709X0.0276*%
%ADD17C,0.0886*%
%ADD18R,0.0591X0.0591*%
%ADD19R,0.0354X0.0276*%
%ADD20R,0.0276X0.0354*%
%ADD21R,0.0394X0.0394*%
%ADD22R,0.0394X0.0433*%
%ADD23R,0.0433X0.0394*%
%ADD24R,0.1063X0.0630*%
%ADD25C,0.1500*%
%ADD26OC8,0.0740*%
%ADD27R,0.0600X0.0180*%
%ADD28R,0.0787X0.0787*%
%ADD29R,0.0110X0.0197*%
%ADD30C,0.0050*%
%ADD31C,0.0740*%
%ADD32R,0.2362X0.1181*%
%ADD33R,0.0630X0.1063*%
%ADD34R,0.1000X0.0500*%
%ADD35R,0.0551X0.0748*%
%ADD36C,0.0600*%
%ADD37C,0.0160*%
%ADD38C,0.0238*%
%ADD39C,0.0400*%
%ADD40C,0.0100*%
%ADD41C,0.0120*%
%ADD42C,0.1500*%
%ADD43C,0.0240*%
%ADD44C,0.0700*%
%ADD45C,0.0500*%
%ADD46C,0.0860*%
%ADD47C,0.0320*%
D10*
X000574Y000251D02*
X000574Y032054D01*
X039341Y032054D01*
X039341Y000251D01*
X000574Y000251D01*
X000928Y031156D02*
X000930Y031206D01*
X000936Y031256D01*
X000946Y031305D01*
X000960Y031353D01*
X000977Y031400D01*
X000998Y031445D01*
X001023Y031489D01*
X001051Y031530D01*
X001083Y031569D01*
X001117Y031606D01*
X001154Y031640D01*
X001194Y031670D01*
X001236Y031697D01*
X001280Y031721D01*
X001326Y031742D01*
X001373Y031758D01*
X001421Y031771D01*
X001471Y031780D01*
X001520Y031785D01*
X001571Y031786D01*
X001621Y031783D01*
X001670Y031776D01*
X001719Y031765D01*
X001767Y031750D01*
X001813Y031732D01*
X001858Y031710D01*
X001901Y031684D01*
X001942Y031655D01*
X001981Y031623D01*
X002017Y031588D01*
X002049Y031550D01*
X002079Y031510D01*
X002106Y031467D01*
X002129Y031423D01*
X002148Y031377D01*
X002164Y031329D01*
X002176Y031280D01*
X002184Y031231D01*
X002188Y031181D01*
X002188Y031131D01*
X002184Y031081D01*
X002176Y031032D01*
X002164Y030983D01*
X002148Y030935D01*
X002129Y030889D01*
X002106Y030845D01*
X002079Y030802D01*
X002049Y030762D01*
X002017Y030724D01*
X001981Y030689D01*
X001942Y030657D01*
X001901Y030628D01*
X001858Y030602D01*
X001813Y030580D01*
X001767Y030562D01*
X001719Y030547D01*
X001670Y030536D01*
X001621Y030529D01*
X001571Y030526D01*
X001520Y030527D01*
X001471Y030532D01*
X001421Y030541D01*
X001373Y030554D01*
X001326Y030570D01*
X001280Y030591D01*
X001236Y030615D01*
X001194Y030642D01*
X001154Y030672D01*
X001117Y030706D01*
X001083Y030743D01*
X001051Y030782D01*
X001023Y030823D01*
X000998Y030867D01*
X000977Y030912D01*
X000960Y030959D01*
X000946Y031007D01*
X000936Y031056D01*
X000930Y031106D01*
X000928Y031156D01*
X037739Y031156D02*
X037741Y031206D01*
X037747Y031256D01*
X037757Y031305D01*
X037771Y031353D01*
X037788Y031400D01*
X037809Y031445D01*
X037834Y031489D01*
X037862Y031530D01*
X037894Y031569D01*
X037928Y031606D01*
X037965Y031640D01*
X038005Y031670D01*
X038047Y031697D01*
X038091Y031721D01*
X038137Y031742D01*
X038184Y031758D01*
X038232Y031771D01*
X038282Y031780D01*
X038331Y031785D01*
X038382Y031786D01*
X038432Y031783D01*
X038481Y031776D01*
X038530Y031765D01*
X038578Y031750D01*
X038624Y031732D01*
X038669Y031710D01*
X038712Y031684D01*
X038753Y031655D01*
X038792Y031623D01*
X038828Y031588D01*
X038860Y031550D01*
X038890Y031510D01*
X038917Y031467D01*
X038940Y031423D01*
X038959Y031377D01*
X038975Y031329D01*
X038987Y031280D01*
X038995Y031231D01*
X038999Y031181D01*
X038999Y031131D01*
X038995Y031081D01*
X038987Y031032D01*
X038975Y030983D01*
X038959Y030935D01*
X038940Y030889D01*
X038917Y030845D01*
X038890Y030802D01*
X038860Y030762D01*
X038828Y030724D01*
X038792Y030689D01*
X038753Y030657D01*
X038712Y030628D01*
X038669Y030602D01*
X038624Y030580D01*
X038578Y030562D01*
X038530Y030547D01*
X038481Y030536D01*
X038432Y030529D01*
X038382Y030526D01*
X038331Y030527D01*
X038282Y030532D01*
X038232Y030541D01*
X038184Y030554D01*
X038137Y030570D01*
X038091Y030591D01*
X038047Y030615D01*
X038005Y030642D01*
X037965Y030672D01*
X037928Y030706D01*
X037894Y030743D01*
X037862Y030782D01*
X037834Y030823D01*
X037809Y030867D01*
X037788Y030912D01*
X037771Y030959D01*
X037757Y031007D01*
X037747Y031056D01*
X037741Y031106D01*
X037739Y031156D01*
D11*
X027177Y016469D03*
X027177Y016159D03*
X027177Y015839D03*
X027177Y015529D03*
X027177Y015209D03*
X027177Y014899D03*
X027177Y014579D03*
X027177Y014269D03*
X023837Y014269D03*
X023837Y014579D03*
X023837Y014899D03*
X023837Y015209D03*
X023837Y015529D03*
X023837Y015839D03*
X023837Y016159D03*
X023837Y016469D03*
D12*
X024407Y017039D03*
X024717Y017039D03*
X025037Y017039D03*
X025347Y017039D03*
X025667Y017039D03*
X025977Y017039D03*
X026297Y017039D03*
X026607Y017039D03*
X026607Y013699D03*
X026297Y013699D03*
X025977Y013699D03*
X025667Y013699D03*
X025347Y013699D03*
X025037Y013699D03*
X024717Y013699D03*
X024407Y013699D03*
D13*
X002873Y028961D03*
X002873Y031757D03*
D14*
X021676Y015959D03*
X021676Y014463D03*
X022298Y011629D03*
X022298Y010841D03*
X022298Y010054D03*
X022298Y009267D03*
X022298Y008479D03*
X022298Y007692D03*
X022298Y006904D03*
X022298Y006117D03*
X028597Y006117D03*
X028597Y006904D03*
X028597Y007692D03*
X028597Y008479D03*
X028597Y009267D03*
X028597Y010054D03*
X028597Y010841D03*
X028597Y011629D03*
D15*
X008652Y023786D03*
X008652Y024219D03*
X008652Y024652D03*
X008652Y025085D03*
X008652Y025519D03*
X008652Y025952D03*
X008652Y026385D03*
X004912Y026385D03*
X004912Y025952D03*
X004912Y025519D03*
X004912Y025085D03*
X004912Y024652D03*
X004912Y024219D03*
X004912Y023786D03*
D16*
X004912Y023373D03*
X008652Y023373D03*
X008652Y026798D03*
X004912Y026798D03*
D17*
X018991Y012700D03*
X019991Y011700D03*
X020991Y012700D03*
X020991Y010700D03*
X018991Y010700D03*
D18*
X016715Y005270D03*
X016715Y003893D03*
X013566Y003893D03*
X013566Y005270D03*
X010416Y005270D03*
X010416Y003893D03*
X007267Y003893D03*
X007267Y005270D03*
D19*
X023015Y015349D03*
X023015Y015861D03*
X028526Y015664D03*
X028526Y015152D03*
X029314Y015152D03*
X029314Y015664D03*
X029314Y016727D03*
X029314Y017239D03*
X028526Y017239D03*
X028526Y016727D03*
X026656Y002672D03*
X026656Y002160D03*
X032660Y001688D03*
X032660Y001176D03*
X009629Y026373D03*
X009629Y026885D03*
D20*
X010357Y024267D03*
X010869Y024267D03*
X010869Y023676D03*
X010357Y023676D03*
X005554Y027416D03*
X005042Y027416D03*
X019806Y016393D03*
X020318Y016393D03*
X021971Y016885D03*
X021971Y017377D03*
X022483Y017377D03*
X022483Y016885D03*
X022483Y017869D03*
X021971Y017869D03*
X020318Y014227D03*
X019806Y014227D03*
X020397Y008322D03*
X020908Y008322D03*
X024530Y005172D03*
X025042Y005172D03*
X027286Y001530D03*
X027798Y001530D03*
X027680Y001038D03*
X028192Y001038D03*
X028960Y001038D03*
X029471Y001038D03*
X030239Y001038D03*
X030751Y001038D03*
X031519Y001038D03*
X032030Y001038D03*
X033586Y000940D03*
X034097Y000940D03*
X020219Y001235D03*
X019708Y001235D03*
X034668Y015507D03*
X035180Y015507D03*
X035180Y016688D03*
X034668Y016688D03*
D21*
X003133Y025251D03*
X002345Y025251D03*
X001952Y027219D03*
X002739Y027219D03*
D22*
X003920Y026885D03*
X003920Y027554D03*
X010219Y026963D03*
X010219Y026294D03*
X027641Y005113D03*
X027641Y004444D03*
X026066Y002751D03*
X026066Y002081D03*
D23*
X020987Y007731D03*
X020318Y007731D03*
X034589Y016097D03*
X035259Y016097D03*
X035259Y017278D03*
X034589Y017278D03*
D24*
X029117Y005133D03*
X029117Y004030D03*
X025082Y002967D03*
X025082Y001865D03*
D25*
X020160Y022200D03*
X017168Y022200D03*
X017168Y028991D03*
X020160Y028991D03*
X033349Y028991D03*
X036341Y028991D03*
X036341Y022200D03*
X033349Y022200D03*
D26*
X032676Y011176D03*
X031676Y011176D03*
X031576Y010176D03*
X032576Y010176D03*
X032676Y009176D03*
X031676Y009176D03*
D27*
X031886Y002501D03*
X031886Y002251D03*
X031886Y001991D03*
X031886Y001741D03*
X030286Y001741D03*
X030286Y001991D03*
X030286Y002251D03*
X030286Y002501D03*
D28*
X029117Y002613D03*
X027542Y002613D03*
D29*
X003290Y025900D03*
X003074Y025900D03*
X002857Y025900D03*
X002857Y026688D03*
X003074Y026688D03*
X003290Y026688D03*
D30*
X002810Y026521D02*
X002810Y026067D01*
X002810Y026521D02*
X003338Y026521D01*
X003338Y026067D01*
X002810Y026067D01*
X002810Y026116D02*
X003338Y026116D01*
X003338Y026165D02*
X002810Y026165D01*
X002810Y026214D02*
X003338Y026214D01*
X003338Y026263D02*
X002810Y026263D01*
X002810Y026312D02*
X003338Y026312D01*
X003338Y026361D02*
X002810Y026361D01*
X002810Y026410D02*
X003338Y026410D01*
X003338Y026459D02*
X002810Y026459D01*
X002810Y026508D02*
X003338Y026508D01*
D31*
X034432Y003318D03*
X034432Y002318D03*
D32*
X031578Y003581D03*
X031578Y005581D03*
D33*
X034373Y014621D03*
X035475Y014621D03*
D34*
X021440Y005074D03*
X020751Y006550D03*
D35*
X020337Y005644D03*
X019393Y005644D03*
X019393Y003912D03*
X020337Y003912D03*
D36*
X021924Y002716D02*
X021924Y002116D01*
X022924Y002116D02*
X022924Y002716D01*
D37*
X022924Y002416D02*
X021743Y001235D01*
X020219Y001235D01*
X019708Y001235D02*
X018782Y001235D01*
X017995Y002022D01*
X017995Y003991D01*
X016715Y005270D01*
X014747Y006058D02*
X014747Y017869D01*
X021971Y017869D01*
X022483Y017869D02*
X024407Y017869D01*
X024407Y017039D01*
X024717Y017039D02*
X024717Y018952D01*
X011991Y018952D01*
X011991Y024267D01*
X010869Y024267D01*
X011178Y024527D02*
X011081Y024624D01*
X010657Y024624D01*
X010613Y024580D01*
X010570Y024624D01*
X010145Y024624D01*
X010048Y024527D01*
X009187Y024527D01*
X009187Y025208D01*
X010464Y025208D01*
X010552Y025244D01*
X010620Y025312D01*
X010656Y025400D01*
X010656Y025994D01*
X011204Y025994D01*
X011204Y024527D01*
X011178Y024527D01*
X011204Y024660D02*
X009187Y024660D01*
X009187Y024818D02*
X011204Y024818D01*
X011204Y024977D02*
X009187Y024977D01*
X009187Y025135D02*
X011204Y025135D01*
X011204Y025294D02*
X010602Y025294D01*
X010656Y025452D02*
X011204Y025452D01*
X011204Y025611D02*
X010656Y025611D01*
X010656Y025769D02*
X011204Y025769D01*
X011204Y025928D02*
X010656Y025928D01*
X010593Y026594D02*
X010556Y026632D01*
X010560Y026636D01*
X010584Y026677D01*
X010596Y026723D01*
X010596Y026945D01*
X010238Y026945D01*
X010238Y026982D01*
X010201Y026982D01*
X010201Y027360D01*
X009999Y027360D01*
X009953Y027348D01*
X009912Y027324D01*
X009878Y027290D01*
X009855Y027249D01*
X009843Y027204D01*
X009843Y027199D01*
X009830Y027202D01*
X009629Y027202D01*
X009629Y026885D01*
X009629Y026885D01*
X009629Y027202D01*
X009428Y027202D01*
X009382Y027190D01*
X009341Y027166D01*
X009308Y027133D01*
X009284Y027092D01*
X009272Y027046D01*
X009272Y026885D01*
X009629Y026885D01*
X009629Y026885D01*
X009272Y026885D01*
X009272Y026723D01*
X009284Y026677D01*
X009287Y026672D01*
X009187Y026672D01*
X009187Y027010D01*
X009081Y027116D01*
X008224Y027116D01*
X008118Y027010D01*
X008118Y026637D01*
X008115Y026635D01*
X008047Y026568D01*
X008011Y026480D01*
X008011Y025779D01*
X006936Y025779D01*
X006936Y027468D01*
X006896Y027563D01*
X006823Y027637D01*
X006728Y027676D01*
X005864Y027676D01*
X005766Y027773D01*
X005342Y027773D01*
X005298Y027730D01*
X005255Y027773D01*
X004830Y027773D01*
X004724Y027668D01*
X004724Y027656D01*
X004404Y027656D01*
X004316Y027620D01*
X004297Y027601D01*
X004297Y027794D01*
X004285Y027840D01*
X004261Y027881D01*
X004228Y027915D01*
X004186Y027938D01*
X004141Y027950D01*
X003939Y027950D01*
X003939Y027572D01*
X003902Y027572D01*
X003902Y027536D01*
X003543Y027536D01*
X003543Y027314D01*
X003556Y027268D01*
X003579Y027227D01*
X003587Y027219D01*
X003543Y027176D01*
X003543Y027125D01*
X003439Y027125D01*
X003351Y027088D01*
X003229Y026966D01*
X003116Y026966D01*
X003116Y027059D01*
X003195Y027138D01*
X003253Y027278D01*
X003253Y028204D01*
X011204Y028204D01*
X011204Y026594D01*
X010593Y026594D01*
X010595Y026720D02*
X011204Y026720D01*
X011204Y026879D02*
X010596Y026879D01*
X010596Y026982D02*
X010596Y027204D01*
X010584Y027249D01*
X010560Y027290D01*
X010527Y027324D01*
X010486Y027348D01*
X010440Y027360D01*
X010238Y027360D01*
X010238Y026982D01*
X010596Y026982D01*
X010596Y027037D02*
X011204Y027037D01*
X011204Y027196D02*
X010596Y027196D01*
X010461Y027354D02*
X011204Y027354D01*
X011204Y027513D02*
X006917Y027513D01*
X006936Y027354D02*
X009978Y027354D01*
X010201Y027354D02*
X010238Y027354D01*
X010238Y027196D02*
X010201Y027196D01*
X010201Y027037D02*
X010238Y027037D01*
X009629Y027037D02*
X009629Y027037D01*
X009629Y027196D02*
X009629Y027196D01*
X009403Y027196D02*
X006936Y027196D01*
X006936Y027037D02*
X008145Y027037D01*
X008118Y026879D02*
X006936Y026879D01*
X006936Y026720D02*
X008118Y026720D01*
X008045Y026562D02*
X006936Y026562D01*
X006936Y026403D02*
X008011Y026403D01*
X008011Y026245D02*
X006936Y026245D01*
X006936Y026086D02*
X008011Y026086D01*
X008011Y025928D02*
X006936Y025928D01*
X006416Y025928D02*
X005447Y025928D01*
X005447Y025952D02*
X004912Y025952D01*
X005447Y025952D01*
X005447Y026133D01*
X005442Y026148D01*
X005447Y026153D01*
X005447Y026617D01*
X005442Y026621D01*
X005447Y026637D01*
X005447Y026798D01*
X005447Y026960D01*
X005434Y027005D01*
X005411Y027046D01*
X005398Y027059D01*
X005766Y027059D01*
X005864Y027156D01*
X006416Y027156D01*
X006416Y025467D01*
X006456Y025371D01*
X006529Y025298D01*
X006624Y025259D01*
X008101Y025259D01*
X008115Y025244D01*
X008118Y025243D01*
X008118Y023554D01*
X008122Y023550D01*
X008118Y023534D01*
X008118Y023373D01*
X008652Y023373D01*
X008652Y023373D01*
X008118Y023373D01*
X008118Y023211D01*
X008130Y023166D01*
X008154Y023125D01*
X008188Y023091D01*
X008229Y023067D01*
X008274Y023055D01*
X008652Y023055D01*
X008652Y023373D01*
X008652Y023373D01*
X009187Y023373D01*
X009187Y023526D01*
X010039Y023526D01*
X010039Y023424D01*
X010145Y023319D01*
X010570Y023319D01*
X010613Y023362D01*
X010657Y023319D01*
X011081Y023319D01*
X011178Y023416D01*
X011204Y023416D01*
X011204Y022692D01*
X000714Y022692D01*
X000714Y028204D01*
X002493Y028204D01*
X002493Y027596D01*
X002468Y027596D01*
X002362Y027491D01*
X002362Y027302D01*
X002359Y027295D01*
X002359Y027144D01*
X002362Y027136D01*
X002362Y026948D01*
X002399Y026911D01*
X002399Y026738D01*
X002451Y026613D01*
X002546Y026518D01*
X002604Y026494D01*
X002604Y026340D01*
X003028Y026340D01*
X003028Y026248D01*
X002604Y026248D01*
X002604Y026040D01*
X002616Y025998D01*
X002245Y025628D01*
X002074Y025628D01*
X001969Y025522D01*
X001969Y024979D01*
X002074Y024874D01*
X002617Y024874D01*
X002722Y024979D01*
X002722Y025426D01*
X002756Y025460D01*
X002756Y024979D01*
X002861Y024874D01*
X003404Y024874D01*
X003510Y024979D01*
X003510Y025522D01*
X003410Y025622D01*
X003420Y025622D01*
X003438Y025640D01*
X004031Y025640D01*
X004126Y025680D01*
X004378Y025931D01*
X004378Y025770D01*
X004382Y025755D01*
X004378Y025751D01*
X004378Y023160D01*
X004483Y023055D01*
X005341Y023055D01*
X005447Y023160D01*
X005447Y025751D01*
X005442Y025755D01*
X005447Y025770D01*
X005447Y025952D01*
X005447Y026086D02*
X006416Y026086D01*
X006416Y026245D02*
X005447Y026245D01*
X005447Y026403D02*
X006416Y026403D01*
X006416Y026562D02*
X005447Y026562D01*
X005447Y026720D02*
X006416Y026720D01*
X006416Y026879D02*
X005447Y026879D01*
X005447Y026798D02*
X004912Y026798D01*
X004378Y026798D01*
X004378Y026637D01*
X004379Y026631D01*
X004316Y026605D01*
X003872Y026160D01*
X003543Y026160D01*
X003543Y026248D01*
X003120Y026248D01*
X003120Y026340D01*
X003543Y026340D01*
X003543Y026548D01*
X003532Y026590D01*
X003543Y026601D01*
X003543Y026594D01*
X003649Y026488D01*
X004192Y026488D01*
X004297Y026594D01*
X004297Y026922D01*
X004404Y027029D01*
X004390Y027005D01*
X004378Y026960D01*
X004378Y026798D01*
X004912Y026798D01*
X004912Y026798D01*
X004912Y026798D01*
X005447Y026798D01*
X005416Y027037D02*
X006416Y027037D01*
X006676Y027416D02*
X005554Y027416D01*
X004728Y027671D02*
X004297Y027671D01*
X004287Y027830D02*
X011204Y027830D01*
X011204Y027988D02*
X003253Y027988D01*
X003253Y027830D02*
X003553Y027830D01*
X003556Y027840D02*
X003543Y027794D01*
X003543Y027572D01*
X003902Y027572D01*
X003902Y027950D01*
X003700Y027950D01*
X003654Y027938D01*
X003613Y027915D01*
X003579Y027881D01*
X003556Y027840D01*
X003543Y027671D02*
X003253Y027671D01*
X003253Y027513D02*
X003543Y027513D01*
X003543Y027354D02*
X003253Y027354D01*
X003219Y027196D02*
X003563Y027196D01*
X003300Y027037D02*
X003116Y027037D01*
X002857Y026688D02*
X002739Y026806D01*
X002502Y026562D02*
X000714Y026562D01*
X000714Y026720D02*
X002406Y026720D01*
X002399Y026879D02*
X002259Y026879D01*
X002259Y026878D02*
X002293Y026912D01*
X002316Y026953D01*
X002329Y026999D01*
X002329Y027201D01*
X001970Y027201D01*
X001970Y027238D01*
X001933Y027238D01*
X001933Y027596D01*
X001731Y027596D01*
X001685Y027584D01*
X001644Y027560D01*
X001611Y027527D01*
X001587Y027486D01*
X001575Y027440D01*
X001575Y027238D01*
X001933Y027238D01*
X001933Y027201D01*
X001575Y027201D01*
X001575Y026999D01*
X001587Y026953D01*
X001611Y026912D01*
X001644Y026878D01*
X001685Y026855D01*
X001731Y026842D01*
X001933Y026842D01*
X001933Y027201D01*
X001970Y027201D01*
X001970Y026842D01*
X002172Y026842D01*
X002218Y026855D01*
X002259Y026878D01*
X002329Y027037D02*
X002362Y027037D01*
X002359Y027196D02*
X002329Y027196D01*
X002329Y027238D02*
X002329Y027440D01*
X002316Y027486D01*
X002293Y027527D01*
X002259Y027560D01*
X002218Y027584D01*
X002172Y027596D01*
X001970Y027596D01*
X001970Y027238D01*
X002329Y027238D01*
X002329Y027354D02*
X002362Y027354D01*
X002384Y027513D02*
X002301Y027513D01*
X002493Y027671D02*
X000714Y027671D01*
X000714Y027513D02*
X001603Y027513D01*
X001575Y027354D02*
X000714Y027354D01*
X000714Y027196D02*
X001575Y027196D01*
X001575Y027037D02*
X000714Y027037D01*
X000714Y026879D02*
X001644Y026879D01*
X001933Y026879D02*
X001970Y026879D01*
X001970Y027037D02*
X001933Y027037D01*
X001933Y027196D02*
X001970Y027196D01*
X001970Y027354D02*
X001933Y027354D01*
X001933Y027513D02*
X001970Y027513D01*
X002493Y027830D02*
X000714Y027830D01*
X000714Y027988D02*
X002493Y027988D01*
X002493Y028147D02*
X000714Y028147D01*
X000714Y026403D02*
X002604Y026403D01*
X002604Y026245D02*
X000714Y026245D01*
X000714Y026086D02*
X002604Y026086D01*
X002545Y025928D02*
X000714Y025928D01*
X000714Y025769D02*
X002387Y025769D01*
X002057Y025611D02*
X000714Y025611D01*
X000714Y025452D02*
X001969Y025452D01*
X001969Y025294D02*
X000714Y025294D01*
X000714Y025135D02*
X001969Y025135D01*
X001971Y024977D02*
X000714Y024977D01*
X000714Y024818D02*
X004378Y024818D01*
X004378Y024660D02*
X000714Y024660D01*
X000714Y024501D02*
X004378Y024501D01*
X004378Y024343D02*
X000714Y024343D01*
X000714Y024184D02*
X004378Y024184D01*
X004378Y024026D02*
X000714Y024026D01*
X000714Y023867D02*
X004378Y023867D01*
X004378Y023709D02*
X000714Y023709D01*
X000714Y023550D02*
X004378Y023550D01*
X004378Y023392D02*
X000714Y023392D01*
X000714Y023233D02*
X004378Y023233D01*
X004464Y023075D02*
X000714Y023075D01*
X000714Y022916D02*
X011204Y022916D01*
X011204Y022758D02*
X000714Y022758D01*
X002720Y024977D02*
X002758Y024977D01*
X002756Y025135D02*
X002722Y025135D01*
X002722Y025294D02*
X002756Y025294D01*
X002749Y025452D02*
X002756Y025452D01*
X003421Y025611D02*
X004378Y025611D01*
X004378Y025769D02*
X004216Y025769D01*
X004374Y025928D02*
X004378Y025928D01*
X003979Y025900D02*
X004463Y026385D01*
X004912Y026385D01*
X004912Y025952D02*
X004912Y025952D01*
X005446Y025769D02*
X006416Y025769D01*
X006416Y025611D02*
X005447Y025611D01*
X005447Y025452D02*
X006422Y025452D01*
X006539Y025294D02*
X005447Y025294D01*
X005447Y025135D02*
X008118Y025135D01*
X008118Y024977D02*
X005447Y024977D01*
X005447Y024818D02*
X008118Y024818D01*
X008118Y024660D02*
X005447Y024660D01*
X005447Y024501D02*
X008118Y024501D01*
X008118Y024343D02*
X005447Y024343D01*
X005447Y024184D02*
X008118Y024184D01*
X008118Y024026D02*
X005447Y024026D01*
X005447Y023867D02*
X008118Y023867D01*
X008118Y023709D02*
X005447Y023709D01*
X005447Y023550D02*
X008122Y023550D01*
X008118Y023392D02*
X005447Y023392D01*
X005447Y023233D02*
X008118Y023233D01*
X008216Y023075D02*
X005361Y023075D01*
X004378Y024977D02*
X003507Y024977D01*
X003510Y025135D02*
X004378Y025135D01*
X004378Y025294D02*
X003510Y025294D01*
X003510Y025452D02*
X004378Y025452D01*
X003979Y025900D02*
X003290Y025900D01*
X003543Y026245D02*
X003956Y026245D01*
X004114Y026403D02*
X003543Y026403D01*
X003539Y026562D02*
X003575Y026562D01*
X004265Y026562D02*
X004273Y026562D01*
X004297Y026720D02*
X004378Y026720D01*
X004378Y026879D02*
X004297Y026879D01*
X003939Y027671D02*
X003902Y027671D01*
X003902Y027830D02*
X003939Y027830D01*
X003253Y028147D02*
X011204Y028147D01*
X011204Y027671D02*
X006739Y027671D01*
X006676Y027416D02*
X006676Y025519D01*
X008652Y025519D01*
X008700Y024267D02*
X010357Y024267D01*
X010247Y023786D02*
X010357Y023676D01*
X010247Y023786D02*
X008652Y023786D01*
X008652Y023373D02*
X008652Y023373D01*
X008652Y023055D01*
X009030Y023055D01*
X009076Y023067D01*
X009117Y023091D01*
X009151Y023125D01*
X009175Y023166D01*
X009187Y023211D01*
X009187Y023373D01*
X008652Y023373D01*
X008652Y023233D02*
X008652Y023233D01*
X008652Y023075D02*
X008652Y023075D01*
X009089Y023075D02*
X011204Y023075D01*
X011204Y023233D02*
X009187Y023233D01*
X009187Y023392D02*
X010072Y023392D01*
X010869Y023676D02*
X011597Y023676D01*
X011597Y018558D01*
X024294Y018558D01*
X025037Y018415D02*
X025180Y018558D01*
X025037Y018415D02*
X025037Y017039D01*
X025347Y017039D02*
X025377Y017069D01*
X025377Y017770D01*
X025967Y018361D01*
X029708Y018361D01*
X030495Y017574D01*
X030495Y015015D01*
X030495Y014227D02*
X030495Y010585D01*
X030003Y010192D02*
X031560Y010192D01*
X031576Y010176D01*
X032576Y010176D02*
X033349Y009403D01*
X033349Y008125D01*
X032916Y007692D01*
X028597Y007692D01*
X027503Y007692D01*
X027345Y007534D01*
X026952Y007928D02*
X026853Y008026D01*
X026853Y013354D01*
X026607Y013699D01*
X026297Y013699D02*
X026297Y013307D01*
X026558Y013046D01*
X026558Y007534D01*
X026952Y007928D02*
X026952Y006904D01*
X028597Y006904D01*
X029471Y006904D01*
X029904Y007337D01*
X033152Y007337D01*
X033743Y007928D01*
X033743Y011078D01*
X033054Y011767D01*
X032267Y011767D02*
X031676Y011176D01*
X030495Y009798D02*
X031117Y009176D01*
X031676Y009176D01*
X030003Y009306D02*
X030003Y010192D01*
X030003Y009306D02*
X029176Y008479D01*
X028597Y008479D01*
X027177Y008479D01*
X027177Y014269D01*
X027177Y014579D02*
X025813Y014579D01*
X025493Y014899D01*
X023837Y014899D01*
X024393Y014899D01*
X024393Y015529D01*
X023837Y015529D01*
X023445Y015529D01*
X023015Y015861D01*
X023310Y016159D02*
X023310Y016885D01*
X022483Y016885D01*
X022483Y017377D02*
X023837Y017377D01*
X023837Y016469D01*
X023837Y016159D02*
X023310Y016159D01*
X023015Y015349D02*
X023015Y015209D01*
X023211Y015209D01*
X023015Y015015D01*
X023211Y015209D02*
X023837Y015209D01*
X023839Y015211D01*
X024307Y015789D02*
X024307Y015839D01*
X024307Y015963D01*
X024302Y015980D01*
X024307Y015984D01*
X024307Y016569D01*
X026707Y016569D01*
X026707Y015664D01*
X026709Y015662D01*
X026707Y015653D01*
X026707Y015529D01*
X026952Y015529D01*
X026952Y015529D01*
X026707Y015529D01*
X026707Y015405D01*
X026711Y015388D01*
X026707Y015383D01*
X026707Y014839D01*
X025920Y014839D01*
X025713Y015046D01*
X025640Y015119D01*
X025544Y015159D01*
X024653Y015159D01*
X024653Y015581D01*
X024613Y015676D01*
X024540Y015749D01*
X024444Y015789D01*
X024307Y015789D01*
X024307Y015839D02*
X024196Y015839D01*
X024307Y015839D01*
X024307Y015942D02*
X026707Y015942D01*
X026707Y015784D02*
X024457Y015784D01*
X024634Y015625D02*
X026707Y015625D01*
X026707Y015467D02*
X024653Y015467D01*
X024653Y015308D02*
X026707Y015308D01*
X026707Y015150D02*
X025566Y015150D01*
X025768Y014991D02*
X026707Y014991D01*
X027177Y015209D02*
X028470Y015209D01*
X028526Y015152D01*
X028391Y015529D02*
X027177Y015529D01*
X027177Y016159D02*
X027958Y016159D01*
X028526Y016727D01*
X029314Y016727D01*
X029314Y015664D01*
X029314Y015152D02*
X029314Y014579D01*
X032660Y014579D01*
X034426Y014579D01*
X034471Y014625D01*
X029511Y012062D02*
X029511Y011274D01*
X029142Y011274D01*
X029159Y011303D01*
X029171Y011349D01*
X029171Y011581D01*
X028645Y011581D01*
X028645Y011677D01*
X029171Y011677D01*
X029171Y011908D01*
X029159Y011954D01*
X029135Y011995D01*
X029102Y012029D01*
X029061Y012052D01*
X029025Y012062D01*
X029511Y012062D01*
X029511Y011980D02*
X029144Y011980D01*
X029171Y011821D02*
X029511Y011821D01*
X029511Y011663D02*
X028645Y011663D01*
X029171Y011504D02*
X029511Y011504D01*
X029511Y011346D02*
X029170Y011346D01*
X028597Y009267D02*
X027582Y009267D01*
X027542Y009306D01*
X026164Y009306D02*
X026164Y006294D01*
X025042Y005172D01*
X024530Y005172D02*
X024530Y004522D01*
X024393Y004385D01*
X024688Y003302D02*
X027837Y003302D01*
X027837Y002613D01*
X024688Y002613D01*
X024688Y003302D01*
X024688Y003262D02*
X027837Y003262D01*
X027837Y003104D02*
X024688Y003104D01*
X024688Y002945D02*
X027837Y002945D01*
X027837Y002787D02*
X024688Y002787D01*
X024688Y002628D02*
X027837Y002628D01*
X026853Y002219D02*
X026853Y000448D01*
X024491Y000448D01*
X024491Y002219D01*
X026853Y002219D01*
X026853Y002153D02*
X024491Y002153D01*
X024491Y001994D02*
X026853Y001994D01*
X026853Y001836D02*
X024491Y001836D01*
X024491Y001677D02*
X026853Y001677D01*
X026853Y001519D02*
X024491Y001519D01*
X024491Y001360D02*
X026853Y001360D01*
X026853Y001202D02*
X024491Y001202D01*
X024491Y001043D02*
X026853Y001043D01*
X026853Y000885D02*
X024491Y000885D01*
X024491Y000726D02*
X026853Y000726D01*
X026853Y000568D02*
X024491Y000568D01*
X029471Y001038D02*
X029806Y001471D01*
X029806Y002251D01*
X030286Y002251D01*
X030286Y001991D02*
X030889Y001991D01*
X030889Y002318D01*
X030829Y002335D02*
X030824Y002416D01*
X030841Y002711D01*
X031873Y002711D01*
X031873Y002521D01*
X031511Y002521D01*
X031406Y002415D01*
X031406Y002214D01*
X031399Y002211D01*
X031326Y002138D01*
X031306Y002090D01*
X031046Y001830D01*
X030829Y001830D01*
X030766Y001804D01*
X030766Y001905D01*
X030675Y001996D01*
X030766Y002086D01*
X030766Y002261D01*
X030817Y002308D01*
X030818Y002323D01*
X030829Y002335D01*
X030818Y002311D02*
X031406Y002311D01*
X031282Y002318D02*
X031282Y002501D01*
X031886Y002501D01*
X031873Y002628D02*
X030836Y002628D01*
X030827Y002470D02*
X031460Y002470D01*
X031479Y002613D02*
X031479Y002680D01*
X031340Y002153D02*
X030766Y002153D01*
X030677Y001994D02*
X031210Y001994D01*
X031052Y001836D02*
X030766Y001836D01*
X030286Y001688D02*
X030239Y001641D01*
X030239Y001038D01*
X031282Y000644D02*
X031381Y000546D01*
X033251Y000546D01*
X033586Y000881D01*
X033586Y000940D01*
X034097Y000940D02*
X034432Y001274D01*
X034432Y002318D01*
X034365Y002251D01*
X031886Y002251D01*
X032397Y002251D01*
X032607Y001741D02*
X031886Y001741D01*
X031886Y001991D02*
X031546Y001991D01*
X032030Y001038D02*
X032523Y001038D01*
X032660Y001176D01*
X032660Y001688D02*
X032607Y001741D01*
X034432Y003318D02*
X034432Y005172D01*
X026164Y009306D02*
X025967Y009306D01*
X025977Y010496D01*
X025977Y013699D01*
X025667Y013699D02*
X025667Y007332D01*
X024491Y006156D01*
X024589Y006156D01*
X024491Y006944D02*
X025347Y007799D01*
X025347Y013699D01*
X025037Y013699D02*
X025037Y008277D01*
X024491Y007731D01*
X023113Y007731D02*
X023112Y007721D01*
X023108Y007712D01*
X023102Y007703D01*
X023094Y007697D01*
X023084Y007693D01*
X023074Y007692D01*
X022298Y007692D01*
X022298Y006904D02*
X023074Y006904D01*
X023113Y006944D01*
X023113Y006156D02*
X022337Y006156D01*
X022327Y006155D01*
X022318Y006151D01*
X022309Y006145D01*
X022303Y006137D01*
X022299Y006127D01*
X022298Y006117D01*
X021724Y009995D02*
X018389Y009995D01*
X018389Y010538D01*
X018414Y010460D01*
X018458Y010373D01*
X018516Y010294D01*
X018585Y010224D01*
X018665Y010167D01*
X018752Y010122D01*
X018845Y010092D01*
X018923Y010080D01*
X018923Y010632D01*
X018389Y010632D01*
X018389Y010767D01*
X018923Y010767D01*
X018923Y010632D01*
X019059Y010632D01*
X019059Y010767D01*
X019611Y010767D01*
X019599Y010845D01*
X019568Y010939D01*
X019524Y011026D01*
X019466Y011105D01*
X019397Y011175D01*
X019318Y011232D01*
X019230Y011277D01*
X019137Y011307D01*
X019059Y011320D01*
X019059Y010767D01*
X018923Y010767D01*
X018923Y011320D01*
X018845Y011307D01*
X018752Y011277D01*
X018665Y011232D01*
X018585Y011175D01*
X018516Y011105D01*
X018458Y011026D01*
X018414Y010939D01*
X018389Y010862D01*
X018389Y012538D01*
X018414Y012460D01*
X018458Y012373D01*
X018516Y012294D01*
X018585Y012224D01*
X018665Y012167D01*
X018752Y012122D01*
X018845Y012092D01*
X018923Y012080D01*
X018923Y012632D01*
X018389Y012632D01*
X018389Y012767D01*
X018923Y012767D01*
X018923Y012632D01*
X019059Y012632D01*
X019059Y012767D01*
X019611Y012767D01*
X019599Y012845D01*
X019568Y012939D01*
X019524Y013026D01*
X019466Y013105D01*
X019397Y013175D01*
X019318Y013232D01*
X019230Y013277D01*
X019137Y013307D01*
X019059Y013320D01*
X019059Y012767D01*
X018923Y012767D01*
X018923Y013320D01*
X018845Y013307D01*
X018752Y013277D01*
X018665Y013232D01*
X018585Y013175D01*
X018516Y013105D01*
X018458Y013026D01*
X018414Y012939D01*
X018389Y012862D01*
X018389Y013440D01*
X023211Y013440D01*
X023211Y009995D01*
X022872Y009995D01*
X022872Y010384D01*
X022809Y010448D01*
X022836Y010475D01*
X022860Y010516D01*
X022872Y010562D01*
X022872Y010793D01*
X022346Y010793D01*
X022346Y010889D01*
X022872Y010889D01*
X022872Y011121D01*
X022860Y011167D01*
X022836Y011208D01*
X022809Y011235D01*
X022872Y011298D01*
X022872Y011959D01*
X022766Y012065D01*
X021830Y012065D01*
X021824Y012059D01*
X020513Y012059D01*
X020344Y012228D01*
X020115Y012323D01*
X019867Y012323D01*
X019638Y012228D01*
X019463Y012052D01*
X019368Y011824D01*
X019368Y011576D01*
X019463Y011347D01*
X019638Y011172D01*
X019867Y011077D01*
X020115Y011077D01*
X020344Y011172D01*
X020371Y011199D01*
X020618Y011199D01*
X020585Y011175D01*
X020516Y011105D01*
X020458Y011026D01*
X020414Y010939D01*
X020383Y010845D01*
X020371Y010767D01*
X020923Y010767D01*
X020923Y010632D01*
X020371Y010632D01*
X020383Y010554D01*
X020414Y010460D01*
X020458Y010373D01*
X020516Y010294D01*
X020585Y010224D01*
X020665Y010167D01*
X020752Y010122D01*
X020845Y010092D01*
X020923Y010080D01*
X020923Y010632D01*
X021059Y010632D01*
X021059Y010767D01*
X021611Y010767D01*
X021599Y010845D01*
X021568Y010939D01*
X021524Y011026D01*
X021466Y011105D01*
X021397Y011175D01*
X021364Y011199D01*
X021755Y011199D01*
X021737Y011167D01*
X021724Y011121D01*
X021724Y010889D01*
X022250Y010889D01*
X022250Y010793D01*
X021724Y010793D01*
X021724Y010562D01*
X021737Y010516D01*
X021760Y010475D01*
X021788Y010448D01*
X021724Y010384D01*
X021724Y009995D01*
X021724Y010078D02*
X018389Y010078D01*
X018389Y010236D02*
X018573Y010236D01*
X018447Y010395D02*
X018389Y010395D01*
X018389Y010712D02*
X018923Y010712D01*
X019059Y010712D02*
X020923Y010712D01*
X020923Y010767D02*
X020923Y011199D01*
X021059Y011199D01*
X021059Y010767D01*
X020923Y010767D01*
X020923Y010870D02*
X021059Y010870D01*
X021059Y010712D02*
X021724Y010712D01*
X021611Y010632D02*
X021059Y010632D01*
X021059Y010080D01*
X021137Y010092D01*
X021230Y010122D01*
X021318Y010167D01*
X021397Y010224D01*
X021466Y010294D01*
X021524Y010373D01*
X021568Y010460D01*
X021599Y010554D01*
X021611Y010632D01*
X021598Y010553D02*
X021727Y010553D01*
X021735Y010395D02*
X021535Y010395D01*
X021409Y010236D02*
X021724Y010236D01*
X021059Y010236D02*
X020923Y010236D01*
X020923Y010395D02*
X021059Y010395D01*
X021059Y010553D02*
X020923Y010553D01*
X020573Y010236D02*
X019409Y010236D01*
X019397Y010224D02*
X019466Y010294D01*
X019524Y010373D01*
X019568Y010460D01*
X019599Y010554D01*
X019611Y010632D01*
X019059Y010632D01*
X019059Y010080D01*
X019137Y010092D01*
X019230Y010122D01*
X019318Y010167D01*
X019397Y010224D01*
X019535Y010395D02*
X020447Y010395D01*
X020384Y010553D02*
X019598Y010553D01*
X019591Y010870D02*
X020392Y010870D01*
X020460Y011029D02*
X019522Y011029D01*
X019622Y011187D02*
X019380Y011187D01*
X019464Y011346D02*
X018389Y011346D01*
X018389Y011504D02*
X019398Y011504D01*
X019368Y011663D02*
X018389Y011663D01*
X018389Y011821D02*
X019368Y011821D01*
X019433Y011980D02*
X018389Y011980D01*
X018389Y012138D02*
X018721Y012138D01*
X018923Y012138D02*
X019059Y012138D01*
X019059Y012080D02*
X019137Y012092D01*
X019230Y012122D01*
X019318Y012167D01*
X019397Y012224D01*
X019466Y012294D01*
X019524Y012373D01*
X019568Y012460D01*
X019599Y012554D01*
X019611Y012632D01*
X019059Y012632D01*
X019059Y012080D01*
X019261Y012138D02*
X019549Y012138D01*
X019468Y012297D02*
X019805Y012297D01*
X019566Y012455D02*
X020416Y012455D01*
X020414Y012460D02*
X020458Y012373D01*
X020516Y012294D01*
X020585Y012224D01*
X020665Y012167D01*
X020752Y012122D01*
X020845Y012092D01*
X020923Y012080D01*
X020923Y012632D01*
X020371Y012632D01*
X020383Y012554D01*
X020414Y012460D01*
X020374Y012614D02*
X019608Y012614D01*
X019610Y012772D02*
X020372Y012772D01*
X020371Y012767D02*
X020923Y012767D01*
X020923Y012632D01*
X021059Y012632D01*
X021059Y012767D01*
X021611Y012767D01*
X021599Y012845D01*
X021568Y012939D01*
X021524Y013026D01*
X021466Y013105D01*
X021397Y013175D01*
X021318Y013232D01*
X021230Y013277D01*
X021137Y013307D01*
X021059Y013320D01*
X021059Y012767D01*
X020923Y012767D01*
X020923Y013320D01*
X020845Y013307D01*
X020752Y013277D01*
X020665Y013232D01*
X020585Y013175D01*
X020516Y013105D01*
X020458Y013026D01*
X020414Y012939D01*
X020383Y012845D01*
X020371Y012767D01*
X020411Y012931D02*
X019571Y012931D01*
X019478Y013089D02*
X020504Y013089D01*
X020695Y013248D02*
X019287Y013248D01*
X019059Y013248D02*
X018923Y013248D01*
X018923Y013089D02*
X019059Y013089D01*
X019059Y012931D02*
X018923Y012931D01*
X018923Y012772D02*
X019059Y012772D01*
X019059Y012614D02*
X018923Y012614D01*
X018923Y012455D02*
X019059Y012455D01*
X019059Y012297D02*
X018923Y012297D01*
X018514Y012297D02*
X018389Y012297D01*
X018389Y012455D02*
X018416Y012455D01*
X018389Y012931D02*
X018411Y012931D01*
X018389Y013089D02*
X018504Y013089D01*
X018389Y013248D02*
X018695Y013248D01*
X018389Y013406D02*
X023211Y013406D01*
X023211Y013248D02*
X021287Y013248D01*
X021059Y013248D02*
X020923Y013248D01*
X020923Y013089D02*
X021059Y013089D01*
X021059Y012931D02*
X020923Y012931D01*
X020923Y012772D02*
X021059Y012772D01*
X021059Y012632D02*
X021611Y012632D01*
X021599Y012554D01*
X021568Y012460D01*
X021524Y012373D01*
X021466Y012294D01*
X021397Y012224D01*
X021318Y012167D01*
X021230Y012122D01*
X021137Y012092D01*
X021059Y012080D01*
X021059Y012632D01*
X021059Y012614D02*
X020923Y012614D01*
X020923Y012455D02*
X021059Y012455D01*
X021059Y012297D02*
X020923Y012297D01*
X020923Y012138D02*
X021059Y012138D01*
X021261Y012138D02*
X023211Y012138D01*
X023211Y011980D02*
X022851Y011980D01*
X022872Y011821D02*
X023211Y011821D01*
X023211Y011663D02*
X022872Y011663D01*
X022872Y011504D02*
X023211Y011504D01*
X023211Y011346D02*
X022872Y011346D01*
X022848Y011187D02*
X023211Y011187D01*
X023211Y011029D02*
X022872Y011029D01*
X022872Y010712D02*
X023211Y010712D01*
X023211Y010870D02*
X022346Y010870D01*
X022250Y010870D02*
X021591Y010870D01*
X021522Y011029D02*
X021724Y011029D01*
X021749Y011187D02*
X021380Y011187D01*
X021059Y011187D02*
X020923Y011187D01*
X020923Y011029D02*
X021059Y011029D01*
X020603Y011187D02*
X020360Y011187D01*
X020433Y012138D02*
X020721Y012138D01*
X020514Y012297D02*
X020177Y012297D01*
X021468Y012297D02*
X023211Y012297D01*
X023211Y012455D02*
X021566Y012455D01*
X021608Y012614D02*
X023211Y012614D01*
X023211Y012772D02*
X021610Y012772D01*
X021571Y012931D02*
X023211Y012931D01*
X023211Y013089D02*
X021478Y013089D01*
X021637Y014227D02*
X020318Y014227D01*
X019806Y014227D02*
X019274Y014227D01*
X019274Y016393D02*
X019806Y016393D01*
X020318Y016393D02*
X021637Y016393D01*
X021637Y015999D01*
X021676Y015959D01*
X021637Y016393D02*
X022424Y016393D01*
X022424Y014579D01*
X023837Y014579D01*
X023837Y014269D02*
X023837Y014227D01*
X021637Y014227D01*
X021637Y014424D01*
X021676Y014463D01*
X024196Y015839D02*
X024196Y015839D01*
X024307Y016101D02*
X026707Y016101D01*
X026707Y016259D02*
X024307Y016259D01*
X024307Y016418D02*
X026707Y016418D01*
X028391Y015529D02*
X028526Y015664D01*
X029314Y014579D02*
X027177Y014579D01*
X026707Y014319D02*
X026707Y014169D01*
X024307Y014169D01*
X024307Y014639D01*
X025385Y014639D01*
X025665Y014358D01*
X025761Y014319D01*
X026707Y014319D01*
X026707Y014199D02*
X024307Y014199D01*
X024307Y014357D02*
X025668Y014357D01*
X025508Y014516D02*
X024307Y014516D01*
X021971Y016885D02*
X015534Y016885D01*
X015534Y002121D01*
X010416Y002121D01*
X007267Y005270D01*
X010416Y005270D02*
X013172Y002515D01*
X015141Y002515D01*
X015141Y017377D01*
X021971Y017377D01*
X028526Y017239D02*
X028526Y017770D01*
X029314Y017770D02*
X029314Y017239D01*
X023211Y010553D02*
X022870Y010553D01*
X022861Y010395D02*
X023211Y010395D01*
X023211Y010236D02*
X022872Y010236D01*
X022872Y010078D02*
X023211Y010078D01*
X019059Y010236D02*
X018923Y010236D01*
X018923Y010395D02*
X019059Y010395D01*
X019059Y010553D02*
X018923Y010553D01*
X018923Y010870D02*
X019059Y010870D01*
X019059Y011029D02*
X018923Y011029D01*
X018923Y011187D02*
X019059Y011187D01*
X018603Y011187D02*
X018389Y011187D01*
X018389Y011029D02*
X018460Y011029D01*
X018392Y010870D02*
X018389Y010870D01*
X014747Y006058D02*
X013566Y005270D01*
X011204Y023392D02*
X011154Y023392D01*
X008700Y024267D02*
X008652Y024219D01*
X009187Y026720D02*
X009272Y026720D01*
X009272Y026879D02*
X009187Y026879D01*
X009160Y027037D02*
X009272Y027037D01*
D38*
X009235Y027416D03*
X009826Y027515D03*
X009826Y028007D03*
X009235Y028007D03*
X008645Y028007D03*
X008054Y028007D03*
X007463Y028007D03*
X006873Y028007D03*
X006282Y028007D03*
X005692Y028007D03*
X005101Y028007D03*
X004511Y028007D03*
X003920Y028007D03*
X003428Y028007D03*
X003428Y027416D03*
X003723Y026333D03*
X003133Y026235D03*
X002345Y026038D03*
X001952Y025743D03*
X001755Y025251D03*
X000967Y025644D03*
X000967Y026432D03*
X001558Y026235D03*
X001952Y026629D03*
X002345Y026530D03*
X001460Y027219D03*
X000967Y027219D03*
X000967Y028007D03*
X001558Y028007D03*
X001952Y028007D03*
X002345Y028007D03*
X003723Y025448D03*
X004117Y025448D03*
X003625Y024759D03*
X003723Y024070D03*
X002739Y024660D03*
X000967Y024857D03*
X000967Y024070D03*
X000967Y023282D03*
X001755Y022889D03*
X002739Y022889D03*
X003723Y022889D03*
X004708Y022889D03*
X005692Y022889D03*
X005889Y023479D03*
X006676Y022889D03*
X007463Y023479D03*
X007660Y022889D03*
X008645Y022889D03*
X009432Y022889D03*
X010219Y022889D03*
X011007Y022889D03*
X009432Y024857D03*
X010219Y025054D03*
X011007Y025054D03*
X011007Y025841D03*
X011007Y026826D03*
X011007Y027416D03*
X010416Y027515D03*
X010416Y028007D03*
X011007Y028007D03*
X008645Y027416D03*
X008054Y027416D03*
X007463Y027416D03*
X007463Y026826D03*
X007463Y026038D03*
X007463Y025054D03*
X007463Y024267D03*
X005889Y024267D03*
X005889Y025054D03*
X006086Y025644D03*
X005692Y026038D03*
X005692Y026432D03*
X006086Y026432D03*
X005692Y026826D03*
X019274Y016393D03*
X019274Y014227D03*
X021834Y012259D03*
X022227Y012259D03*
X022621Y012259D03*
X023015Y012259D03*
X023015Y011865D03*
X023015Y011471D03*
X023015Y011078D03*
X023015Y010684D03*
X023015Y010290D03*
X019865Y008322D03*
X019274Y008322D03*
X019274Y007731D03*
X019865Y007731D03*
X019865Y004778D03*
X019471Y004778D03*
X020259Y004778D03*
X023113Y006156D03*
X023113Y006944D03*
X023113Y007731D03*
X024491Y007731D03*
X024491Y006944D03*
X024491Y006156D03*
X026558Y007534D03*
X027345Y007534D03*
X027542Y009306D03*
X026164Y009306D03*
X029314Y011471D03*
X029314Y011865D03*
X030495Y010585D03*
X030495Y009798D03*
X032267Y011767D03*
X033054Y011767D03*
X030495Y014227D03*
X030495Y015015D03*
X029314Y017770D03*
X028526Y017770D03*
X026558Y016393D03*
X024393Y016393D03*
X023015Y015015D03*
X024393Y014522D03*
X025475Y014326D03*
X022818Y013046D03*
X024294Y018558D03*
X025180Y018558D03*
X035810Y017278D03*
X036400Y017278D03*
X036400Y016688D03*
X035810Y016688D03*
X035810Y016097D03*
X036400Y016097D03*
X036400Y015507D03*
X035810Y015507D03*
X036400Y014916D03*
X036400Y014326D03*
X029314Y006353D03*
X029314Y005959D03*
X028231Y004286D03*
X028231Y003893D03*
X027837Y003893D03*
X027444Y003893D03*
X027050Y003893D03*
X027050Y004286D03*
X030003Y003991D03*
X031086Y002613D03*
X031282Y002318D03*
X031479Y002613D03*
X030889Y002318D03*
X031086Y002022D03*
X030889Y001530D03*
X029806Y002251D03*
X029314Y001530D03*
X028822Y000644D03*
X028330Y000644D03*
X026460Y000644D03*
X025869Y000644D03*
X025278Y000644D03*
X024688Y000644D03*
X024688Y001235D03*
X025278Y001235D03*
X025869Y001235D03*
X026460Y001235D03*
X026460Y001727D03*
X025869Y001727D03*
X030987Y000644D03*
X031479Y000644D03*
X016715Y003007D03*
X013566Y003007D03*
X010416Y003007D03*
X007267Y003007D03*
D39*
X007267Y003893D01*
X010416Y003893D02*
X010416Y003007D01*
X013566Y003007D02*
X013566Y003893D01*
X016715Y003893D02*
X016715Y003007D01*
X002739Y027219D02*
X002873Y027353D01*
X002873Y028961D01*
D40*
X019078Y008519D02*
X020456Y008519D01*
X020456Y007534D01*
X019078Y007534D01*
X019078Y008519D01*
X019078Y008426D02*
X020456Y008426D01*
X020456Y008328D02*
X019078Y008328D01*
X019078Y008229D02*
X020456Y008229D01*
X020456Y008131D02*
X019078Y008131D01*
X019078Y008032D02*
X020456Y008032D01*
X020456Y007934D02*
X019078Y007934D01*
X019078Y007835D02*
X020456Y007835D01*
X020456Y007737D02*
X019078Y007737D01*
X019078Y007638D02*
X020456Y007638D01*
X020456Y007540D02*
X019078Y007540D01*
X019963Y006550D02*
X020751Y006550D01*
X019963Y006550D02*
X019471Y006058D01*
X019471Y005723D01*
X019472Y005723D02*
X019470Y005708D01*
X019466Y005693D01*
X019459Y005679D01*
X019449Y005667D01*
X019437Y005657D01*
X019423Y005650D01*
X019408Y005646D01*
X019393Y005644D01*
X019176Y005074D02*
X019865Y005074D01*
X019956Y005164D01*
X019970Y005150D01*
X020004Y005131D01*
X020042Y005120D01*
X020287Y005120D01*
X020287Y005594D01*
X020387Y005594D01*
X020387Y005120D01*
X020554Y005120D01*
X020554Y004483D01*
X019865Y004483D01*
X019774Y004392D01*
X019760Y004406D01*
X019726Y004426D01*
X019688Y004436D01*
X019443Y004436D01*
X019443Y003962D01*
X019343Y003962D01*
X019343Y004436D01*
X019176Y004436D01*
X019176Y005074D01*
X019176Y004979D02*
X020554Y004979D01*
X020554Y005077D02*
X019869Y005077D01*
X020287Y005176D02*
X020387Y005176D01*
X020387Y005274D02*
X020287Y005274D01*
X020287Y005373D02*
X020387Y005373D01*
X020387Y005471D02*
X020287Y005471D01*
X020287Y005570D02*
X020387Y005570D01*
X020554Y004880D02*
X019176Y004880D01*
X019176Y004782D02*
X020554Y004782D01*
X020554Y004683D02*
X019176Y004683D01*
X019176Y004585D02*
X020554Y004585D01*
X020554Y004486D02*
X019176Y004486D01*
X019343Y004388D02*
X019443Y004388D01*
X019443Y004289D02*
X019343Y004289D01*
X019343Y004191D02*
X019443Y004191D01*
X019443Y004092D02*
X019343Y004092D01*
X019343Y003994D02*
X019443Y003994D01*
X020337Y003912D02*
X021440Y005015D01*
X021440Y005074D01*
X021754Y007534D02*
X020849Y007534D01*
X020849Y008715D01*
X022621Y008715D01*
X022621Y008098D01*
X021842Y008098D01*
X021754Y008010D01*
X021754Y007534D01*
X021754Y007540D02*
X020849Y007540D01*
X020849Y007638D02*
X021754Y007638D01*
X021754Y007737D02*
X020849Y007737D01*
X020849Y007835D02*
X021754Y007835D01*
X021754Y007934D02*
X020849Y007934D01*
X020849Y008032D02*
X021777Y008032D01*
X022621Y008131D02*
X020849Y008131D01*
X020849Y008229D02*
X022621Y008229D01*
X022621Y008328D02*
X020849Y008328D01*
X020849Y008426D02*
X022621Y008426D01*
X022621Y008525D02*
X020849Y008525D01*
X020849Y008623D02*
X022621Y008623D01*
X026853Y004581D02*
X026853Y003696D01*
X029708Y003696D01*
X029708Y004581D01*
X026853Y004581D01*
X026853Y004486D02*
X029708Y004486D01*
X029708Y004388D02*
X026853Y004388D01*
X026853Y004289D02*
X029708Y004289D01*
X029708Y004191D02*
X026853Y004191D01*
X026853Y004092D02*
X029708Y004092D01*
X029708Y003994D02*
X026853Y003994D01*
X026853Y003895D02*
X029708Y003895D01*
X029708Y003797D02*
X026853Y003797D01*
X026853Y003698D02*
X029708Y003698D01*
X029923Y003501D02*
X030657Y003501D01*
X030651Y003403D02*
X029794Y003403D01*
X029665Y003304D02*
X030646Y003304D01*
X030640Y003206D02*
X029536Y003206D01*
X029408Y003107D02*
X030634Y003107D01*
X030628Y003009D02*
X029279Y003009D01*
X029150Y002910D02*
X030622Y002910D01*
X030617Y002812D02*
X029021Y002812D01*
X029019Y002810D02*
X030692Y004089D01*
X030598Y002491D01*
X029930Y002491D01*
X029860Y002520D01*
X029752Y002520D01*
X029654Y002479D01*
X029578Y002403D01*
X029558Y002355D01*
X028920Y002318D01*
X028920Y002810D01*
X029019Y002810D01*
X028920Y002713D02*
X030611Y002713D01*
X030605Y002615D02*
X028920Y002615D01*
X028920Y002516D02*
X029744Y002516D01*
X029868Y002516D02*
X030599Y002516D01*
X030286Y001741D02*
X030286Y001688D01*
X030692Y001137D02*
X030692Y000448D01*
X031479Y000448D01*
X030692Y000448D01*
X030692Y000546D02*
X031479Y000546D01*
X031479Y000448D02*
X031479Y001137D01*
X030692Y001137D01*
X030692Y001039D02*
X031479Y001039D01*
X031479Y000940D02*
X030692Y000940D01*
X030692Y000842D02*
X031479Y000842D01*
X031479Y000743D02*
X030692Y000743D01*
X030692Y000645D02*
X031479Y000645D01*
X031676Y000645D02*
X030889Y000645D01*
X030889Y000743D02*
X031676Y000743D01*
X031676Y000842D02*
X030889Y000842D01*
X030889Y000940D02*
X031676Y000940D01*
X031676Y001039D02*
X030889Y001039D01*
X030889Y001137D02*
X030889Y000448D01*
X031676Y000448D01*
X030889Y000448D01*
X030889Y000546D02*
X031676Y000546D01*
X031676Y000448D02*
X031676Y001137D01*
X030889Y001137D01*
X029592Y002418D02*
X028920Y002418D01*
X028920Y002319D02*
X028947Y002319D01*
X029019Y001137D02*
X028133Y001137D01*
X028133Y000448D01*
X029019Y000448D01*
X028133Y000448D01*
X028133Y000546D02*
X029019Y000546D01*
X029019Y000448D02*
X029019Y001137D01*
X029019Y001039D02*
X028133Y001039D01*
X028133Y000940D02*
X029019Y000940D01*
X029019Y000842D02*
X028133Y000842D01*
X028133Y000743D02*
X029019Y000743D01*
X029019Y000645D02*
X028133Y000645D01*
X030052Y003600D02*
X030663Y003600D01*
X030669Y003698D02*
X030180Y003698D01*
X030309Y003797D02*
X030675Y003797D01*
X030680Y003895D02*
X030438Y003895D01*
X030567Y003994D02*
X030686Y003994D01*
X031774Y005172D02*
X031774Y005270D01*
X031774Y005330D01*
X031774Y005270D02*
X032381Y005270D01*
X032267Y005172D01*
X029511Y005763D02*
X029105Y005763D01*
X029111Y005769D01*
X029131Y005803D01*
X029141Y005841D01*
X029141Y006067D01*
X028647Y006067D01*
X028647Y006167D01*
X029141Y006167D01*
X029141Y006393D01*
X029131Y006431D01*
X029111Y006465D01*
X029083Y006493D01*
X029061Y006506D01*
X029105Y006550D01*
X029511Y006550D01*
X029511Y005763D01*
X029511Y005767D02*
X029109Y005767D01*
X029141Y005865D02*
X029511Y005865D01*
X029511Y005964D02*
X029141Y005964D01*
X029141Y006062D02*
X029511Y006062D01*
X029511Y006161D02*
X028647Y006161D01*
X029141Y006259D02*
X029511Y006259D01*
X029511Y006358D02*
X029141Y006358D01*
X029116Y006456D02*
X029511Y006456D01*
X035121Y014030D02*
X035121Y017475D01*
X036597Y017475D01*
X036597Y014030D01*
X035121Y014030D01*
X035121Y014041D02*
X036597Y014041D01*
X036597Y014139D02*
X035121Y014139D01*
X035121Y014238D02*
X036597Y014238D01*
X036597Y014336D02*
X035121Y014336D01*
X035121Y014435D02*
X036597Y014435D01*
X036597Y014533D02*
X035121Y014533D01*
X035121Y014632D02*
X036597Y014632D01*
X036597Y014730D02*
X035121Y014730D01*
X035121Y014829D02*
X036597Y014829D01*
X036597Y014927D02*
X035121Y014927D01*
X035121Y015026D02*
X036597Y015026D01*
X036597Y015124D02*
X035121Y015124D01*
X035121Y015223D02*
X036597Y015223D01*
X036597Y015321D02*
X035121Y015321D01*
X035121Y015420D02*
X036597Y015420D01*
X036597Y015518D02*
X035121Y015518D01*
X035121Y015617D02*
X036597Y015617D01*
X036597Y015715D02*
X035121Y015715D01*
X035121Y015814D02*
X036597Y015814D01*
X036597Y015912D02*
X035121Y015912D01*
X035121Y016011D02*
X036597Y016011D01*
X036597Y016109D02*
X035121Y016109D01*
X035121Y016208D02*
X036597Y016208D01*
X036597Y016306D02*
X035121Y016306D01*
X035121Y016405D02*
X036597Y016405D01*
X036597Y016503D02*
X035121Y016503D01*
X035121Y016602D02*
X036597Y016602D01*
X036597Y016700D02*
X035121Y016700D01*
X035121Y016799D02*
X036597Y016799D01*
X036597Y016897D02*
X035121Y016897D01*
X035121Y016996D02*
X036597Y016996D01*
X036597Y017094D02*
X035121Y017094D01*
X035121Y017193D02*
X036597Y017193D01*
X036597Y017291D02*
X035121Y017291D01*
X035121Y017390D02*
X036597Y017390D01*
X034761Y017390D02*
X033448Y017390D01*
X033448Y017488D02*
X034762Y017488D01*
X034763Y017587D02*
X033448Y017587D01*
X033448Y017685D02*
X034765Y017685D01*
X034766Y017784D02*
X033448Y017784D01*
X033448Y017882D02*
X034767Y017882D01*
X034768Y017981D02*
X033448Y017981D01*
X033448Y018079D02*
X034769Y018079D01*
X034771Y018178D02*
X033448Y018178D01*
X033448Y018276D02*
X034772Y018276D01*
X034773Y018375D02*
X033448Y018375D01*
X033448Y018473D02*
X034774Y018473D01*
X034775Y018572D02*
X033448Y018572D01*
X033448Y018670D02*
X034777Y018670D01*
X034778Y018769D02*
X033448Y018769D01*
X033448Y018867D02*
X034779Y018867D01*
X034780Y018966D02*
X033448Y018966D01*
X033448Y019064D02*
X034781Y019064D01*
X034783Y019163D02*
X033448Y019163D01*
X033448Y019261D02*
X034784Y019261D01*
X034785Y019360D02*
X033448Y019360D01*
X033448Y019458D02*
X034786Y019458D01*
X034787Y019557D02*
X033448Y019557D01*
X033448Y019655D02*
X034789Y019655D01*
X034790Y019754D02*
X033448Y019754D01*
X033448Y019852D02*
X034791Y019852D01*
X034792Y019951D02*
X033448Y019951D01*
X033448Y020049D02*
X034793Y020049D01*
X034795Y020148D02*
X033448Y020148D01*
X033448Y020246D02*
X034796Y020246D01*
X034797Y020345D02*
X033448Y020345D01*
X033448Y020443D02*
X034798Y020443D01*
X034799Y020542D02*
X033448Y020542D01*
X033448Y020640D02*
X034801Y020640D01*
X034802Y020739D02*
X033448Y020739D01*
X033448Y020837D02*
X034803Y020837D01*
X034804Y020936D02*
X033448Y020936D01*
X033448Y021034D02*
X034805Y021034D01*
X034807Y021133D02*
X033448Y021133D01*
X033448Y021231D02*
X034808Y021231D01*
X034809Y021330D02*
X033448Y021330D01*
X033448Y021428D02*
X034810Y021428D01*
X034811Y021527D02*
X033448Y021527D01*
X033448Y021625D02*
X034813Y021625D01*
X034814Y021724D02*
X033448Y021724D01*
X033448Y021822D02*
X034815Y021822D01*
X034816Y021921D02*
X033448Y021921D01*
X033448Y022019D02*
X034817Y022019D01*
X034819Y022118D02*
X033448Y022118D01*
X033448Y022216D02*
X034820Y022216D01*
X034821Y022315D02*
X033448Y022315D01*
X033448Y022413D02*
X034822Y022413D01*
X034823Y022512D02*
X033448Y022512D01*
X033448Y022610D02*
X034825Y022610D01*
X034826Y022692D02*
X034727Y014621D01*
X033448Y014621D01*
X033448Y022692D01*
X034826Y022692D01*
X034760Y017291D02*
X033448Y017291D01*
X033448Y017193D02*
X034759Y017193D01*
X034757Y017094D02*
X033448Y017094D01*
X033448Y016996D02*
X034756Y016996D01*
X034755Y016897D02*
X033448Y016897D01*
X033448Y016799D02*
X034754Y016799D01*
X034753Y016700D02*
X033448Y016700D01*
X033448Y016602D02*
X034751Y016602D01*
X034750Y016503D02*
X033448Y016503D01*
X033448Y016405D02*
X034749Y016405D01*
X034748Y016306D02*
X033448Y016306D01*
X033448Y016208D02*
X034747Y016208D01*
X034745Y016109D02*
X033448Y016109D01*
X033448Y016011D02*
X034744Y016011D01*
X034743Y015912D02*
X033448Y015912D01*
X033448Y015814D02*
X034742Y015814D01*
X034741Y015715D02*
X033448Y015715D01*
X033448Y015617D02*
X034739Y015617D01*
X034738Y015518D02*
X033448Y015518D01*
X033448Y015420D02*
X034737Y015420D01*
X034736Y015321D02*
X033448Y015321D01*
X033448Y015223D02*
X034735Y015223D01*
X034733Y015124D02*
X033448Y015124D01*
X033448Y015026D02*
X034732Y015026D01*
X034731Y014927D02*
X033448Y014927D01*
X033448Y014829D02*
X034730Y014829D01*
X034729Y014730D02*
X033448Y014730D01*
X033448Y014632D02*
X034727Y014632D01*
D41*
X032676Y014563D02*
X032660Y014579D01*
X032676Y014563D02*
X032676Y011176D01*
X031546Y001991D02*
X031086Y001530D01*
X019704Y021412D02*
X017624Y021412D01*
X017675Y021441D01*
X017769Y021514D01*
X017854Y021598D01*
X017926Y021693D01*
X017986Y021796D01*
X018032Y021906D01*
X018063Y022022D01*
X018078Y022140D01*
X017228Y022140D01*
X017228Y022260D01*
X017108Y022260D01*
X017108Y023110D01*
X016990Y023094D01*
X016875Y023063D01*
X016765Y023018D01*
X016662Y022958D01*
X016567Y022885D01*
X016483Y022801D01*
X016410Y022706D01*
X016350Y022603D01*
X016322Y022534D01*
X016322Y028657D01*
X016350Y028588D01*
X016410Y028484D01*
X016483Y028390D01*
X016567Y028305D01*
X016662Y028233D01*
X016765Y028173D01*
X016875Y028127D01*
X016990Y028097D01*
X017108Y028081D01*
X017108Y028931D01*
X017228Y028931D01*
X017228Y028081D01*
X017346Y028097D01*
X017461Y028127D01*
X017572Y028173D01*
X017675Y028233D01*
X017769Y028305D01*
X017854Y028390D01*
X017926Y028484D01*
X017986Y028588D01*
X018032Y028698D01*
X018063Y028813D01*
X018078Y028931D01*
X017228Y028931D01*
X017228Y029051D01*
X018078Y029051D01*
X018063Y029169D01*
X018032Y029284D01*
X017986Y029394D01*
X017926Y029498D01*
X017854Y029592D01*
X017769Y029677D01*
X017675Y029749D01*
X017624Y029778D01*
X019704Y029778D01*
X019654Y029749D01*
X019559Y029677D01*
X019475Y029592D01*
X019402Y029498D01*
X019342Y029394D01*
X019297Y029284D01*
X019266Y029169D01*
X019250Y029051D01*
X020100Y029051D01*
X020100Y028931D01*
X019250Y028931D01*
X019266Y028813D01*
X019297Y028698D01*
X019342Y028588D01*
X019402Y028484D01*
X019475Y028390D01*
X019559Y028305D01*
X019654Y028233D01*
X019757Y028173D01*
X019867Y028127D01*
X019982Y028097D01*
X020100Y028081D01*
X020100Y028931D01*
X020220Y028931D01*
X020220Y028081D01*
X020338Y028097D01*
X020453Y028127D01*
X020564Y028173D01*
X020667Y028233D01*
X020762Y028305D01*
X020846Y028390D01*
X020919Y028484D01*
X020978Y028588D01*
X021024Y028698D01*
X021046Y028781D01*
X021046Y022410D01*
X021046Y022410D01*
X021024Y022493D01*
X020978Y022603D01*
X020919Y022706D01*
X020846Y022801D01*
X020762Y022885D01*
X020667Y022958D01*
X020564Y023018D01*
X020453Y023063D01*
X020338Y023094D01*
X020220Y023110D01*
X020220Y022260D01*
X020100Y022260D01*
X020100Y023110D01*
X019982Y023094D01*
X019867Y023063D01*
X019757Y023018D01*
X019654Y022958D01*
X019559Y022885D01*
X019475Y022801D01*
X019402Y022706D01*
X019342Y022603D01*
X019297Y022493D01*
X019266Y022378D01*
X019250Y022260D01*
X020100Y022260D01*
X020100Y022140D01*
X019250Y022140D01*
X019266Y022022D01*
X019297Y021906D01*
X019342Y021796D01*
X019402Y021693D01*
X019475Y021598D01*
X019559Y021514D01*
X019654Y021441D01*
X019704Y021412D01*
X019626Y021462D02*
X017702Y021462D01*
X017836Y021581D02*
X019492Y021581D01*
X019398Y021699D02*
X017930Y021699D01*
X017995Y021818D02*
X019333Y021818D01*
X019289Y021936D02*
X018040Y021936D01*
X018067Y022055D02*
X019262Y022055D01*
X019255Y022292D02*
X018074Y022292D01*
X018078Y022260D02*
X018063Y022378D01*
X018032Y022493D01*
X017986Y022603D01*
X017926Y022706D01*
X017854Y022801D01*
X017769Y022885D01*
X017675Y022958D01*
X017572Y023018D01*
X017461Y023063D01*
X017346Y023094D01*
X017228Y023110D01*
X017228Y022260D01*
X018078Y022260D01*
X018054Y022410D02*
X019275Y022410D01*
X019312Y022529D02*
X018017Y022529D01*
X017960Y022647D02*
X019368Y022647D01*
X019448Y022766D02*
X017881Y022766D01*
X017770Y022884D02*
X019558Y022884D01*
X019732Y023003D02*
X017597Y023003D01*
X017228Y023003D02*
X017108Y023003D01*
X017108Y022884D02*
X017228Y022884D01*
X017228Y022766D02*
X017108Y022766D01*
X017108Y022647D02*
X017228Y022647D01*
X017228Y022529D02*
X017108Y022529D01*
X017108Y022410D02*
X017228Y022410D01*
X017228Y022292D02*
X017108Y022292D01*
X017228Y022173D02*
X020100Y022173D01*
X020100Y022292D02*
X020220Y022292D01*
X020220Y022410D02*
X020100Y022410D01*
X020100Y022529D02*
X020220Y022529D01*
X020220Y022647D02*
X020100Y022647D01*
X020100Y022766D02*
X020220Y022766D01*
X020220Y022884D02*
X020100Y022884D01*
X020100Y023003D02*
X020220Y023003D01*
X020589Y023003D02*
X021046Y023003D01*
X021046Y023121D02*
X016322Y023121D01*
X016322Y023003D02*
X016739Y023003D01*
X016566Y022884D02*
X016322Y022884D01*
X016322Y022766D02*
X016456Y022766D01*
X016376Y022647D02*
X016322Y022647D01*
X016322Y023240D02*
X021046Y023240D01*
X021046Y023358D02*
X016322Y023358D01*
X016322Y023477D02*
X021046Y023477D01*
X021046Y023595D02*
X016322Y023595D01*
X016322Y023714D02*
X021046Y023714D01*
X021046Y023832D02*
X016322Y023832D01*
X016322Y023951D02*
X021046Y023951D01*
X021046Y024069D02*
X016322Y024069D01*
X016322Y024188D02*
X021046Y024188D01*
X021046Y024306D02*
X016322Y024306D01*
X016322Y024425D02*
X021046Y024425D01*
X021046Y024543D02*
X016322Y024543D01*
X016322Y024662D02*
X021046Y024662D01*
X021046Y024780D02*
X016322Y024780D01*
X016322Y024899D02*
X021046Y024899D01*
X021046Y025017D02*
X016322Y025017D01*
X016322Y025136D02*
X021046Y025136D01*
X021046Y025254D02*
X016322Y025254D01*
X016322Y025373D02*
X021046Y025373D01*
X021046Y025491D02*
X016322Y025491D01*
X016322Y025610D02*
X021046Y025610D01*
X021046Y025728D02*
X016322Y025728D01*
X016322Y025847D02*
X021046Y025847D01*
X021046Y025965D02*
X016322Y025965D01*
X016322Y026084D02*
X021046Y026084D01*
X021046Y026202D02*
X016322Y026202D01*
X016322Y026321D02*
X021046Y026321D01*
X021046Y026439D02*
X016322Y026439D01*
X016322Y026558D02*
X021046Y026558D01*
X021046Y026676D02*
X016322Y026676D01*
X016322Y026795D02*
X021046Y026795D01*
X021046Y026913D02*
X016322Y026913D01*
X016322Y027032D02*
X021046Y027032D01*
X021046Y027150D02*
X016322Y027150D01*
X016322Y027269D02*
X021046Y027269D01*
X021046Y027387D02*
X016322Y027387D01*
X016322Y027506D02*
X021046Y027506D01*
X021046Y027624D02*
X016322Y027624D01*
X016322Y027743D02*
X021046Y027743D01*
X021046Y027861D02*
X016322Y027861D01*
X016322Y027980D02*
X021046Y027980D01*
X021046Y028098D02*
X020345Y028098D01*
X020220Y028098D02*
X020100Y028098D01*
X020100Y028217D02*
X020220Y028217D01*
X020220Y028335D02*
X020100Y028335D01*
X020100Y028454D02*
X020220Y028454D01*
X020220Y028572D02*
X020100Y028572D01*
X020100Y028691D02*
X020220Y028691D01*
X020220Y028809D02*
X020100Y028809D01*
X020100Y028928D02*
X020220Y028928D01*
X020100Y029046D02*
X017228Y029046D01*
X017228Y028928D02*
X017108Y028928D01*
X017108Y028809D02*
X017228Y028809D01*
X017228Y028691D02*
X017108Y028691D01*
X017108Y028572D02*
X017228Y028572D01*
X017228Y028454D02*
X017108Y028454D01*
X017108Y028335D02*
X017228Y028335D01*
X017228Y028217D02*
X017108Y028217D01*
X017108Y028098D02*
X017228Y028098D01*
X017353Y028098D02*
X019976Y028098D01*
X019681Y028217D02*
X017647Y028217D01*
X017800Y028335D02*
X019529Y028335D01*
X019425Y028454D02*
X017903Y028454D01*
X017977Y028572D02*
X019351Y028572D01*
X019300Y028691D02*
X018029Y028691D01*
X018062Y028809D02*
X019267Y028809D01*
X019251Y028928D02*
X018078Y028928D01*
X018063Y029165D02*
X019265Y029165D01*
X019297Y029283D02*
X018032Y029283D01*
X017982Y029402D02*
X019347Y029402D01*
X019420Y029520D02*
X017909Y029520D01*
X017807Y029639D02*
X019521Y029639D01*
X019668Y029757D02*
X017661Y029757D01*
X016359Y028572D02*
X016322Y028572D01*
X016322Y028454D02*
X016433Y028454D01*
X016537Y028335D02*
X016322Y028335D01*
X016322Y028217D02*
X016689Y028217D01*
X016983Y028098D02*
X016322Y028098D01*
X020640Y028217D02*
X021046Y028217D01*
X021046Y028335D02*
X020792Y028335D01*
X020895Y028454D02*
X021046Y028454D01*
X021046Y028572D02*
X020969Y028572D01*
X021021Y028691D02*
X021046Y028691D01*
X021046Y022884D02*
X020763Y022884D01*
X020873Y022766D02*
X021046Y022766D01*
X021046Y022647D02*
X020953Y022647D01*
X021009Y022529D02*
X021046Y022529D01*
X010416Y025448D02*
X008251Y025448D01*
X008251Y026432D01*
X010416Y026432D01*
X010416Y025448D01*
X010416Y025491D02*
X008251Y025491D01*
X008251Y025610D02*
X010416Y025610D01*
X010416Y025728D02*
X008251Y025728D01*
X008251Y025847D02*
X010416Y025847D01*
X010416Y025965D02*
X008251Y025965D01*
X008251Y026084D02*
X010416Y026084D01*
X010416Y026202D02*
X008251Y026202D01*
X008251Y026321D02*
X010416Y026321D01*
X005042Y027416D02*
X004452Y027416D01*
X003920Y026885D01*
X003487Y026885D01*
X003290Y026688D01*
X003074Y026688D01*
X003074Y025900D02*
X003074Y025310D01*
X003133Y025251D01*
X002857Y025900D02*
X002345Y025389D01*
X002345Y025251D01*
D42*
X033349Y022200D02*
X036341Y022200D01*
D43*
X033546Y019542D02*
X012582Y019542D01*
X012582Y026294D01*
X010219Y026294D01*
X030003Y005172D02*
X030003Y003991D01*
X027542Y002613D02*
X027286Y002357D01*
X027286Y001530D01*
X027798Y001530D02*
X027680Y001038D01*
X027798Y001530D02*
X029314Y001530D01*
X030889Y001530D02*
X031086Y001530D01*
D44*
X031774Y005172D02*
X030003Y005172D01*
X026164Y005172D01*
X026164Y004385D01*
X024393Y004385D01*
X023802Y004385D01*
X023802Y008479D01*
X022298Y008479D01*
X031774Y005172D02*
X032267Y005172D01*
X034432Y005172D01*
X034471Y014625D01*
X034432Y015704D01*
D45*
X022298Y011629D02*
X019991Y011629D01*
X019991Y011700D01*
D46*
X023475Y002967D02*
X022924Y002416D01*
X023475Y002967D02*
X025082Y002967D01*
D47*
X002739Y026806D02*
X002739Y027219D01*
M02*
