%
M48
M72
T01C0.0118
T02C0.0400
T03C0.0591
T04C0.0669
T05C0.1260
%
T01
X967Y28007
X1558Y28007
X1952Y28007
X2345Y28007
X1460Y27219
X967Y27219
X1952Y26629
X2345Y26530
X2345Y26038
X1952Y25743
X1755Y25251
X967Y25644
X967Y26432
X1558Y26235
X3133Y26235
X3723Y26333
X3723Y25448
X4117Y25448
X3625Y24759
X3723Y24070
X2739Y24660
X967Y24857
X967Y24070
X967Y23282
X1755Y22889
X2739Y22889
X3723Y22889
X4708Y22889
X5692Y22889
X5889Y23479
X6676Y22889
X7463Y23479
X7660Y22889
X8645Y22889
X9432Y22889
X10219Y22889
X11007Y22889
X9432Y24857
X10219Y25054
X11007Y25054
X11007Y25841
X11007Y26826
X11007Y27416
X10416Y27515
X10416Y28007
X11007Y28007
X9826Y28007
X9826Y27515
X9235Y27416
X8645Y27416
X8054Y27416
X7463Y27416
X7463Y26826
X7463Y26038
X7463Y25054
X7463Y24267
X5889Y24267
X5889Y25054
X6086Y25644
X5692Y26038
X5692Y26432
X6086Y26432
X5692Y26826
X5692Y28007
X6282Y28007
X6873Y28007
X7463Y28007
X8054Y28007
X8645Y28007
X9235Y28007
X5101Y28007
X4511Y28007
X3920Y28007
X3428Y28007
X3428Y27416
X19274Y16393
X19274Y14227
X21834Y12259
X22227Y12259
X22621Y12259
X23015Y12259
X23015Y11865
X23015Y11471
X23015Y11078
X23015Y10684
X23015Y10290
X19865Y8322
X19274Y8322
X19274Y7731
X19865Y7731
X19865Y4778
X19471Y4778
X20259Y4778
X23113Y6156
X23113Y6944
X23113Y7731
X24491Y7731
X24491Y6944
X24491Y6156
X26558Y7534
X27345Y7534
X27542Y9306
X26164Y9306
X29314Y11471
X29314Y11865
X30495Y10585
X30495Y9798
X32267Y11767
X33054Y11767
X30495Y14227
X30495Y15015
X29314Y17770
X28526Y17770
X26558Y16393
X24393Y16393
X23015Y15015
X24393Y14522
X25475Y14326
X22818Y13046
X24294Y18558
X25180Y18558
X35810Y17278
X36400Y17278
X36400Y16688
X35810Y16688
X35810Y16097
X36400Y16097
X36400Y15507
X35810Y15507
X36400Y14916
X36400Y14326
X29314Y6353
X29314Y5959
X28231Y4286
X28231Y3893
X27837Y3893
X27444Y3893
X27050Y3893
X27050Y4286
X30003Y3991
X31086Y2613
X31282Y2318
X31479Y2613
X30889Y2318
X31086Y2022
X30889Y1530
X29806Y2251
X29314Y1530
X28822Y644
X28330Y644
X26460Y644
X25869Y644
X25278Y644
X24688Y644
X24688Y1235
X25278Y1235
X25869Y1235
X26460Y1235
X26460Y1727
X25869Y1727
X30987Y644
X31479Y644
X16715Y3007
X13566Y3007
X10416Y3007
X7267Y3007
T02
X31676Y11176
X32676Y11176
X32576Y10176
X31576Y10176
X31676Y9176
X32676Y9176
X34432Y3318
X34432Y2318
X22924Y2416
X21924Y2416
T03
X18991Y12700
X19991Y11700
X20991Y12700
X20991Y10700
X18991Y10700
T04
X17168Y28991
X20160Y28991
X20160Y22200
X17168Y22200
X33349Y22200
X36341Y22200
X36341Y28991
X33349Y28991
T05
X1558Y31156
X38369Y31156
M30
