G75*
%MOIN*%
%OFA0B0*%
%FSLAX24Y24*%
%IPPOS*%
%LPD*%
%AMOC8*
5,1,8,0,0,1.08239X$1,22.5*
%
%ADD10C,0.0000*%
%ADD11C,0.0280*%
%ADD12C,0.0170*%
%ADD13C,0.0400*%
%ADD14C,0.0060*%
%ADD15C,0.0100*%
%ADD16C,0.0050*%
%ADD17C,0.0160*%
%ADD18C,0.0080*%
%ADD19C,0.0130*%
%ADD20R,0.3740X0.2264*%
%ADD21R,0.0236X0.0591*%
%ADD22C,0.0039*%
%ADD23C,0.0472*%
%ADD24C,0.0040*%
%ADD25R,0.0197X0.0049*%
%ADD26R,0.0089X0.0128*%
%ADD27R,0.0049X0.0089*%
%ADD28R,0.0167X0.0049*%
%ADD29R,0.0197X0.0138*%
%ADD30R,0.0236X0.0049*%
%ADD31R,0.0669X0.0118*%
%ADD32R,0.0669X0.0276*%
%ADD33R,0.0128X0.0167*%
%ADD34R,0.0138X0.0138*%
%ADD35R,0.0236X0.0118*%
%ADD36R,0.0118X0.0236*%
%ADD37R,0.0118X0.0472*%
%ADD38R,0.0374X0.0197*%
%ADD39R,0.0197X0.0374*%
%ADD40R,0.1024X0.0295*%
%ADD41C,0.0700*%
%ADD42R,0.0200X0.0200*%
%ADD43R,0.0165X0.0640*%
%ADD44R,0.0165X0.0630*%
%ADD45R,0.0295X0.1378*%
%ADD46R,0.0295X0.0197*%
%ADD47R,0.0295X0.1024*%
%ADD48C,0.0143*%
D10*
X000574Y000251D02*
X000574Y032054D01*
X039341Y032054D01*
X039341Y000251D01*
X000574Y000251D01*
X023687Y014179D02*
X024107Y014179D01*
X024107Y014359D01*
X023687Y014359D01*
X023687Y014179D01*
X023687Y014489D02*
X024107Y014489D01*
X024107Y014669D01*
X023687Y014669D01*
X023687Y014489D01*
X023687Y014809D02*
X024107Y014809D01*
X024107Y014989D01*
X023687Y014989D01*
X023687Y014809D01*
X023687Y015119D02*
X024107Y015119D01*
X024107Y015299D01*
X023687Y015299D01*
X023687Y015119D01*
X023687Y015439D02*
X024107Y015439D01*
X024107Y015619D01*
X023687Y015619D01*
X023687Y015439D01*
X023687Y015749D02*
X024107Y015749D01*
X024107Y015929D01*
X023687Y015929D01*
X023687Y015749D01*
X023687Y016069D02*
X024107Y016069D01*
X024107Y016249D01*
X023687Y016249D01*
X023687Y016069D01*
X023687Y016379D02*
X024107Y016379D01*
X024107Y016559D01*
X023687Y016559D01*
X023687Y016379D01*
X024107Y016269D02*
X024607Y016769D01*
X024627Y016769D02*
X024627Y017189D01*
X024807Y017189D01*
X024807Y016769D01*
X024627Y016769D01*
X024497Y016769D02*
X024497Y017189D01*
X024317Y017189D01*
X024317Y016769D01*
X024497Y016769D01*
X024107Y016769D02*
X024107Y013969D01*
X026907Y013969D01*
X026907Y016769D01*
X024107Y016769D01*
X024947Y016769D02*
X024947Y017189D01*
X025127Y017189D01*
X025127Y016769D01*
X024947Y016769D01*
X025257Y016769D02*
X025257Y017189D01*
X025437Y017189D01*
X025437Y016769D01*
X025257Y016769D01*
X025577Y016769D02*
X025577Y017189D01*
X025757Y017189D01*
X025757Y016769D01*
X025577Y016769D01*
X025887Y016769D02*
X025887Y017189D01*
X026067Y017189D01*
X026067Y016769D01*
X025887Y016769D01*
X026207Y016769D02*
X026207Y017189D01*
X026387Y017189D01*
X026387Y016769D01*
X026207Y016769D01*
X026517Y016769D02*
X026517Y017189D01*
X026697Y017189D01*
X026697Y016769D01*
X026517Y016769D01*
X026907Y016559D02*
X026907Y016379D01*
X027327Y016379D01*
X027327Y016559D01*
X026907Y016559D01*
X026907Y016249D02*
X027327Y016249D01*
X027327Y016069D01*
X026907Y016069D01*
X026907Y016249D01*
X026907Y015929D02*
X027327Y015929D01*
X027327Y015749D01*
X026907Y015749D01*
X026907Y015929D01*
X026907Y015619D02*
X027327Y015619D01*
X027327Y015439D01*
X026907Y015439D01*
X026907Y015619D01*
X026907Y015299D02*
X027327Y015299D01*
X027327Y015119D01*
X026907Y015119D01*
X026907Y015299D01*
X026907Y014989D02*
X027327Y014989D01*
X027327Y014809D01*
X026907Y014809D01*
X026907Y014989D01*
X026907Y014669D02*
X027327Y014669D01*
X027327Y014489D01*
X026907Y014489D01*
X026907Y014669D01*
X026907Y014359D02*
X027327Y014359D01*
X027327Y014179D01*
X026907Y014179D01*
X026907Y014359D01*
X026697Y013969D02*
X026517Y013969D01*
X026517Y013549D01*
X026697Y013549D01*
X026697Y013969D01*
X026387Y013969D02*
X026387Y013549D01*
X026207Y013549D01*
X026207Y013969D01*
X026387Y013969D01*
X026067Y013969D02*
X026067Y013549D01*
X025887Y013549D01*
X025887Y013969D01*
X026067Y013969D01*
X025757Y013969D02*
X025757Y013549D01*
X025577Y013549D01*
X025577Y013969D01*
X025757Y013969D01*
X025437Y013969D02*
X025437Y013549D01*
X025257Y013549D01*
X025257Y013969D01*
X025437Y013969D01*
X025127Y013969D02*
X025127Y013549D01*
X024947Y013549D01*
X024947Y013969D01*
X025127Y013969D01*
X024807Y013969D02*
X024807Y013549D01*
X024627Y013549D01*
X024627Y013969D01*
X024807Y013969D01*
X024497Y013969D02*
X024497Y013549D01*
X024317Y013549D01*
X024317Y013969D01*
X024497Y013969D01*
X030966Y001531D02*
X030968Y001552D01*
X030973Y001572D01*
X030982Y001591D01*
X030994Y001608D01*
X031009Y001623D01*
X031026Y001635D01*
X031045Y001644D01*
X031065Y001649D01*
X031086Y001651D01*
X031107Y001649D01*
X031127Y001644D01*
X031146Y001635D01*
X031163Y001623D01*
X031178Y001608D01*
X031190Y001591D01*
X031199Y001572D01*
X031204Y001552D01*
X031206Y001531D01*
X031204Y001552D01*
X031199Y001572D01*
X031190Y001591D01*
X031178Y001608D01*
X031163Y001623D01*
X031146Y001635D01*
X031127Y001644D01*
X031107Y001649D01*
X031086Y001651D01*
X031065Y001649D01*
X031045Y001644D01*
X031026Y001635D01*
X031009Y001623D01*
X030994Y001608D01*
X030982Y001591D01*
X030973Y001572D01*
X030968Y001552D01*
X030966Y001531D01*
X030968Y001552D01*
X030973Y001572D01*
X030982Y001591D01*
X030994Y001608D01*
X031009Y001623D01*
X031026Y001635D01*
X031045Y001644D01*
X031065Y001649D01*
X031086Y001651D01*
X031107Y001649D01*
X031127Y001644D01*
X031146Y001635D01*
X031163Y001623D01*
X031178Y001608D01*
X031190Y001591D01*
X031199Y001572D01*
X031204Y001552D01*
X031206Y001531D01*
X031204Y001552D01*
X031199Y001572D01*
X031190Y001591D01*
X031178Y001608D01*
X031163Y001623D01*
X031146Y001635D01*
X031127Y001644D01*
X031107Y001649D01*
X031086Y001651D01*
X031065Y001649D01*
X031045Y001644D01*
X031026Y001635D01*
X031009Y001623D01*
X030994Y001608D01*
X030982Y001591D01*
X030973Y001572D01*
X030968Y001552D01*
X030966Y001531D01*
X037739Y031156D02*
X037741Y031206D01*
X037747Y031256D01*
X037757Y031305D01*
X037771Y031353D01*
X037788Y031400D01*
X037809Y031445D01*
X037834Y031489D01*
X037862Y031530D01*
X037894Y031569D01*
X037928Y031606D01*
X037965Y031640D01*
X038005Y031670D01*
X038047Y031697D01*
X038091Y031721D01*
X038137Y031742D01*
X038184Y031758D01*
X038232Y031771D01*
X038282Y031780D01*
X038331Y031785D01*
X038382Y031786D01*
X038432Y031783D01*
X038481Y031776D01*
X038530Y031765D01*
X038578Y031750D01*
X038624Y031732D01*
X038669Y031710D01*
X038712Y031684D01*
X038753Y031655D01*
X038792Y031623D01*
X038828Y031588D01*
X038860Y031550D01*
X038890Y031510D01*
X038917Y031467D01*
X038940Y031423D01*
X038959Y031377D01*
X038975Y031329D01*
X038987Y031280D01*
X038995Y031231D01*
X038999Y031181D01*
X038999Y031131D01*
X038995Y031081D01*
X038987Y031032D01*
X038975Y030983D01*
X038959Y030935D01*
X038940Y030889D01*
X038917Y030845D01*
X038890Y030802D01*
X038860Y030762D01*
X038828Y030724D01*
X038792Y030689D01*
X038753Y030657D01*
X038712Y030628D01*
X038669Y030602D01*
X038624Y030580D01*
X038578Y030562D01*
X038530Y030547D01*
X038481Y030536D01*
X038432Y030529D01*
X038382Y030526D01*
X038331Y030527D01*
X038282Y030532D01*
X038232Y030541D01*
X038184Y030554D01*
X038137Y030570D01*
X038091Y030591D01*
X038047Y030615D01*
X038005Y030642D01*
X037965Y030672D01*
X037928Y030706D01*
X037894Y030743D01*
X037862Y030782D01*
X037834Y030823D01*
X037809Y030867D01*
X037788Y030912D01*
X037771Y030959D01*
X037757Y031007D01*
X037747Y031056D01*
X037741Y031106D01*
X037739Y031156D01*
X000928Y031156D02*
X000930Y031206D01*
X000936Y031256D01*
X000946Y031305D01*
X000960Y031353D01*
X000977Y031400D01*
X000998Y031445D01*
X001023Y031489D01*
X001051Y031530D01*
X001083Y031569D01*
X001117Y031606D01*
X001154Y031640D01*
X001194Y031670D01*
X001236Y031697D01*
X001280Y031721D01*
X001326Y031742D01*
X001373Y031758D01*
X001421Y031771D01*
X001471Y031780D01*
X001520Y031785D01*
X001571Y031786D01*
X001621Y031783D01*
X001670Y031776D01*
X001719Y031765D01*
X001767Y031750D01*
X001813Y031732D01*
X001858Y031710D01*
X001901Y031684D01*
X001942Y031655D01*
X001981Y031623D01*
X002017Y031588D01*
X002049Y031550D01*
X002079Y031510D01*
X002106Y031467D01*
X002129Y031423D01*
X002148Y031377D01*
X002164Y031329D01*
X002176Y031280D01*
X002184Y031231D01*
X002188Y031181D01*
X002188Y031131D01*
X002184Y031081D01*
X002176Y031032D01*
X002164Y030983D01*
X002148Y030935D01*
X002129Y030889D01*
X002106Y030845D01*
X002079Y030802D01*
X002049Y030762D01*
X002017Y030724D01*
X001981Y030689D01*
X001942Y030657D01*
X001901Y030628D01*
X001858Y030602D01*
X001813Y030580D01*
X001767Y030562D01*
X001719Y030547D01*
X001670Y030536D01*
X001621Y030529D01*
X001571Y030526D01*
X001520Y030527D01*
X001471Y030532D01*
X001421Y030541D01*
X001373Y030554D01*
X001326Y030570D01*
X001280Y030591D01*
X001236Y030615D01*
X001194Y030642D01*
X001154Y030672D01*
X001117Y030706D01*
X001083Y030743D01*
X001051Y030782D01*
X001023Y030823D01*
X000998Y030867D01*
X000977Y030912D01*
X000960Y030959D01*
X000946Y031007D01*
X000936Y031056D01*
X000930Y031106D01*
X000928Y031156D01*
D11*
X001607Y021305D02*
X003869Y021305D01*
X003869Y020174D01*
X003492Y019797D01*
X002738Y019797D01*
X002361Y020174D01*
X002361Y021305D01*
X002361Y018979D02*
X002361Y018602D01*
X003115Y017848D01*
X003869Y017848D02*
X002361Y017848D01*
X002361Y016666D02*
X003869Y016666D01*
X003869Y016289D02*
X003869Y017043D01*
X002361Y016666D02*
X002361Y016289D01*
X001607Y016666D02*
X001230Y016666D01*
X001984Y015458D02*
X002361Y015458D01*
X002738Y015081D01*
X002738Y013950D01*
X001607Y013950D02*
X001607Y015081D01*
X001984Y015458D01*
X002738Y015081D02*
X003115Y015458D01*
X003492Y015458D01*
X003869Y015081D01*
X003869Y013950D01*
X001607Y013950D01*
X002361Y010780D02*
X004246Y010780D01*
X004623Y010403D01*
X004623Y010026D01*
X003869Y009649D02*
X003869Y010780D01*
X003869Y009649D02*
X003492Y009272D01*
X002361Y009272D01*
X001607Y008090D02*
X003869Y008090D01*
X003869Y007713D02*
X003869Y008467D01*
X002361Y006895D02*
X002361Y006518D01*
X003115Y005764D01*
X003869Y005764D02*
X002361Y005764D01*
X002738Y004933D02*
X003869Y004933D01*
X003869Y003802D01*
X003492Y003425D01*
X003115Y003802D01*
X003115Y004933D01*
X002738Y004933D02*
X002361Y004556D01*
X002361Y003802D01*
X001607Y002595D02*
X001607Y001087D01*
X003869Y001087D01*
X003869Y002595D01*
X002738Y001841D02*
X002738Y001087D01*
X001607Y007713D02*
X001607Y008090D01*
D12*
X006600Y007906D02*
X006600Y008572D01*
X006822Y008794D01*
X007266Y008794D01*
X007488Y008572D01*
X007488Y007906D01*
X007932Y007906D02*
X006600Y007906D01*
X006822Y009288D02*
X007710Y009288D01*
X007932Y009509D01*
X007932Y009953D01*
X007710Y010175D01*
X006822Y010175D01*
X006600Y009953D01*
X006600Y009509D01*
X006822Y009288D01*
X006600Y010669D02*
X007932Y010669D01*
X007488Y011113D01*
X007932Y011556D01*
X006600Y011556D01*
X006600Y012050D02*
X007932Y012050D01*
X007932Y012937D01*
X007932Y013431D02*
X006600Y013431D01*
X006600Y014097D01*
X006822Y014319D01*
X007266Y014319D01*
X007488Y014097D01*
X007488Y013431D01*
X007488Y013875D02*
X007932Y014319D01*
X006600Y012937D02*
X006600Y012050D01*
X007266Y012050D02*
X007266Y012494D01*
X009947Y013553D02*
X010169Y013331D01*
X011056Y013331D01*
X011278Y013553D01*
X011278Y013997D01*
X011056Y014219D01*
X010169Y014219D01*
X009947Y013997D01*
X009947Y013553D01*
X009947Y014712D02*
X011278Y014712D01*
X010834Y014712D02*
X009947Y015600D01*
X010613Y014934D02*
X011278Y015600D01*
X012900Y014319D02*
X014231Y014319D01*
X012900Y013431D01*
X014231Y013431D01*
X014009Y012937D02*
X013122Y012937D01*
X012900Y012716D01*
X012900Y012272D01*
X013122Y012050D01*
X014009Y012050D01*
X014231Y012272D01*
X014231Y012716D01*
X014009Y012937D01*
X015852Y013651D02*
X016074Y013430D01*
X016962Y013430D01*
X017184Y013651D01*
X017184Y014095D01*
X016962Y014317D01*
X016074Y014317D01*
X015852Y014095D01*
X015852Y013651D01*
X015852Y014811D02*
X017184Y015698D01*
X015852Y015698D01*
X015852Y014811D02*
X017184Y014811D01*
X017184Y011555D02*
X015852Y010667D01*
X015852Y010173D02*
X016962Y010173D01*
X017184Y009952D01*
X017184Y009508D01*
X016962Y009286D01*
X015852Y009286D01*
X016296Y008792D02*
X017184Y008792D01*
X016518Y008792D02*
X016518Y007905D01*
X016296Y007905D02*
X015852Y008349D01*
X016296Y008792D01*
X016296Y007905D02*
X017184Y007905D01*
X014231Y007906D02*
X012900Y007906D01*
X012900Y008572D01*
X013122Y008794D01*
X013565Y008794D01*
X013787Y008572D01*
X013787Y007906D01*
X013787Y008350D02*
X014231Y008794D01*
X014231Y009288D02*
X012900Y009288D01*
X012900Y010175D01*
X013565Y009731D02*
X013565Y009288D01*
X011278Y009188D02*
X009947Y009188D01*
X009947Y009853D01*
X010169Y010075D01*
X010613Y010075D01*
X010834Y009853D01*
X010834Y009188D01*
X010613Y008694D02*
X010613Y008250D01*
X010613Y008694D02*
X011056Y008694D01*
X011278Y008472D01*
X011278Y008028D01*
X011056Y007806D01*
X010169Y007806D01*
X009947Y008028D01*
X009947Y008472D01*
X010169Y008694D01*
X010169Y010569D02*
X010391Y010569D01*
X010613Y010791D01*
X010613Y011234D01*
X010834Y011456D01*
X011056Y011456D01*
X011278Y011234D01*
X011278Y010791D01*
X011056Y010569D01*
X010169Y010569D02*
X009947Y010791D01*
X009947Y011234D01*
X010169Y011456D01*
X015852Y011555D02*
X017184Y010667D01*
D13*
X016715Y006944D02*
X016715Y005763D01*
X015928Y005763D01*
X015928Y003400D01*
X017503Y003400D01*
X017503Y005763D01*
X016715Y005763D01*
X014353Y005763D02*
X013566Y005763D01*
X013566Y006944D01*
X013566Y005763D02*
X012778Y005763D01*
X012778Y003400D01*
X014353Y003400D01*
X014353Y005763D01*
X011204Y005763D02*
X011204Y003400D01*
X009629Y003400D01*
X009629Y005763D01*
X010416Y005763D01*
X010416Y006944D01*
X010416Y005763D02*
X011204Y005763D01*
X008054Y005763D02*
X008054Y003400D01*
X006479Y003400D01*
X006479Y005763D01*
X007267Y005763D01*
X007267Y006944D01*
X007267Y005763D02*
X008054Y005763D01*
D14*
X016127Y001323D02*
X016320Y001323D01*
X016320Y001147D02*
X016127Y001147D01*
X020556Y008233D02*
X020749Y008233D01*
X020749Y008410D02*
X020556Y008410D01*
X024690Y005260D02*
X024883Y005260D01*
X024883Y005084D02*
X024690Y005084D01*
X026568Y002513D02*
X026568Y002320D01*
X026745Y002320D02*
X026745Y002513D01*
X027446Y001619D02*
X027639Y001619D01*
X027639Y001442D02*
X027446Y001442D01*
X027839Y001126D02*
X028032Y001126D01*
X028032Y000950D02*
X027839Y000950D01*
X029119Y000950D02*
X029312Y000950D01*
X029312Y001126D02*
X029119Y001126D01*
X030096Y001661D02*
X030126Y001661D01*
X030496Y001661D01*
X030496Y001811D01*
X030096Y001811D01*
X030096Y001661D01*
X030126Y001661D02*
X030126Y001821D01*
X030496Y001821D01*
X030496Y002421D01*
X030496Y002431D01*
X030096Y002431D01*
X030096Y002581D01*
X030126Y002581D01*
X030126Y002421D01*
X030496Y002421D01*
X030496Y002331D01*
X030496Y002171D01*
X030496Y002071D01*
X030496Y001911D01*
X030496Y001821D01*
X030496Y001811D01*
X030496Y001911D02*
X030126Y001911D01*
X030096Y001911D01*
X030096Y002071D01*
X030126Y002071D01*
X030126Y001911D01*
X030126Y002071D02*
X030496Y002071D01*
X030496Y002171D02*
X030126Y002171D01*
X030096Y002171D01*
X030096Y002331D01*
X030126Y002331D01*
X030126Y002171D01*
X030126Y002331D02*
X030496Y002331D01*
X030496Y002431D02*
X030496Y002581D01*
X030496Y002711D01*
X031676Y002711D01*
X031676Y002581D01*
X031676Y002431D01*
X032076Y002431D01*
X032076Y002581D01*
X032046Y002581D01*
X031676Y002581D01*
X031626Y002711D02*
X030546Y002711D01*
X030636Y002711D02*
X031536Y002711D01*
X031676Y002431D02*
X031676Y002421D01*
X031676Y002331D01*
X031676Y002171D01*
X031676Y002071D01*
X031676Y001911D01*
X031676Y001821D01*
X031676Y001811D01*
X032076Y001811D01*
X032076Y001661D01*
X032046Y001661D01*
X032046Y001821D01*
X031676Y001821D01*
X031676Y001811D02*
X031676Y001661D01*
X031676Y001531D01*
X031206Y001531D01*
X030966Y001531D01*
X031206Y001531D01*
X031536Y001531D01*
X031626Y001531D01*
X031676Y001661D02*
X032046Y001661D01*
X032046Y001911D02*
X032076Y001911D01*
X032076Y002071D01*
X032046Y002071D01*
X031676Y002071D01*
X031676Y002171D01*
X032046Y002171D01*
X032076Y002171D01*
X032076Y002331D01*
X032046Y002331D01*
X031676Y002331D01*
X031676Y002421D02*
X032046Y002421D01*
X032046Y002581D01*
X032046Y002331D02*
X032046Y002171D01*
X032046Y002071D02*
X032046Y001911D01*
X031676Y001911D01*
X031678Y001126D02*
X031871Y001126D01*
X031871Y000950D02*
X031678Y000950D01*
X030966Y001531D02*
X030636Y001531D01*
X030546Y001531D01*
X030496Y001531D02*
X030966Y001531D01*
X030496Y001531D02*
X030496Y001661D01*
X030399Y001126D02*
X030591Y001126D01*
X030591Y000950D02*
X030399Y000950D01*
X030496Y002581D02*
X030126Y002581D01*
X032572Y001528D02*
X032572Y001335D01*
X032749Y001335D02*
X032749Y001528D01*
X033745Y001028D02*
X033938Y001028D01*
X033938Y000852D02*
X033745Y000852D01*
X035965Y001462D02*
X035965Y001812D01*
X036082Y001929D01*
X036315Y001929D01*
X036432Y001812D01*
X036432Y001462D01*
X036666Y001462D02*
X035965Y001462D01*
X035965Y002162D02*
X036666Y002162D01*
X036315Y002162D02*
X036199Y002278D01*
X036199Y002512D01*
X036315Y002629D01*
X036666Y002629D01*
X036666Y002861D02*
X036666Y003095D01*
X036666Y002978D02*
X036199Y002978D01*
X036199Y002861D01*
X035965Y002978D02*
X035848Y002978D01*
X035965Y003328D02*
X035965Y003445D01*
X036666Y003445D01*
X036666Y003328D02*
X036666Y003562D01*
X036666Y004494D02*
X035965Y004494D01*
X036199Y004728D01*
X035965Y004961D01*
X036666Y004961D01*
X036549Y005194D02*
X036082Y005661D01*
X036549Y005661D01*
X036666Y005544D01*
X036666Y005311D01*
X036549Y005194D01*
X036082Y005194D01*
X035965Y005311D01*
X035965Y005544D01*
X036082Y005661D01*
X035965Y005894D02*
X035965Y006244D01*
X036082Y006361D01*
X036549Y006361D01*
X036666Y006244D01*
X036666Y005894D01*
X035965Y005894D01*
X035965Y006594D02*
X036666Y007061D01*
X035965Y007061D01*
X035965Y007294D02*
X036082Y007294D01*
X036315Y007527D01*
X036666Y007527D01*
X036315Y007527D02*
X036082Y007761D01*
X035965Y007761D01*
X036315Y008693D02*
X036315Y009160D01*
X036082Y010093D02*
X035965Y010209D01*
X035965Y010443D01*
X036082Y010560D01*
X036199Y010560D01*
X036666Y010093D01*
X036666Y010560D01*
X036549Y010793D02*
X036082Y011260D01*
X036549Y011260D01*
X036666Y011143D01*
X036666Y010909D01*
X036549Y010793D01*
X036082Y010793D01*
X035965Y010909D01*
X035965Y011143D01*
X036082Y011260D01*
X036199Y011492D02*
X035965Y011726D01*
X036666Y011726D01*
X036666Y011959D02*
X036666Y011492D01*
X036315Y012192D02*
X036315Y012659D01*
X035965Y012542D02*
X036315Y012192D01*
X035965Y012542D02*
X036666Y012542D01*
X038069Y012309D02*
X038419Y012309D01*
X038536Y012426D01*
X038536Y012776D01*
X038069Y012776D01*
X038069Y013009D02*
X038069Y013125D01*
X038186Y013242D01*
X038069Y013359D01*
X038186Y013476D01*
X038536Y013476D01*
X038536Y013708D02*
X038536Y014059D01*
X038419Y014175D01*
X038186Y014175D01*
X038069Y014059D01*
X038069Y013708D01*
X038769Y013708D01*
X038536Y013242D02*
X038186Y013242D01*
X038069Y013009D02*
X038536Y013009D01*
X038069Y012076D02*
X038069Y011959D01*
X038302Y011726D01*
X038069Y011726D02*
X038536Y011726D01*
X038536Y011493D02*
X038536Y011143D01*
X038419Y011026D01*
X038186Y011026D01*
X038069Y011143D01*
X038069Y011493D01*
X038536Y010793D02*
X038536Y010559D01*
X038536Y010676D02*
X037835Y010676D01*
X037835Y010559D01*
X037835Y010209D02*
X037718Y010209D01*
X038069Y010209D02*
X038536Y010209D01*
X038536Y010093D02*
X038536Y010326D01*
X038536Y009860D02*
X038186Y009860D01*
X038069Y009743D01*
X038069Y009510D01*
X038186Y009393D01*
X038186Y009160D02*
X038419Y009160D01*
X038536Y009043D01*
X038536Y008693D01*
X038536Y008460D02*
X038536Y008343D01*
X038419Y008343D01*
X038419Y008460D01*
X038536Y008460D01*
X038769Y008693D02*
X038069Y008693D01*
X038069Y009043D01*
X038186Y009160D01*
X038536Y009393D02*
X037835Y009393D01*
X038069Y010093D02*
X038069Y010209D01*
X038069Y008110D02*
X038419Y008110D01*
X038536Y007994D01*
X038419Y007877D01*
X038536Y007760D01*
X038419Y007643D01*
X038069Y007643D01*
X038069Y007411D02*
X038419Y007411D01*
X038536Y007294D01*
X038419Y007177D01*
X038536Y007060D01*
X038419Y006944D01*
X038069Y006944D01*
X038069Y006711D02*
X038419Y006711D01*
X038536Y006594D01*
X038419Y006477D01*
X038536Y006361D01*
X038419Y006244D01*
X038069Y006244D01*
X037835Y006011D02*
X038536Y005544D01*
X038536Y004844D02*
X037835Y005311D01*
X038069Y004611D02*
X038186Y004611D01*
X038186Y004494D01*
X038069Y004494D01*
X038069Y004611D01*
X038069Y004262D02*
X038069Y003911D01*
X038186Y003795D01*
X038302Y003911D01*
X038302Y004145D01*
X038419Y004262D01*
X038536Y004145D01*
X038536Y003795D01*
X038419Y003562D02*
X038536Y003445D01*
X038536Y003095D01*
X038536Y002862D02*
X038419Y002745D01*
X037952Y002745D01*
X038069Y002628D02*
X038069Y002862D01*
X038069Y003095D02*
X038069Y003445D01*
X038186Y003562D01*
X038419Y003562D01*
X038769Y003095D02*
X038069Y003095D01*
X038069Y002395D02*
X038069Y002162D01*
X037952Y002278D02*
X038419Y002278D01*
X038536Y002395D01*
X038536Y001929D02*
X038186Y001929D01*
X038069Y001812D01*
X038069Y001579D01*
X038186Y001462D01*
X038536Y001462D02*
X037835Y001462D01*
X038419Y004494D02*
X038536Y004494D01*
X038536Y004611D01*
X038419Y004611D01*
X038419Y004494D01*
X036666Y006594D02*
X035965Y006594D01*
X026907Y013969D02*
X026837Y013969D01*
X026907Y013969D02*
X026907Y014039D01*
X027607Y015219D02*
X028007Y015219D01*
X028438Y015312D02*
X028438Y015505D01*
X028615Y015505D02*
X028615Y015312D01*
X029226Y015312D02*
X029226Y015505D01*
X029402Y015505D02*
X029402Y015312D01*
X029402Y016887D02*
X029402Y017080D01*
X029226Y017080D02*
X029226Y016887D01*
X028615Y016887D02*
X028615Y017080D01*
X028438Y017080D02*
X028438Y016887D01*
X026907Y016769D02*
X026907Y016699D01*
X026907Y016769D02*
X026837Y016769D01*
X025037Y017459D02*
X025037Y017859D01*
X024467Y016619D02*
X024257Y016409D01*
X024107Y016699D02*
X024107Y016769D01*
X024177Y016769D01*
X023103Y015702D02*
X023103Y015509D01*
X022926Y015509D02*
X022926Y015702D01*
X022324Y016796D02*
X022131Y016796D01*
X022131Y016973D02*
X022324Y016973D01*
X022324Y017289D02*
X022131Y017289D01*
X022131Y017465D02*
X022324Y017465D01*
X022324Y017781D02*
X022131Y017781D01*
X022131Y017957D02*
X022324Y017957D01*
X020158Y016481D02*
X019965Y016481D01*
X019965Y016304D02*
X020158Y016304D01*
X020158Y014315D02*
X019965Y014315D01*
X019965Y014139D02*
X020158Y014139D01*
X024107Y014039D02*
X024107Y013969D01*
X024177Y013969D01*
X024707Y013279D02*
X024707Y012879D01*
X034828Y015419D02*
X035021Y015419D01*
X035021Y015595D02*
X034828Y015595D01*
X034828Y016600D02*
X035021Y016600D01*
X035021Y016776D02*
X034828Y016776D01*
X037835Y017207D02*
X038536Y017207D01*
X038536Y016975D02*
X038069Y016975D01*
X038302Y017207D02*
X038069Y017558D01*
X038302Y017207D02*
X038536Y017558D01*
X038536Y017790D02*
X037835Y018258D01*
X038536Y016975D02*
X038536Y016624D01*
X038419Y016508D01*
X038069Y016508D01*
X038419Y016274D02*
X038536Y016274D01*
X038536Y016158D01*
X038419Y016158D01*
X038419Y016274D01*
X038419Y015925D02*
X038186Y015925D01*
X038069Y015808D01*
X038069Y015575D01*
X038186Y015458D01*
X038419Y015458D01*
X038536Y015575D01*
X038536Y015808D01*
X038419Y015925D01*
X038536Y015225D02*
X038536Y014875D01*
X038419Y014758D01*
X038186Y014758D01*
X038069Y014875D01*
X038069Y015225D01*
X038419Y014525D02*
X038536Y014525D01*
X038536Y014408D01*
X038419Y014408D01*
X038419Y014525D01*
X010710Y023588D02*
X010517Y023588D01*
X010517Y023764D02*
X010710Y023764D01*
X010710Y024178D02*
X010517Y024178D01*
X010517Y024355D02*
X010710Y024355D01*
X009717Y026532D02*
X009717Y026725D01*
X009541Y026725D02*
X009541Y026532D01*
X005395Y027328D02*
X005202Y027328D01*
X005202Y027504D02*
X005395Y027504D01*
D15*
X005574Y028302D02*
X005574Y032042D01*
X006574Y032042D02*
X006574Y028302D01*
X007574Y028302D02*
X007574Y032042D01*
X008574Y032042D02*
X008574Y028302D01*
X009574Y028302D02*
X009574Y032042D01*
X010574Y032042D02*
X010574Y028302D01*
X011574Y028302D02*
X011574Y032042D01*
X012574Y032042D02*
X012574Y028302D01*
X013574Y028302D02*
X013574Y032042D01*
X014574Y032042D02*
X014574Y028302D01*
X015534Y028302D02*
X015534Y032042D01*
X000574Y032042D01*
X000574Y028302D01*
X015534Y028302D01*
X015534Y029251D02*
X000574Y029251D01*
X000574Y028302D02*
X000574Y032042D01*
X001574Y032042D02*
X001574Y028302D01*
X002574Y028302D02*
X002574Y032042D01*
X003574Y032042D02*
X003574Y028302D01*
X004574Y028302D02*
X004574Y032042D01*
X000574Y031251D02*
X015534Y031251D01*
X015534Y030251D02*
X000574Y030251D01*
X021424Y003566D02*
X021924Y003566D01*
X021924Y003166D01*
X022024Y002966D01*
X022824Y002966D01*
X022924Y003166D01*
X022924Y003566D01*
X022824Y003566D02*
X022824Y003166D01*
X022924Y003166D01*
X022824Y003166D02*
X022024Y003166D01*
X022024Y003566D01*
X021924Y003566D02*
X022424Y003566D01*
X022024Y003166D02*
X021924Y003166D01*
X021424Y003566D02*
X021424Y002416D01*
X021424Y001266D01*
X021674Y001266D01*
X021674Y001516D01*
X022174Y001516D01*
X022174Y001266D01*
X022674Y001266D01*
X022674Y001516D01*
X023174Y001516D01*
X023174Y001266D01*
X023424Y001266D01*
X023424Y002416D01*
X023424Y003566D01*
X023174Y001266D02*
X022674Y001266D01*
X022424Y001266D02*
X021424Y001266D01*
X027444Y001894D02*
X027444Y002121D01*
X027444Y003105D01*
X027444Y003331D01*
X029215Y003331D01*
X029215Y003105D01*
X029215Y002121D01*
X029215Y001894D02*
X027444Y001894D01*
X029216Y001895D02*
X029215Y002008D01*
X029216Y002121D01*
D16*
X028781Y001666D02*
X028600Y001485D01*
X028645Y001530D02*
X028781Y001395D01*
X028600Y001395D02*
X028600Y001666D01*
X028486Y001621D02*
X028306Y001440D01*
X028351Y001395D01*
X028441Y001395D01*
X028486Y001440D01*
X028486Y001621D01*
X028441Y001666D01*
X028351Y001666D01*
X028306Y001621D01*
X028306Y001440D01*
X028191Y001395D02*
X028011Y001395D01*
X028101Y001395D02*
X028101Y001666D01*
X028011Y001575D01*
X028092Y000780D02*
X027911Y000600D01*
X027956Y000645D02*
X028092Y000509D01*
X027911Y000509D02*
X027911Y000780D01*
X027797Y000735D02*
X027752Y000780D01*
X027662Y000780D01*
X027617Y000735D01*
X027502Y000735D02*
X027457Y000780D01*
X027367Y000780D01*
X027322Y000735D01*
X027502Y000735D02*
X027502Y000690D01*
X027322Y000509D01*
X027502Y000509D01*
X027617Y000509D02*
X027797Y000690D01*
X027797Y000735D01*
X027797Y000509D02*
X027617Y000509D01*
X029069Y000509D02*
X029114Y000509D01*
X029114Y000555D01*
X029069Y000555D01*
X029069Y000509D01*
X029216Y000509D02*
X029396Y000509D01*
X029306Y000509D02*
X029306Y000780D01*
X029216Y000690D01*
X029511Y000690D02*
X029511Y000555D01*
X029556Y000509D01*
X029691Y000509D01*
X029691Y000690D01*
X029980Y000735D02*
X030025Y000780D01*
X030115Y000780D01*
X030160Y000735D01*
X030160Y000690D01*
X030115Y000645D01*
X030160Y000600D01*
X030160Y000555D01*
X030115Y000509D01*
X030025Y000509D01*
X029980Y000555D01*
X030070Y000645D02*
X030115Y000645D01*
X030274Y000735D02*
X030319Y000780D01*
X030409Y000780D01*
X030454Y000735D01*
X030454Y000690D01*
X030409Y000645D01*
X030454Y000600D01*
X030454Y000555D01*
X030409Y000509D01*
X030319Y000509D01*
X030274Y000555D01*
X030364Y000645D02*
X030409Y000645D01*
X030569Y000690D02*
X030569Y000509D01*
X030749Y000509D02*
X030749Y000645D01*
X030704Y000690D01*
X030569Y000690D01*
X031653Y000735D02*
X031698Y000780D01*
X031788Y000780D01*
X031833Y000735D01*
X031833Y000690D01*
X031788Y000645D01*
X031833Y000600D01*
X031833Y000555D01*
X031788Y000509D01*
X031698Y000509D01*
X031653Y000555D01*
X031743Y000645D02*
X031788Y000645D01*
X031947Y000690D02*
X031947Y000509D01*
X032128Y000509D02*
X032128Y000645D01*
X032083Y000690D01*
X031947Y000690D01*
X032242Y000735D02*
X032287Y000780D01*
X032377Y000780D01*
X032422Y000735D01*
X032422Y000690D01*
X032377Y000645D01*
X032422Y000600D01*
X032422Y000555D01*
X032377Y000509D01*
X032287Y000509D01*
X032242Y000555D01*
X032332Y000645D02*
X032377Y000645D01*
X032964Y001105D02*
X033054Y001015D01*
X033054Y001150D01*
X033099Y001195D01*
X033144Y001195D01*
X033189Y001150D01*
X033189Y001060D01*
X033144Y001015D01*
X033054Y001015D01*
X032964Y001105D02*
X032919Y001195D01*
X032919Y001310D02*
X033189Y001310D01*
X033099Y001310D02*
X032919Y001490D01*
X032964Y001604D02*
X033009Y001604D01*
X033054Y001649D01*
X033054Y001739D01*
X033099Y001784D01*
X033144Y001784D01*
X033189Y001739D01*
X033189Y001649D01*
X033144Y001604D01*
X033099Y001604D01*
X033054Y001649D01*
X033054Y001739D02*
X033009Y001784D01*
X032964Y001784D01*
X032919Y001739D01*
X032919Y001649D01*
X032964Y001604D01*
X033189Y001490D02*
X033054Y001355D01*
X033424Y001379D02*
X033515Y001469D01*
X033515Y001198D01*
X033605Y001198D02*
X033424Y001198D01*
X033719Y001244D02*
X033899Y001424D01*
X033899Y001244D01*
X033854Y001198D01*
X033764Y001198D01*
X033719Y001244D01*
X033719Y001424D01*
X033764Y001469D01*
X033854Y001469D01*
X033899Y001424D01*
X034014Y001469D02*
X034014Y001198D01*
X034014Y001289D02*
X034194Y001469D01*
X034059Y001334D02*
X034194Y001198D01*
X033152Y003007D02*
X033152Y006156D01*
X030003Y006156D01*
X030003Y003007D01*
X033152Y003007D01*
X031713Y006281D02*
X031713Y006461D01*
X031713Y006371D02*
X031442Y006371D01*
X031532Y006281D01*
X031487Y006576D02*
X031442Y006621D01*
X031442Y006711D01*
X031487Y006756D01*
X031668Y006576D01*
X031713Y006621D01*
X031713Y006711D01*
X031668Y006756D01*
X031487Y006756D01*
X031532Y006870D02*
X031668Y006870D01*
X031713Y006915D01*
X031713Y007050D01*
X031532Y007050D01*
X031578Y007165D02*
X031578Y007345D01*
X031713Y007345D02*
X031442Y007345D01*
X031442Y007165D02*
X031713Y007165D01*
X031668Y006576D02*
X031487Y006576D01*
X028465Y005328D02*
X028284Y005328D01*
X028284Y005148D02*
X028420Y005148D01*
X028465Y005193D01*
X028465Y005328D01*
X028420Y005033D02*
X028465Y004988D01*
X028465Y004898D01*
X028420Y004853D01*
X028239Y005033D01*
X028420Y005033D01*
X028420Y004853D02*
X028239Y004853D01*
X028194Y004898D01*
X028194Y004988D01*
X028239Y005033D01*
X028465Y004738D02*
X028465Y004558D01*
X028465Y004648D02*
X028194Y004648D01*
X028284Y004558D01*
X027185Y004599D02*
X026915Y004599D01*
X027005Y004509D01*
X027185Y004509D02*
X027185Y004689D01*
X027140Y004803D02*
X027185Y004848D01*
X027185Y004984D01*
X027005Y004984D01*
X027005Y004803D02*
X027140Y004803D01*
X026791Y003679D02*
X026611Y003679D01*
X026611Y003499D02*
X026746Y003499D01*
X026791Y003544D01*
X026791Y003679D01*
X026791Y003385D02*
X026791Y003204D01*
X026791Y003294D02*
X026521Y003294D01*
X026611Y003204D01*
X026746Y003102D02*
X026791Y003102D01*
X026791Y003057D01*
X026746Y003057D01*
X026746Y003102D01*
X026201Y003131D02*
X026201Y003311D01*
X026201Y003221D02*
X025931Y003221D01*
X026021Y003131D01*
X026021Y003425D02*
X026156Y003425D01*
X026201Y003470D01*
X026201Y003606D01*
X026021Y003606D01*
X025217Y003566D02*
X024946Y003566D01*
X025036Y003476D01*
X025217Y003476D02*
X025217Y003656D01*
X025172Y003770D02*
X024991Y003950D01*
X025172Y003950D01*
X025217Y003905D01*
X025217Y003815D01*
X025172Y003770D01*
X024991Y003770D01*
X024946Y003815D01*
X024946Y003905D01*
X024991Y003950D01*
X025036Y004065D02*
X025172Y004065D01*
X025217Y004110D01*
X025217Y004245D01*
X025036Y004245D01*
X024959Y004643D02*
X024959Y004914D01*
X024844Y004869D02*
X024664Y004688D01*
X024709Y004643D01*
X024799Y004643D01*
X024844Y004688D01*
X024844Y004869D01*
X024799Y004914D01*
X024709Y004914D01*
X024664Y004869D01*
X024664Y004688D01*
X024549Y004643D02*
X024369Y004643D01*
X024459Y004643D02*
X024459Y004914D01*
X024369Y004824D01*
X024959Y004733D02*
X025139Y004914D01*
X025004Y004778D02*
X025139Y004643D01*
X023424Y003566D02*
X022424Y003566D01*
X022024Y003566D02*
X021924Y003566D01*
X021924Y003416D01*
X020984Y005493D02*
X020714Y005673D01*
X020759Y005788D02*
X020714Y005833D01*
X020714Y005923D01*
X020759Y005968D01*
X020804Y005968D01*
X020984Y005788D01*
X020984Y005968D01*
X020984Y005673D02*
X020714Y005493D01*
X020722Y007104D02*
X020858Y007104D01*
X020858Y007284D01*
X020677Y007284D02*
X020677Y007149D01*
X020722Y007104D01*
X020563Y007104D02*
X020383Y007104D01*
X020473Y007104D02*
X020473Y007374D01*
X020383Y007284D01*
X020354Y008580D02*
X020309Y008580D01*
X020309Y008625D01*
X020354Y008625D01*
X020354Y008580D01*
X020456Y008580D02*
X020637Y008580D01*
X020547Y008580D02*
X020547Y008851D01*
X020456Y008761D01*
X020751Y008761D02*
X020751Y008625D01*
X020796Y008580D01*
X020931Y008580D01*
X020931Y008761D01*
X023389Y010450D02*
X023389Y010721D01*
X023524Y010721D01*
X023569Y010676D01*
X023569Y010586D01*
X023524Y010541D01*
X023389Y010541D01*
X023479Y010541D02*
X023569Y010450D01*
X023683Y010450D02*
X023683Y010721D01*
X023863Y010721D01*
X023978Y010721D02*
X024068Y010631D01*
X024158Y010721D01*
X024158Y010450D01*
X023978Y010450D02*
X023978Y010721D01*
X023773Y010586D02*
X023683Y010586D01*
X024567Y010721D02*
X024747Y010721D01*
X024657Y010721D02*
X024657Y010450D01*
X024862Y010450D02*
X024862Y010631D01*
X024952Y010631D02*
X024997Y010631D01*
X024952Y010631D02*
X024862Y010541D01*
X025107Y010495D02*
X025152Y010541D01*
X025288Y010541D01*
X025288Y010586D02*
X025288Y010450D01*
X025152Y010450D01*
X025107Y010495D01*
X025152Y010631D02*
X025243Y010631D01*
X025288Y010586D01*
X025402Y010631D02*
X025537Y010631D01*
X025582Y010586D01*
X025582Y010450D01*
X025697Y010450D02*
X025832Y010450D01*
X025877Y010495D01*
X025832Y010541D01*
X025742Y010541D01*
X025697Y010586D01*
X025742Y010631D01*
X025877Y010631D01*
X025991Y010586D02*
X025991Y010495D01*
X026036Y010450D01*
X026172Y010450D01*
X026286Y010495D02*
X026286Y010586D01*
X026331Y010631D01*
X026421Y010631D01*
X026466Y010586D01*
X026466Y010541D01*
X026286Y010541D01*
X026286Y010495D02*
X026331Y010450D01*
X026421Y010450D01*
X026581Y010450D02*
X026671Y010450D01*
X026626Y010450D02*
X026626Y010631D01*
X026581Y010631D01*
X026626Y010721D02*
X026626Y010766D01*
X026777Y010631D02*
X026867Y010450D01*
X026957Y010631D01*
X027072Y010586D02*
X027117Y010631D01*
X027207Y010631D01*
X027252Y010586D01*
X027252Y010541D01*
X027072Y010541D01*
X027072Y010586D02*
X027072Y010495D01*
X027117Y010450D01*
X027207Y010450D01*
X027366Y010450D02*
X027366Y010631D01*
X027366Y010541D02*
X027456Y010631D01*
X027502Y010631D01*
X026172Y010631D02*
X026036Y010631D01*
X025991Y010586D01*
X025402Y010631D02*
X025402Y010450D01*
X022267Y014188D02*
X022109Y014188D01*
X022267Y014188D02*
X022424Y014345D01*
X022424Y016038D01*
X022267Y016196D01*
X022109Y016196D01*
X022879Y016287D02*
X023150Y016287D01*
X023150Y016197D02*
X023150Y016377D01*
X023105Y016491D02*
X022969Y016491D01*
X023105Y016491D02*
X023150Y016536D01*
X023150Y016671D01*
X022969Y016671D01*
X022879Y016287D02*
X022969Y016197D01*
X023105Y016094D02*
X023150Y016094D01*
X023150Y016049D01*
X023105Y016049D01*
X023105Y016094D01*
X024273Y015453D02*
X024363Y015543D01*
X024453Y015453D01*
X024453Y015273D01*
X024453Y015408D02*
X024273Y015408D01*
X024273Y015453D02*
X024273Y015273D01*
X024657Y015273D02*
X024657Y015543D01*
X024567Y015543D02*
X024748Y015543D01*
X024862Y015543D02*
X024952Y015453D01*
X025042Y015543D01*
X025042Y015273D01*
X025157Y015318D02*
X025157Y015408D01*
X025202Y015453D01*
X025292Y015453D01*
X025337Y015408D01*
X025337Y015363D01*
X025157Y015363D01*
X025157Y015318D02*
X025202Y015273D01*
X025292Y015273D01*
X025451Y015318D02*
X025496Y015273D01*
X025632Y015273D01*
X025632Y015228D02*
X025632Y015453D01*
X025496Y015453D01*
X025451Y015408D01*
X025451Y015318D01*
X025541Y015183D02*
X025586Y015183D01*
X025632Y015228D01*
X025746Y015318D02*
X025791Y015363D01*
X025926Y015363D01*
X025926Y015408D02*
X025926Y015273D01*
X025791Y015273D01*
X025746Y015318D01*
X025791Y015453D02*
X025881Y015453D01*
X025926Y015408D01*
X026041Y015318D02*
X026086Y015273D01*
X026176Y015273D01*
X026221Y015318D01*
X026221Y015363D01*
X026176Y015408D01*
X026131Y015408D01*
X026176Y015408D02*
X026221Y015453D01*
X026221Y015498D01*
X026176Y015543D01*
X026086Y015543D01*
X026041Y015498D01*
X026335Y015498D02*
X026380Y015543D01*
X026470Y015543D01*
X026515Y015498D01*
X026515Y015453D01*
X026335Y015273D01*
X026515Y015273D01*
X026630Y015318D02*
X026630Y015363D01*
X026675Y015408D01*
X026765Y015408D01*
X026810Y015363D01*
X026810Y015318D01*
X026765Y015273D01*
X026675Y015273D01*
X026630Y015318D01*
X026675Y015408D02*
X026630Y015453D01*
X026630Y015498D01*
X026675Y015543D01*
X026765Y015543D01*
X026810Y015498D01*
X026810Y015453D01*
X026765Y015408D01*
X028481Y014900D02*
X028661Y014900D01*
X028661Y014765D01*
X028616Y014720D01*
X028481Y014720D01*
X028661Y014605D02*
X028661Y014425D01*
X028661Y014515D02*
X028391Y014515D01*
X028481Y014425D01*
X028616Y014323D02*
X028661Y014323D01*
X028661Y014278D01*
X028616Y014278D01*
X028616Y014323D01*
X029572Y015081D02*
X029843Y015081D01*
X029843Y014991D02*
X029843Y015171D01*
X029798Y015286D02*
X029617Y015466D01*
X029798Y015466D01*
X029843Y015421D01*
X029843Y015331D01*
X029798Y015286D01*
X029617Y015286D01*
X029572Y015331D01*
X029572Y015421D01*
X029617Y015466D01*
X029572Y015581D02*
X029843Y015581D01*
X029752Y015581D02*
X029572Y015761D01*
X029707Y015626D02*
X029843Y015761D01*
X029572Y015081D02*
X029662Y014991D01*
X029662Y016566D02*
X029572Y016656D01*
X029843Y016656D01*
X029843Y016566D02*
X029843Y016746D01*
X029798Y016861D02*
X029617Y017041D01*
X029798Y017041D01*
X029843Y016996D01*
X029843Y016906D01*
X029798Y016861D01*
X029617Y016861D01*
X029572Y016906D01*
X029572Y016996D01*
X029617Y017041D01*
X029572Y017155D02*
X029843Y017155D01*
X029752Y017155D02*
X029572Y017336D01*
X029707Y017200D02*
X029843Y017336D01*
X028268Y017262D02*
X028268Y017127D01*
X028223Y017082D01*
X028088Y017082D01*
X028088Y017262D02*
X028268Y017262D01*
X028268Y016967D02*
X028268Y016787D01*
X028268Y016877D02*
X027998Y016877D01*
X028088Y016787D01*
X028223Y016685D02*
X028268Y016685D01*
X028268Y016640D01*
X028223Y016640D01*
X028223Y016685D01*
X024862Y015543D02*
X024862Y015273D01*
X023120Y018128D02*
X023030Y018218D01*
X023075Y018218D02*
X022940Y018218D01*
X022940Y018128D02*
X022940Y018398D01*
X023075Y018398D01*
X023120Y018353D01*
X023120Y018263D01*
X023075Y018218D01*
X022825Y018353D02*
X022645Y018173D01*
X022645Y018128D01*
X022486Y018128D02*
X022486Y018398D01*
X022351Y018263D01*
X022531Y018263D01*
X022645Y018398D02*
X022825Y018398D01*
X022825Y018353D01*
X021942Y018308D02*
X021761Y018128D01*
X021647Y018173D02*
X021602Y018128D01*
X021512Y018128D01*
X021467Y018173D01*
X021557Y018263D02*
X021602Y018263D01*
X021647Y018218D01*
X021647Y018173D01*
X021602Y018263D02*
X021647Y018308D01*
X021647Y018353D01*
X021602Y018398D01*
X021512Y018398D01*
X021467Y018353D01*
X021761Y018308D02*
X021942Y018128D01*
X021243Y016196D02*
X021125Y016196D01*
X020928Y016038D01*
X020928Y014306D01*
X021086Y014188D01*
X021243Y014188D01*
X020414Y013834D02*
X020414Y013744D01*
X020369Y013698D01*
X020234Y013698D01*
X020234Y013608D02*
X020234Y013879D01*
X020369Y013879D01*
X020414Y013834D01*
X020120Y013879D02*
X020120Y013924D01*
X020075Y013969D01*
X019985Y013969D01*
X019940Y013924D01*
X019825Y013924D02*
X019825Y013879D01*
X019645Y013698D01*
X019825Y013698D01*
X019940Y013698D02*
X020120Y013879D01*
X020120Y013698D02*
X019940Y013698D01*
X019825Y013924D02*
X019780Y013969D01*
X019690Y013969D01*
X019645Y013924D01*
X020517Y014942D02*
X020787Y015122D01*
X020787Y015236D02*
X020787Y015417D01*
X020787Y015326D02*
X020517Y015326D01*
X020607Y015236D01*
X020517Y015122D02*
X020787Y014942D01*
X020234Y015774D02*
X020234Y016044D01*
X020369Y016044D01*
X020414Y015999D01*
X020414Y015909D01*
X020369Y015864D01*
X020234Y015864D01*
X020120Y015864D02*
X019940Y015864D01*
X020120Y016044D01*
X020120Y016089D01*
X020075Y016134D01*
X019985Y016134D01*
X019940Y016089D01*
X019825Y016089D02*
X019780Y016134D01*
X019690Y016134D01*
X019645Y016089D01*
X019825Y016089D02*
X019825Y016044D01*
X019645Y015864D01*
X019825Y015864D01*
X010966Y023147D02*
X010875Y023237D01*
X010921Y023237D02*
X010785Y023237D01*
X010785Y023147D02*
X010785Y023418D01*
X010921Y023418D01*
X010966Y023372D01*
X010966Y023282D01*
X010921Y023237D01*
X010671Y023192D02*
X010671Y023372D01*
X010491Y023192D01*
X010536Y023147D01*
X010626Y023147D01*
X010671Y023192D01*
X010491Y023192D02*
X010491Y023372D01*
X010536Y023418D01*
X010626Y023418D01*
X010671Y023372D01*
X010376Y023147D02*
X010196Y023147D01*
X010286Y023147D02*
X010286Y023418D01*
X010196Y023327D01*
X010196Y024525D02*
X010376Y024525D01*
X010286Y024525D02*
X010286Y024795D01*
X010196Y024705D01*
X010491Y024750D02*
X010536Y024795D01*
X010626Y024795D01*
X010671Y024750D01*
X010491Y024570D01*
X010536Y024525D01*
X010626Y024525D01*
X010671Y024570D01*
X010671Y024750D01*
X010785Y024795D02*
X010785Y024525D01*
X010785Y024615D02*
X010921Y024615D01*
X010966Y024660D01*
X010966Y024750D01*
X010921Y024795D01*
X010785Y024795D01*
X010875Y024615D02*
X010966Y024525D01*
X010491Y024570D02*
X010491Y024750D01*
X010354Y025473D02*
X010354Y025653D01*
X010354Y025563D02*
X010084Y025563D01*
X010174Y025473D01*
X010174Y025768D02*
X010309Y025768D01*
X010354Y025813D01*
X010354Y025948D01*
X010174Y025948D01*
X009764Y025887D02*
X009719Y025842D01*
X009584Y025842D01*
X009584Y026022D02*
X009764Y026022D01*
X009764Y025887D01*
X009764Y025727D02*
X009764Y025547D01*
X009764Y025637D02*
X009494Y025637D01*
X009584Y025547D01*
X009719Y025445D02*
X009764Y025445D01*
X009764Y025400D01*
X009719Y025400D01*
X009719Y025445D01*
X008001Y025168D02*
X007821Y024988D01*
X007866Y024873D02*
X007821Y024828D01*
X007821Y024738D01*
X007866Y024693D01*
X007956Y024693D01*
X008001Y024738D01*
X008001Y024828D01*
X007956Y024873D01*
X007866Y024873D01*
X008001Y024988D02*
X007821Y025168D01*
X008001Y024587D02*
X008001Y024496D01*
X008001Y024542D02*
X007731Y024542D01*
X007731Y024496D01*
X007866Y024382D02*
X007821Y024337D01*
X007821Y024202D01*
X007731Y024202D02*
X008001Y024202D01*
X008001Y024337D01*
X007956Y024382D01*
X007866Y024382D01*
X007821Y024087D02*
X008001Y024087D01*
X008001Y023952D01*
X007956Y023907D01*
X007821Y023907D01*
X006811Y024048D02*
X006541Y024048D01*
X006631Y024138D01*
X006541Y024228D01*
X006811Y024228D01*
X006811Y024342D02*
X006631Y024342D01*
X006541Y024432D01*
X006631Y024522D01*
X006811Y024522D01*
X006811Y024637D02*
X006541Y024817D01*
X006676Y024932D02*
X006676Y025112D01*
X006811Y025226D02*
X006541Y025226D01*
X006631Y025316D01*
X006541Y025406D01*
X006811Y025406D01*
X006766Y025521D02*
X006721Y025521D01*
X006676Y025566D01*
X006676Y025656D01*
X006721Y025701D01*
X006766Y025701D01*
X006811Y025656D01*
X006811Y025566D01*
X006766Y025521D01*
X006676Y025566D02*
X006631Y025521D01*
X006586Y025521D01*
X006541Y025566D01*
X006541Y025656D01*
X006586Y025701D01*
X006631Y025701D01*
X006676Y025656D01*
X006586Y025816D02*
X006766Y025816D01*
X006811Y025861D01*
X006811Y025951D01*
X006766Y025996D01*
X006586Y025996D02*
X006541Y025951D01*
X006541Y025861D01*
X006586Y025816D01*
X006811Y024817D02*
X006541Y024637D01*
X006676Y024522D02*
X006676Y024342D01*
X004180Y023614D02*
X004180Y023344D01*
X004090Y023344D01*
X003975Y023569D02*
X003795Y023389D01*
X003795Y023344D01*
X003681Y023344D02*
X003681Y023614D01*
X003795Y023614D02*
X003975Y023614D01*
X003975Y023569D01*
X004090Y023614D02*
X004180Y023614D01*
X003681Y023344D02*
X003501Y023614D01*
X003501Y023344D01*
X003386Y023389D02*
X003341Y023344D01*
X003251Y023344D01*
X003206Y023389D01*
X003296Y023479D02*
X003341Y023479D01*
X003386Y023434D01*
X003386Y023389D01*
X003341Y023479D02*
X003386Y023524D01*
X003386Y023569D01*
X003341Y023614D01*
X003251Y023614D01*
X003206Y023569D01*
X003092Y023479D02*
X002911Y023479D01*
X003046Y023614D01*
X003046Y023344D01*
X002797Y023389D02*
X002752Y023344D01*
X002662Y023344D01*
X002617Y023389D01*
X002797Y023569D01*
X002797Y023389D01*
X002617Y023389D02*
X002617Y023569D01*
X002662Y023614D01*
X002752Y023614D01*
X002797Y023569D01*
X002502Y023344D02*
X002322Y023344D01*
X002412Y023344D02*
X002412Y023614D01*
X002322Y023524D01*
X002208Y023614D02*
X002208Y023344D01*
X002027Y023344D02*
X002027Y023614D01*
X002118Y023524D01*
X002208Y023614D01*
X001913Y023569D02*
X001868Y023614D01*
X001778Y023614D01*
X001733Y023569D01*
X001733Y023389D01*
X001778Y023344D01*
X001868Y023344D01*
X001913Y023389D01*
X001913Y023479D01*
X001823Y023479D01*
X001618Y023434D02*
X001618Y023389D01*
X001573Y023344D01*
X001438Y023344D01*
X001438Y023614D01*
X001573Y023614D01*
X001618Y023569D01*
X001618Y023524D01*
X001573Y023479D01*
X001438Y023479D01*
X001573Y023479D02*
X001618Y023434D01*
X001332Y023344D02*
X001242Y023344D01*
X001242Y023614D01*
X001332Y023614D01*
X001350Y024624D02*
X001260Y024624D01*
X001215Y024669D01*
X001215Y024714D01*
X001260Y024759D01*
X001350Y024759D01*
X001395Y024714D01*
X001395Y024669D01*
X001350Y024624D01*
X001350Y024759D02*
X001395Y024804D01*
X001395Y024849D01*
X001350Y024894D01*
X001260Y024894D01*
X001215Y024849D01*
X001215Y024804D01*
X001260Y024759D01*
X001510Y024669D02*
X001555Y024669D01*
X001555Y024624D01*
X001510Y024624D01*
X001510Y024669D01*
X001657Y024624D02*
X001837Y024804D01*
X001837Y024849D01*
X001792Y024894D01*
X001702Y024894D01*
X001657Y024849D01*
X001657Y024624D02*
X001837Y024624D01*
X001952Y024624D02*
X001952Y024804D01*
X002087Y024804D01*
X002132Y024759D01*
X002132Y024624D01*
X002247Y024624D02*
X002247Y024894D01*
X002247Y024759D02*
X002427Y024759D01*
X002427Y024894D02*
X002427Y024624D01*
X002739Y025841D02*
X003408Y025841D01*
X003408Y026747D01*
X002739Y026747D01*
X002739Y025841D01*
X004277Y027237D02*
X004367Y027146D01*
X004277Y027237D02*
X004547Y027237D01*
X004547Y027327D02*
X004547Y027146D01*
X004502Y027441D02*
X004367Y027441D01*
X004502Y027441D02*
X004547Y027486D01*
X004547Y027621D01*
X004367Y027621D01*
X005865Y027461D02*
X005955Y027551D01*
X005955Y027281D01*
X005865Y027281D02*
X006046Y027281D01*
X006160Y027326D02*
X006340Y027506D01*
X006340Y027326D01*
X006295Y027281D01*
X006205Y027281D01*
X006160Y027326D01*
X006160Y027506D01*
X006205Y027551D01*
X006295Y027551D01*
X006340Y027506D01*
X006455Y027551D02*
X006455Y027281D01*
X006455Y027371D02*
X006590Y027371D01*
X006635Y027416D01*
X006635Y027506D01*
X006590Y027551D01*
X006455Y027551D01*
X006545Y027371D02*
X006635Y027281D01*
X002033Y027576D02*
X002033Y027847D01*
X002033Y027712D02*
X001853Y027712D01*
X001738Y027712D02*
X001738Y027576D01*
X001853Y027576D02*
X001853Y027847D01*
X001738Y027712D02*
X001693Y027757D01*
X001558Y027757D01*
X001558Y027576D01*
X001444Y027576D02*
X001264Y027576D01*
X001354Y027576D02*
X001354Y027847D01*
X001264Y027757D01*
X001161Y027621D02*
X001161Y027576D01*
X001116Y027576D01*
X001116Y027621D01*
X001161Y027621D01*
X001002Y027621D02*
X001002Y027802D01*
X000957Y027847D01*
X000867Y027847D01*
X000822Y027802D01*
X000822Y027757D01*
X000867Y027712D01*
X001002Y027712D01*
X001002Y027621D02*
X000957Y027576D01*
X000867Y027576D01*
X000822Y027621D01*
X015749Y000977D02*
X015749Y000706D01*
X015659Y000706D02*
X015839Y000706D01*
X015954Y000751D02*
X015999Y000706D01*
X016089Y000706D01*
X016134Y000751D01*
X016134Y000841D01*
X016089Y000886D01*
X016044Y000886D01*
X015954Y000841D01*
X015954Y000977D01*
X016134Y000977D01*
X016248Y000932D02*
X016293Y000977D01*
X016383Y000977D01*
X016428Y000932D01*
X016248Y000751D01*
X016293Y000706D01*
X016383Y000706D01*
X016428Y000751D01*
X016428Y000932D01*
X016543Y000977D02*
X016543Y000706D01*
X016543Y000796D02*
X016678Y000796D01*
X016723Y000841D01*
X016723Y000932D01*
X016678Y000977D01*
X016543Y000977D01*
X016633Y000796D02*
X016723Y000706D01*
X016248Y000751D02*
X016248Y000932D01*
X015749Y000977D02*
X015659Y000886D01*
X021524Y001266D02*
X021674Y001266D01*
X022424Y001266D02*
X022674Y001266D01*
X023174Y001266D02*
X023424Y001266D01*
X034606Y013698D02*
X034786Y013698D01*
X034696Y013698D02*
X034696Y013969D01*
X034606Y013879D01*
X034900Y013924D02*
X034900Y013744D01*
X035080Y013924D01*
X035080Y013744D01*
X035035Y013698D01*
X034945Y013698D01*
X034900Y013744D01*
X034900Y013924D02*
X034945Y013969D01*
X035035Y013969D01*
X035080Y013924D01*
X035195Y013879D02*
X035195Y013744D01*
X035240Y013698D01*
X035375Y013698D01*
X035375Y013879D01*
X034416Y015372D02*
X034416Y015552D01*
X034416Y015372D02*
X034280Y015372D01*
X034235Y015417D01*
X034235Y015552D01*
X034121Y015372D02*
X033941Y015372D01*
X034031Y015372D02*
X034031Y015642D01*
X033941Y015552D01*
X033838Y015417D02*
X033838Y015372D01*
X033793Y015372D01*
X033793Y015417D01*
X033838Y015417D01*
X033859Y015962D02*
X033859Y016232D01*
X033769Y016142D01*
X033769Y015962D02*
X033949Y015962D01*
X034063Y016007D02*
X034108Y015962D01*
X034243Y015962D01*
X034243Y016142D01*
X034063Y016142D02*
X034063Y016007D01*
X034031Y016553D02*
X034031Y016823D01*
X033941Y016733D01*
X033838Y016598D02*
X033838Y016553D01*
X033793Y016553D01*
X033793Y016598D01*
X033838Y016598D01*
X033941Y016553D02*
X034121Y016553D01*
X034235Y016598D02*
X034280Y016553D01*
X034416Y016553D01*
X034416Y016733D01*
X034235Y016733D02*
X034235Y016598D01*
X034243Y017143D02*
X034108Y017143D01*
X034063Y017188D01*
X034063Y017324D01*
X034243Y017324D02*
X034243Y017143D01*
X033949Y017143D02*
X033769Y017143D01*
X033859Y017143D02*
X033859Y017414D01*
X033769Y017324D01*
D17*
X023900Y002711D02*
X023900Y002121D01*
X023605Y002416D02*
X024196Y002416D01*
D18*
X023042Y000983D02*
X022722Y000503D01*
X022527Y000583D02*
X022527Y000983D01*
X022722Y000983D02*
X023042Y000503D01*
X022527Y000583D02*
X022446Y000503D01*
X022286Y000503D01*
X022206Y000583D01*
X022206Y000983D01*
X022011Y000823D02*
X022011Y000503D01*
X022011Y000743D02*
X021691Y000743D01*
X021691Y000823D02*
X021851Y000983D01*
X022011Y000823D01*
X021691Y000823D02*
X021691Y000503D01*
X020347Y003637D02*
X020349Y003660D01*
X020354Y003684D01*
X020362Y003706D01*
X020374Y003727D01*
X020388Y003746D01*
X020405Y003763D01*
X020424Y003777D01*
X020445Y003789D01*
X020467Y003797D01*
X020491Y003802D01*
X020514Y003804D01*
X020515Y003804D02*
X020515Y004365D01*
X020515Y005192D01*
X020515Y005753D01*
X020514Y005753D02*
X020491Y005755D01*
X020467Y005760D01*
X020445Y005768D01*
X020424Y005780D01*
X020405Y005794D01*
X020388Y005811D01*
X020374Y005830D01*
X020362Y005851D01*
X020354Y005873D01*
X020349Y005897D01*
X020347Y005920D01*
X019983Y005920D01*
X019747Y005920D01*
X019383Y005920D01*
X019381Y005897D01*
X019376Y005873D01*
X019368Y005851D01*
X019356Y005830D01*
X019342Y005811D01*
X019325Y005794D01*
X019306Y005780D01*
X019285Y005768D01*
X019263Y005760D01*
X019239Y005755D01*
X019216Y005753D01*
X019215Y005753D02*
X019215Y005192D01*
X019215Y004365D01*
X019215Y003804D01*
X019216Y003804D02*
X019239Y003802D01*
X019263Y003797D01*
X019285Y003789D01*
X019306Y003777D01*
X019325Y003763D01*
X019342Y003746D01*
X019356Y003727D01*
X019368Y003706D01*
X019376Y003684D01*
X019381Y003660D01*
X019383Y003637D01*
X019747Y003637D01*
X019983Y003637D01*
X020347Y003637D01*
X022298Y005723D02*
X022298Y012022D01*
X028597Y012022D01*
X028597Y005723D01*
X022298Y005723D01*
X023400Y006723D02*
X023400Y007692D01*
X024160Y007692D01*
X024160Y006723D01*
X023400Y006723D01*
X025554Y006463D02*
X025554Y008341D01*
X027432Y008341D01*
X027432Y006463D01*
X025554Y006463D01*
X021251Y010440D02*
X021133Y010440D01*
X018849Y010440D01*
X018731Y010440D01*
X018731Y012959D01*
X021251Y012959D02*
X021251Y010440D01*
X022047Y012708D02*
X022047Y013188D01*
X022287Y013188D01*
X022367Y013108D01*
X022367Y012948D01*
X022287Y012868D01*
X022047Y012868D01*
X022207Y012868D02*
X022367Y012708D01*
X022563Y012708D02*
X022563Y013188D01*
X022883Y013188D01*
X022723Y012948D02*
X022563Y012948D01*
X031044Y011426D02*
X031044Y010926D01*
X031176Y010926D02*
X031176Y011426D01*
X031426Y011676D01*
X032926Y011676D01*
X033176Y011426D01*
X033176Y010926D01*
X032926Y010676D01*
X031426Y010676D01*
X031176Y010426D01*
X031176Y009926D01*
X031426Y009676D01*
X032926Y009676D01*
X033176Y009426D01*
X033176Y008926D01*
X032926Y008676D01*
X031426Y008676D01*
X031176Y008926D01*
X031176Y009426D01*
X031426Y009676D01*
X032926Y009676D02*
X033176Y009926D01*
X033176Y010426D01*
X032926Y010676D01*
X033699Y010760D02*
X033699Y011000D01*
X033780Y011080D01*
X033940Y011080D01*
X034020Y011000D01*
X034020Y010760D01*
X034180Y010760D02*
X033699Y010760D01*
X033780Y010564D02*
X033699Y010484D01*
X033699Y010324D01*
X033780Y010244D01*
X033860Y010244D01*
X033940Y010324D01*
X033940Y010484D01*
X034020Y010564D01*
X034100Y010564D01*
X034180Y010484D01*
X034180Y010324D01*
X034100Y010244D01*
X034100Y010049D02*
X034180Y009969D01*
X034180Y009809D01*
X034100Y009729D01*
X033780Y009729D01*
X033699Y009809D01*
X033699Y009969D01*
X033780Y010049D01*
X033699Y009545D02*
X033699Y009385D01*
X033699Y009465D02*
X034180Y009465D01*
X034180Y009385D02*
X034180Y009545D01*
X031426Y010676D02*
X031176Y010926D01*
X033306Y006807D02*
X033786Y006487D01*
X033706Y006292D02*
X033306Y006292D01*
X033306Y006487D02*
X033786Y006807D01*
X033706Y006292D02*
X033786Y006212D01*
X033786Y006052D01*
X033706Y005972D01*
X033306Y005972D01*
X033466Y005776D02*
X033306Y005616D01*
X033466Y005456D01*
X033786Y005456D01*
X033546Y005456D02*
X033546Y005776D01*
X033466Y005776D02*
X033786Y005776D01*
X033786Y004745D02*
X033786Y004425D01*
X033306Y004425D01*
X033306Y004745D01*
X033546Y004585D02*
X033546Y004425D01*
X033786Y004229D02*
X033786Y003909D01*
X033306Y003909D01*
X033386Y003714D02*
X033306Y003634D01*
X033306Y003393D01*
X033786Y003393D01*
X033786Y003634D01*
X033706Y003714D01*
X033626Y003714D01*
X033546Y003634D01*
X033546Y003393D01*
X033546Y003198D02*
X033546Y002878D01*
X033466Y002878D02*
X033306Y003038D01*
X033466Y003198D01*
X033786Y003198D01*
X033932Y003068D02*
X033932Y003568D01*
X034182Y003818D01*
X034682Y003818D01*
X034932Y003568D01*
X034932Y003068D01*
X034682Y002818D01*
X034932Y002568D01*
X034932Y002068D01*
X034682Y001818D01*
X034182Y001818D01*
X033932Y002068D01*
X033932Y002568D01*
X034182Y002818D01*
X033932Y003068D01*
X033786Y002878D02*
X033466Y002878D01*
X033306Y002682D02*
X033786Y002682D01*
X033306Y002362D01*
X033786Y002362D01*
X033786Y002167D02*
X033786Y001846D01*
X033306Y001846D01*
X033306Y002167D01*
X033546Y002007D02*
X033546Y001846D01*
X033546Y003634D02*
X033466Y003714D01*
X033386Y003714D01*
D19*
X027405Y021835D02*
X027405Y022322D01*
X027162Y022565D01*
X026918Y022322D01*
X026918Y021835D01*
X026613Y021835D02*
X026613Y022322D01*
X026370Y022565D01*
X026126Y022322D01*
X026126Y021835D01*
X026126Y022200D02*
X026613Y022200D01*
X026918Y022200D02*
X027405Y022200D01*
X027405Y028626D02*
X027405Y029113D01*
X027162Y029357D01*
X026918Y029113D01*
X026918Y028626D01*
X026613Y028626D02*
X026613Y029113D01*
X026370Y029357D01*
X026126Y029113D01*
X026126Y028626D01*
X026126Y028991D02*
X026613Y028991D01*
X026918Y028991D02*
X027405Y028991D01*
D20*
X019373Y001776D03*
D21*
X002885Y029694D03*
D22*
X004873Y027054D02*
X004873Y026995D01*
X004873Y027054D02*
X008692Y027054D01*
X008692Y026995D01*
X008692Y023176D02*
X008692Y023078D01*
X004873Y023078D01*
X004873Y023176D01*
D23*
X007826Y023550D03*
D24*
X010049Y026489D02*
X010049Y026769D01*
X010384Y026769D02*
X010384Y026489D01*
X004085Y027079D02*
X004085Y027359D01*
X003750Y027359D02*
X003750Y027079D01*
X002686Y027007D02*
X002005Y027007D01*
X002005Y027437D02*
X002686Y027437D01*
X002399Y025463D02*
X003079Y025463D01*
X003079Y025033D02*
X002399Y025033D01*
X020512Y007896D02*
X020793Y007896D01*
X020793Y007561D02*
X020512Y007561D01*
X017030Y004956D02*
X017030Y004207D01*
X016893Y004020D02*
X016895Y004032D01*
X016900Y004043D01*
X016909Y004052D01*
X016920Y004057D01*
X016932Y004059D01*
X016944Y004057D01*
X016955Y004052D01*
X016964Y004043D01*
X016969Y004032D01*
X016971Y004020D01*
X016969Y004008D01*
X016964Y003997D01*
X016955Y003988D01*
X016944Y003983D01*
X016932Y003981D01*
X016920Y003983D01*
X016909Y003988D01*
X016900Y003997D01*
X016895Y004008D01*
X016893Y004020D01*
X016873Y003951D02*
X016869Y003975D01*
X016863Y003997D01*
X016852Y004019D01*
X016839Y004039D01*
X016823Y004056D01*
X016805Y004071D01*
X016784Y004083D01*
X016762Y004092D01*
X016739Y004097D01*
X016715Y004099D01*
X016691Y004097D01*
X016668Y004092D01*
X016646Y004083D01*
X016625Y004071D01*
X016607Y004056D01*
X016591Y004039D01*
X016578Y004019D01*
X016567Y003997D01*
X016561Y003975D01*
X016557Y003951D01*
X016400Y004207D02*
X016400Y004956D01*
X013881Y004956D02*
X013881Y004207D01*
X013743Y004020D02*
X013745Y004032D01*
X013750Y004043D01*
X013759Y004052D01*
X013770Y004057D01*
X013782Y004059D01*
X013794Y004057D01*
X013805Y004052D01*
X013814Y004043D01*
X013819Y004032D01*
X013821Y004020D01*
X013819Y004008D01*
X013814Y003997D01*
X013805Y003988D01*
X013794Y003983D01*
X013782Y003981D01*
X013770Y003983D01*
X013759Y003988D01*
X013750Y003997D01*
X013745Y004008D01*
X013743Y004020D01*
X013724Y003951D02*
X013720Y003975D01*
X013714Y003997D01*
X013703Y004019D01*
X013690Y004039D01*
X013674Y004056D01*
X013656Y004071D01*
X013635Y004083D01*
X013613Y004092D01*
X013590Y004097D01*
X013566Y004099D01*
X013542Y004097D01*
X013519Y004092D01*
X013497Y004083D01*
X013476Y004071D01*
X013458Y004056D01*
X013442Y004039D01*
X013429Y004019D01*
X013418Y003997D01*
X013412Y003975D01*
X013408Y003951D01*
X013251Y004207D02*
X013251Y004956D01*
X010731Y004956D02*
X010731Y004207D01*
X010594Y004020D02*
X010596Y004032D01*
X010601Y004043D01*
X010610Y004052D01*
X010621Y004057D01*
X010633Y004059D01*
X010645Y004057D01*
X010656Y004052D01*
X010665Y004043D01*
X010670Y004032D01*
X010672Y004020D01*
X010670Y004008D01*
X010665Y003997D01*
X010656Y003988D01*
X010645Y003983D01*
X010633Y003981D01*
X010621Y003983D01*
X010610Y003988D01*
X010601Y003997D01*
X010596Y004008D01*
X010594Y004020D01*
X010574Y003951D02*
X010570Y003975D01*
X010564Y003997D01*
X010553Y004019D01*
X010540Y004039D01*
X010524Y004056D01*
X010506Y004071D01*
X010485Y004083D01*
X010463Y004092D01*
X010440Y004097D01*
X010416Y004099D01*
X010392Y004097D01*
X010369Y004092D01*
X010347Y004083D01*
X010326Y004071D01*
X010308Y004056D01*
X010292Y004039D01*
X010279Y004019D01*
X010268Y003997D01*
X010262Y003975D01*
X010258Y003951D01*
X010101Y004207D02*
X010101Y004956D01*
X007582Y004956D02*
X007582Y004207D01*
X007444Y004020D02*
X007446Y004032D01*
X007451Y004043D01*
X007460Y004052D01*
X007471Y004057D01*
X007483Y004059D01*
X007495Y004057D01*
X007506Y004052D01*
X007515Y004043D01*
X007520Y004032D01*
X007522Y004020D01*
X007520Y004008D01*
X007515Y003997D01*
X007506Y003988D01*
X007495Y003983D01*
X007483Y003981D01*
X007471Y003983D01*
X007460Y003988D01*
X007451Y003997D01*
X007446Y004008D01*
X007444Y004020D01*
X007425Y003951D02*
X007421Y003975D01*
X007415Y003997D01*
X007404Y004019D01*
X007391Y004039D01*
X007375Y004056D01*
X007357Y004071D01*
X007336Y004083D01*
X007314Y004092D01*
X007291Y004097D01*
X007267Y004099D01*
X007243Y004097D01*
X007220Y004092D01*
X007198Y004083D01*
X007177Y004071D01*
X007159Y004056D01*
X007143Y004039D01*
X007130Y004019D01*
X007119Y003997D01*
X007113Y003975D01*
X007109Y003951D01*
X006952Y004207D02*
X006952Y004956D01*
X024592Y002796D02*
X024592Y002036D01*
X025572Y002036D02*
X025572Y002796D01*
X025901Y002556D02*
X025901Y002276D01*
X026236Y002276D02*
X026236Y002556D01*
X028627Y004201D02*
X028627Y004961D01*
X029607Y004961D02*
X029607Y004201D01*
X027811Y004638D02*
X027811Y004919D01*
X027476Y004919D02*
X027476Y004638D01*
X034544Y014131D02*
X035304Y014131D01*
X035304Y015111D02*
X034544Y015111D01*
X034784Y015932D02*
X035064Y015932D01*
X035064Y016267D02*
X034784Y016267D01*
X034784Y017113D02*
X035064Y017113D01*
X035064Y017448D02*
X034784Y017448D01*
D25*
X016952Y003956D03*
X013802Y003956D03*
X010652Y003956D03*
X007503Y003956D03*
D26*
X007557Y004035D03*
X010707Y004035D03*
X013856Y004035D03*
X017006Y004035D03*
D27*
X016868Y004055D03*
X013718Y004055D03*
X010569Y004055D03*
X007419Y004055D03*
D28*
X007439Y004075D03*
X010588Y004075D03*
X013738Y004075D03*
X016888Y004075D03*
D29*
X016479Y004001D03*
X013330Y004001D03*
X010180Y004001D03*
X007030Y004001D03*
D30*
X007050Y004075D03*
X010200Y004075D03*
X013349Y004075D03*
X016499Y004075D03*
D31*
X016715Y004148D03*
X013566Y004148D03*
X010416Y004148D03*
X007267Y004148D03*
D32*
X007267Y005093D03*
X010416Y005093D03*
X013566Y005093D03*
X016715Y005093D03*
D33*
X016445Y004360D03*
X016986Y004360D03*
X013836Y004360D03*
X013295Y004360D03*
X010687Y004360D03*
X010146Y004360D03*
X007537Y004360D03*
X006996Y004360D03*
D34*
X007267Y004513D03*
X010416Y004513D03*
X013566Y004513D03*
X016715Y004513D03*
D35*
X026654Y002575D03*
X026654Y002255D03*
X032662Y001593D03*
X032662Y001273D03*
X029312Y015247D03*
X029312Y015567D03*
X028528Y015569D03*
X028528Y015249D03*
X028528Y016824D03*
X028528Y017144D03*
X029312Y017142D03*
X029312Y016822D03*
X023013Y015764D03*
X023013Y015444D03*
X009631Y026470D03*
X009631Y026790D03*
D36*
X010454Y024265D03*
X010774Y024265D03*
X010774Y023674D03*
X010454Y023674D03*
X005457Y027418D03*
X005137Y027418D03*
X019901Y016394D03*
X020221Y016394D03*
X022066Y016887D03*
X022386Y016887D03*
X022386Y017379D03*
X022066Y017379D03*
X022066Y017871D03*
X022386Y017871D03*
X020221Y014229D03*
X019901Y014229D03*
X020491Y008324D03*
X020811Y008324D03*
X024625Y005174D03*
X024945Y005174D03*
X027381Y001532D03*
X027701Y001532D03*
X027775Y001040D03*
X028095Y001040D03*
X029054Y001040D03*
X029374Y001040D03*
X030336Y001036D03*
X030656Y001036D03*
X031615Y001036D03*
X031935Y001036D03*
X033682Y000938D03*
X034002Y000938D03*
X016382Y001237D03*
X016062Y001237D03*
X034765Y015505D03*
X035085Y015505D03*
X035085Y016686D03*
X034765Y016686D03*
D37*
X003128Y025247D03*
X002348Y025247D03*
X002736Y027223D03*
X001956Y027223D03*
D38*
X003918Y027448D03*
X003918Y026988D03*
X010217Y026857D03*
X010217Y026397D03*
X027643Y005010D03*
X027643Y004550D03*
X026068Y002648D03*
X026068Y002188D03*
D39*
X020884Y007729D03*
X020424Y007729D03*
X034693Y016099D03*
X035153Y016099D03*
X035153Y017280D03*
X034693Y017280D03*
D40*
X029119Y005104D03*
X029115Y004059D03*
X025083Y002938D03*
X025080Y001894D03*
D41*
X029755Y021200D02*
X029755Y023200D01*
X028755Y022200D02*
X030755Y022200D01*
X023755Y027991D02*
X023755Y029991D01*
X024755Y028991D02*
X022755Y028991D01*
D42*
X031676Y011176D03*
X031676Y010176D03*
X031676Y009176D03*
X032676Y009176D03*
X032676Y010176D03*
X032676Y011176D03*
X034432Y003318D03*
X034432Y002318D03*
X022924Y002416D03*
X021924Y002416D03*
D43*
X029349Y002608D03*
D44*
X027310Y002613D03*
D45*
X027887Y002613D03*
D46*
X027887Y003204D03*
X027887Y002022D03*
D47*
X034402Y014623D03*
X035446Y014619D03*
D48*
X019786Y005585D03*
M02*
