solid OpenSCAD_Model
  facet normal -1 0 0
    outer loop
      vertex 0 28.25 5.9
      vertex 0 29.5 0.95
      vertex 0 28.25 0.95
    endloop
  endfacet
  facet normal -1 0 0
    outer loop
      vertex 0 0 0
      vertex 0 0 2.9
      vertex 0 23 0.95
    endloop
  endfacet
  facet normal -1 0 0
    outer loop
      vertex 0 0 0
      vertex 0 23 0.95
      vertex 0 35.4 0
    endloop
  endfacet
  facet normal -1 0 0
    outer loop
      vertex 0 31.5 5.9
      vertex 0 35.4 0
      vertex 0 31.5 0.95
    endloop
  endfacet
  facet normal -1 0 0
    outer loop
      vertex 0 25 5.9
      vertex 0 26.25 0.95
      vertex 0 25 0.95
    endloop
  endfacet
  facet normal -1 0 0
    outer loop
      vertex 0 26.25 0.95
      vertex 0 25 5.9
      vertex 0 26.25 5.9
    endloop
  endfacet
  facet normal -1 0 0
    outer loop
      vertex 0 35.4 0
      vertex 0 25 0.95
      vertex 0 26.25 0.95
    endloop
  endfacet
  facet normal -1 0 0
    outer loop
      vertex 0 35.4 0
      vertex 0 26.25 0.95
      vertex 0 28.25 0.95
    endloop
  endfacet
  facet normal -1 0 0
    outer loop
      vertex 0 29.5 0.95
      vertex 0 28.25 5.9
      vertex 0 29.5 5.9
    endloop
  endfacet
  facet normal -1 0 0
    outer loop
      vertex 0 35.4 0
      vertex 0 28.25 0.95
      vertex 0 29.5 0.95
    endloop
  endfacet
  facet normal -1 0 0
    outer loop
      vertex 0 35.4 2.9
      vertex 0 35.4 0
      vertex 0 34.4 2.9
    endloop
  endfacet
  facet normal -1 0 0
    outer loop
      vertex 0 34.4 2.9
      vertex 0 31.5 5.9
      vertex 0 34.4 5.9
    endloop
  endfacet
  facet normal -1 0 0
    outer loop
      vertex 0 35.4 0
      vertex 0 31.5 5.9
      vertex 0 34.4 2.9
    endloop
  endfacet
  facet normal -1 0 0
    outer loop
      vertex 0 23 0.95
      vertex 0 0 2.9
      vertex 0 2 2.9
    endloop
  endfacet
  facet normal -1 0 0
    outer loop
      vertex 0 23 0.95
      vertex 0 2 2.9
      vertex 0 2 5.9
    endloop
  endfacet
  facet normal -1 0 0
    outer loop
      vertex 0 23 0.95
      vertex 0 2 5.9
      vertex 0 23 5.9
    endloop
  endfacet
  facet normal -1 0 0
    outer loop
      vertex 0 31.5 0.95
      vertex 0 35.4 0
      vertex 0 29.5 0.95
    endloop
  endfacet
  facet normal -1 0 0
    outer loop
      vertex 0 25 0.95
      vertex 0 35.4 0
      vertex 0 23 0.95
    endloop
  endfacet
  facet normal 0 -1 0
    outer loop
      vertex 0 0 2.9
      vertex 0 0 0
      vertex 40.3 0 0
    endloop
  endfacet
  facet normal 0 -1 0
    outer loop
      vertex 2 0 2.9
      vertex 0 0 2.9
      vertex 40.3 0 0
    endloop
  endfacet
  facet normal 0 -1 0
    outer loop
      vertex 40.3 0 5.9
      vertex 2 0 2.9
      vertex 40.3 0 0
    endloop
  endfacet
  facet normal 0 -1 0
    outer loop
      vertex 2 0 5.9
      vertex 2 0 2.9
      vertex 40.3 0 5.9
    endloop
  endfacet
  facet normal 0 0 -1
    outer loop
      vertex 0 0 0
      vertex 0 35.4 0
      vertex 40.3 0 0
    endloop
  endfacet
  facet normal 0 0 -1
    outer loop
      vertex 40.3 0 0
      vertex 0 35.4 0
      vertex 40.3 35.4 0
    endloop
  endfacet
  facet normal 0 1 0
    outer loop
      vertex 0 35.4 0
      vertex 0 35.4 2.9
      vertex 40.3 35.4 0
    endloop
  endfacet
  facet normal 0 1 0
    outer loop
      vertex 40.3 35.4 0
      vertex 0 35.4 2.9
      vertex 2 35.4 2.9
    endloop
  endfacet
  facet normal 0 1 0
    outer loop
      vertex 40.3 35.4 0
      vertex 2 35.4 2.9
      vertex 2 35.4 5.9
    endloop
  endfacet
  facet normal 0 1 0
    outer loop
      vertex 40.3 35.4 0
      vertex 2 35.4 5.9
      vertex 40.3 35.4 5.9
    endloop
  endfacet
  facet normal 0 0 1
    outer loop
      vertex 2 34.4 2.9
      vertex 2 35.4 2.9
      vertex 0 35.4 2.9
    endloop
  endfacet
  facet normal 0 0 1
    outer loop
      vertex 0 34.4 2.9
      vertex 2 34.4 2.9
      vertex 0 35.4 2.9
    endloop
  endfacet
  facet normal 0 1 0
    outer loop
      vertex 2 34.4 5.9
      vertex 2 34.4 2.9
      vertex 0 34.4 5.9
    endloop
  endfacet
  facet normal 0 1 0
    outer loop
      vertex 0 34.4 5.9
      vertex 2 34.4 2.9
      vertex 0 34.4 2.9
    endloop
  endfacet
  facet normal 0 0 1
    outer loop
      vertex 0 34.4 5.9
      vertex 0 31.5 5.9
      vertex 5 31.5 5.9
    endloop
  endfacet
  facet normal 0 0 1
    outer loop
      vertex 29 31.25 5.9
      vertex 0 34.4 5.9
      vertex 5 31.5 5.9
    endloop
  endfacet
  facet normal 0 0 1
    outer loop
      vertex 5 31.25 5.9
      vertex 29 31.25 5.9
      vertex 5 31.5 5.9
    endloop
  endfacet
  facet normal 0 0 1
    outer loop
      vertex 29 21.25 5.9
      vertex 40.3 21.25 5.9
      vertex 29 31.25 5.9
    endloop
  endfacet
  facet normal 0 0 1
    outer loop
      vertex 40.3 21.25 5.9
      vertex 40.3 35.4 5.9
      vertex 29 31.25 5.9
    endloop
  endfacet
  facet normal 0 0 1
    outer loop
      vertex 29 31.25 5.9
      vertex 2 34.4 5.9
      vertex 0 34.4 5.9
    endloop
  endfacet
  facet normal 0 0 1
    outer loop
      vertex 29 31.25 5.9
      vertex 40.3 35.4 5.9
      vertex 2 34.4 5.9
    endloop
  endfacet
  facet normal 0 0 1
    outer loop
      vertex 2 35.4 5.9
      vertex 2 34.4 5.9
      vertex 40.3 35.4 5.9
    endloop
  endfacet
  facet normal 0 -1 0
    outer loop
      vertex 5 31.5 5.9
      vertex 1 31.5 4.9
      vertex 5 31.5 4.9
    endloop
  endfacet
  facet normal 0 -1 0
    outer loop
      vertex 0 31.5 5.9
      vertex 1 31.5 4.9
      vertex 5 31.5 5.9
    endloop
  endfacet
  facet normal 0 -1 0
    outer loop
      vertex 1 31.5 0.95
      vertex 1 31.5 4.9
      vertex 0 31.5 5.9
    endloop
  endfacet
  facet normal 0 -1 0
    outer loop
      vertex 0 31.5 0.95
      vertex 1 31.5 0.95
      vertex 0 31.5 5.9
    endloop
  endfacet
  facet normal 0 0 1
    outer loop
      vertex 1 29.5 0.95
      vertex 1 31.5 0.95
      vertex 0 31.5 0.95
    endloop
  endfacet
  facet normal 0 0 1
    outer loop
      vertex 0 29.5 0.95
      vertex 1 29.5 0.95
      vertex 0 31.5 0.95
    endloop
  endfacet
  facet normal 0 1 0
    outer loop
      vertex 5 29.5 5.9
      vertex 5 29.5 4.9
      vertex 0 29.5 5.9
    endloop
  endfacet
  facet normal 0 1 0
    outer loop
      vertex 0 29.5 5.9
      vertex 5 29.5 4.9
      vertex 1 29.5 4.9
    endloop
  endfacet
  facet normal 0 1 0
    outer loop
      vertex 0 29.5 5.9
      vertex 1 29.5 4.9
      vertex 1 29.5 0.95
    endloop
  endfacet
  facet normal 0 1 0
    outer loop
      vertex 0 29.5 5.9
      vertex 1 29.5 0.95
      vertex 0 29.5 0.95
    endloop
  endfacet
  facet normal 0 0 1
    outer loop
      vertex 0 26.25 5.9
      vertex 0 25 5.9
      vertex 5 25 5.9
    endloop
  endfacet
  facet normal 0 0 1
    outer loop
      vertex 19 24.75 5.9
      vertex 0 26.25 5.9
      vertex 5 25 5.9
    endloop
  endfacet
  facet normal 0 0 1
    outer loop
      vertex 5 24.75 5.9
      vertex 19 24.75 5.9
      vertex 5 25 5.9
    endloop
  endfacet
  facet normal 0 0 1
    outer loop
      vertex 20.5 17.75 5.9
      vertex 27.5 16.25 5.9
      vertex 19 24.75 5.9
    endloop
  endfacet
  facet normal 0 0 1
    outer loop
      vertex 19 17.75 5.9
      vertex 20.5 17.75 5.9
      vertex 19 24.75 5.9
    endloop
  endfacet
  facet normal 0 0 1
    outer loop
      vertex 20.5 16.25 5.9
      vertex 27.5 16.25 5.9
      vertex 20.5 17.75 5.9
    endloop
  endfacet
  facet normal 0 0 1
    outer loop
      vertex 27.5 16.25 5.9
      vertex 27.5 28.25 5.9
      vertex 19 24.75 5.9
    endloop
  endfacet
  facet normal 0 0 1
    outer loop
      vertex 26 28.25 5.9
      vertex 1 26.25 5.9
      vertex 27.5 28.25 5.9
    endloop
  endfacet
  facet normal 0 0 1
    outer loop
      vertex 26 29.75 5.9
      vertex 5 29.75 5.9
      vertex 5 29.5 5.9
    endloop
  endfacet
  facet normal 0 0 1
    outer loop
      vertex 1 28.25 5.9
      vertex 26 28.25 5.9
      vertex 26 29.75 5.9
    endloop
  endfacet
  facet normal 0 0 1
    outer loop
      vertex 1 28.25 5.9
      vertex 26 29.75 5.9
      vertex 5 29.5 5.9
    endloop
  endfacet
  facet normal 0 0 1
    outer loop
      vertex 19 24.75 5.9
      vertex 1 26.25 5.9
      vertex 0 26.25 5.9
    endloop
  endfacet
  facet normal 0 0 1
    outer loop
      vertex 19 24.75 5.9
      vertex 27.5 28.25 5.9
      vertex 1 26.25 5.9
    endloop
  endfacet
  facet normal 0 0 1
    outer loop
      vertex 5 29.5 5.9
      vertex 0 28.25 5.9
      vertex 1 28.25 5.9
    endloop
  endfacet
  facet normal 0 0 1
    outer loop
      vertex 5 29.5 5.9
      vertex 0 29.5 5.9
      vertex 0 28.25 5.9
    endloop
  endfacet
  facet normal 0 0 1
    outer loop
      vertex 1 28.25 5.9
      vertex 1 26.25 5.9
      vertex 26 28.25 5.9
    endloop
  endfacet
  facet normal 0 -1 0
    outer loop
      vertex 1 28.25 0.95
      vertex 1 28.25 5.9
      vertex 0 28.25 5.9
    endloop
  endfacet
  facet normal 0 -1 0
    outer loop
      vertex 0 28.25 0.95
      vertex 1 28.25 0.95
      vertex 0 28.25 5.9
    endloop
  endfacet
  facet normal 0 0 1
    outer loop
      vertex 1 26.25 0.95
      vertex 1 28.25 0.95
      vertex 0 28.25 0.95
    endloop
  endfacet
  facet normal 0 0 1
    outer loop
      vertex 0 26.25 0.95
      vertex 1 26.25 0.95
      vertex 0 28.25 0.95
    endloop
  endfacet
  facet normal 0 1 0
    outer loop
      vertex 1 26.25 5.9
      vertex 1 26.25 0.95
      vertex 0 26.25 5.9
    endloop
  endfacet
  facet normal 0 1 0
    outer loop
      vertex 0 26.25 5.9
      vertex 1 26.25 0.95
      vertex 0 26.25 0.95
    endloop
  endfacet
  facet normal 0 -1 0
    outer loop
      vertex 5 25 5.9
      vertex 1 25 4.9
      vertex 5 25 4.9
    endloop
  endfacet
  facet normal 0 -1 0
    outer loop
      vertex 0 25 5.9
      vertex 1 25 4.9
      vertex 5 25 5.9
    endloop
  endfacet
  facet normal 0 -1 0
    outer loop
      vertex 1 25 0.95
      vertex 1 25 4.9
      vertex 0 25 5.9
    endloop
  endfacet
  facet normal 0 -1 0
    outer loop
      vertex 0 25 0.95
      vertex 1 25 0.95
      vertex 0 25 5.9
    endloop
  endfacet
  facet normal 0 0 1
    outer loop
      vertex 1 23 0.95
      vertex 1 25 0.95
      vertex 0 25 0.95
    endloop
  endfacet
  facet normal 0 0 1
    outer loop
      vertex 0 23 0.95
      vertex 1 23 0.95
      vertex 0 25 0.95
    endloop
  endfacet
  facet normal 0 1 0
    outer loop
      vertex 5 23 5.9
      vertex 5 23 4.9
      vertex 0 23 5.9
    endloop
  endfacet
  facet normal 0 1 0
    outer loop
      vertex 0 23 5.9
      vertex 5 23 4.9
      vertex 1 23 4.9
    endloop
  endfacet
  facet normal 0 1 0
    outer loop
      vertex 0 23 5.9
      vertex 1 23 4.9
      vertex 1 23 0.95
    endloop
  endfacet
  facet normal 0 1 0
    outer loop
      vertex 0 23 5.9
      vertex 1 23 0.95
      vertex 0 23 0.95
    endloop
  endfacet
  facet normal 0 0 1
    outer loop
      vertex 0 23 5.9
      vertex 0 2 5.9
      vertex 2 2 5.9
    endloop
  endfacet
  facet normal 0 0 1
    outer loop
      vertex 40.3 0 5.9
      vertex 0 23 5.9
      vertex 2 2 5.9
    endloop
  endfacet
  facet normal 0 0 1
    outer loop
      vertex 2 0 5.9
      vertex 40.3 0 5.9
      vertex 2 2 5.9
    endloop
  endfacet
  facet normal 0 0 1
    outer loop
      vertex 16 21.75 5.9
      vertex 16 23.25 5.9
      vertex 5 23 5.9
    endloop
  endfacet
  facet normal 0 0 1
    outer loop
      vertex 40.3 0 5.9
      vertex 17.5 14.75 5.9
      vertex 0 23 5.9
    endloop
  endfacet
  facet normal 0 0 1
    outer loop
      vertex 40.3 0 5.9
      vertex 40.3 14.75 5.9
      vertex 17.5 14.75 5.9
    endloop
  endfacet
  facet normal 0 0 1
    outer loop
      vertex 16 21.75 5.9
      vertex 5 23 5.9
      vertex 0 23 5.9
    endloop
  endfacet
  facet normal 0 0 1
    outer loop
      vertex 5 23.25 5.9
      vertex 5 23 5.9
      vertex 16 23.25 5.9
    endloop
  endfacet
  facet normal 0 0 1
    outer loop
      vertex 17.5 14.75 5.9
      vertex 16 21.75 5.9
      vertex 0 23 5.9
    endloop
  endfacet
  facet normal 0 0 1
    outer loop
      vertex 17.5 14.75 5.9
      vertex 17.5 21.75 5.9
      vertex 16 21.75 5.9
    endloop
  endfacet
  facet normal 0 -1 0
    outer loop
      vertex 2 2 2.9
      vertex 2 2 5.9
      vertex 0 2 5.9
    endloop
  endfacet
  facet normal 0 -1 0
    outer loop
      vertex 0 2 2.9
      vertex 2 2 2.9
      vertex 0 2 5.9
    endloop
  endfacet
  facet normal 0 0 1
    outer loop
      vertex 2 0 2.9
      vertex 2 2 2.9
      vertex 0 2 2.9
    endloop
  endfacet
  facet normal 0 0 1
    outer loop
      vertex 0 0 2.9
      vertex 2 0 2.9
      vertex 0 2 2.9
    endloop
  endfacet
  facet normal -1 0 0
    outer loop
      vertex 2 2 5.9
      vertex 2 2 2.9
      vertex 2 0 5.9
    endloop
  endfacet
  facet normal -1 0 0
    outer loop
      vertex 2 0 5.9
      vertex 2 2 2.9
      vertex 2 0 2.9
    endloop
  endfacet
  facet normal 1 0 0
    outer loop
      vertex 40.3 21.25 1.9
      vertex 40.3 0 0
      vertex 40.3 35.4 0
    endloop
  endfacet
  facet normal 1 0 0
    outer loop
      vertex 40.3 14.75 1.9
      vertex 40.3 14.75 5.9
      vertex 40.3 0 5.9
    endloop
  endfacet
  facet normal 1 0 0
    outer loop
      vertex 40.3 35.4 5.9
      vertex 40.3 21.25 5.9
      vertex 40.3 35.4 0
    endloop
  endfacet
  facet normal 1 0 0
    outer loop
      vertex 40.3 14.75 1.9
      vertex 40.3 0 0
      vertex 40.3 21.25 1.9
    endloop
  endfacet
  facet normal 1 0 0
    outer loop
      vertex 40.3 0 5.9
      vertex 40.3 0 0
      vertex 40.3 14.75 1.9
    endloop
  endfacet
  facet normal 1 0 0
    outer loop
      vertex 40.3 21.25 5.9
      vertex 40.3 21.25 1.9
      vertex 40.3 35.4 0
    endloop
  endfacet
  facet normal -1 0 0
    outer loop
      vertex 2 35.4 5.9
      vertex 2 35.4 2.9
      vertex 2 34.4 5.9
    endloop
  endfacet
  facet normal -1 0 0
    outer loop
      vertex 2 34.4 5.9
      vertex 2 35.4 2.9
      vertex 2 34.4 2.9
    endloop
  endfacet
  facet normal 0 -1 0
    outer loop
      vertex 40.3 21.25 1.9
      vertex 40.3 21.25 5.9
      vertex 29 21.25 5.9
    endloop
  endfacet
  facet normal 0 -1 0
    outer loop
      vertex 27.5 21.25 4.4
      vertex 40.3 21.25 1.9
      vertex 29 21.25 4.4
    endloop
  endfacet
  facet normal 0 -1 0
    outer loop
      vertex 29 21.25 4.4
      vertex 40.3 21.25 1.9
      vertex 29 21.25 5.9
    endloop
  endfacet
  facet normal 0 -1 0
    outer loop
      vertex 27.5 21.25 1.9
      vertex 40.3 21.25 1.9
      vertex 27.5 21.25 4.4
    endloop
  endfacet
  facet normal -1 0 0
    outer loop
      vertex 29 31.25 5.9
      vertex 29 31.25 4.4
      vertex 29 21.25 5.9
    endloop
  endfacet
  facet normal -1 0 0
    outer loop
      vertex 29 21.25 5.9
      vertex 29 31.25 4.4
      vertex 29 21.25 4.4
    endloop
  endfacet
  facet normal 0 -1 0
    outer loop
      vertex 29 31.25 4.4
      vertex 29 31.25 5.9
      vertex 5 31.25 5.9
    endloop
  endfacet
  facet normal 0 -1 0
    outer loop
      vertex 2.5 31.25 4.9
      vertex 29 31.25 4.4
      vertex 5 31.25 4.9
    endloop
  endfacet
  facet normal 0 -1 0
    outer loop
      vertex 5 31.25 4.9
      vertex 29 31.25 4.4
      vertex 5 31.25 5.9
    endloop
  endfacet
  facet normal 0 -1 0
    outer loop
      vertex 2.5 31.25 4.4
      vertex 29 31.25 4.4
      vertex 2.5 31.25 4.9
    endloop
  endfacet
  facet normal -1 0 0
    outer loop
      vertex 5 31.5 5.9
      vertex 5 31.5 4.9
      vertex 5 31.25 5.9
    endloop
  endfacet
  facet normal -1 0 0
    outer loop
      vertex 5 31.25 5.9
      vertex 5 31.5 4.9
      vertex 5 31.25 4.9
    endloop
  endfacet
  facet normal -1 0 0
    outer loop
      vertex 1 31.5 4.9
      vertex 1 31.5 0.95
      vertex 1 29.5 4.9
    endloop
  endfacet
  facet normal -1 0 0
    outer loop
      vertex 1 29.5 4.9
      vertex 1 31.5 0.95
      vertex 1 29.5 0.95
    endloop
  endfacet
  facet normal 0 0 1
    outer loop
      vertex 2.5 31.25 4.9
      vertex 1 31.5 4.9
      vertex 2.5 29.75 4.9
    endloop
  endfacet
  facet normal 0 0 1
    outer loop
      vertex 5 29.5 4.9
      vertex 5 29.75 4.9
      vertex 2.5 29.75 4.9
    endloop
  endfacet
  facet normal 0 0 1
    outer loop
      vertex 1 29.5 4.9
      vertex 5 29.5 4.9
      vertex 2.5 29.75 4.9
    endloop
  endfacet
  facet normal 0 0 1
    outer loop
      vertex 5 31.25 4.9
      vertex 5 31.5 4.9
      vertex 2.5 31.25 4.9
    endloop
  endfacet
  facet normal 0 0 1
    outer loop
      vertex 5 31.5 4.9
      vertex 1 31.5 4.9
      vertex 2.5 31.25 4.9
    endloop
  endfacet
  facet normal 0 0 1
    outer loop
      vertex 1 31.5 4.9
      vertex 1 29.5 4.9
      vertex 2.5 29.75 4.9
    endloop
  endfacet
  facet normal -1 0 0
    outer loop
      vertex 5 29.75 5.9
      vertex 5 29.75 4.9
      vertex 5 29.5 5.9
    endloop
  endfacet
  facet normal -1 0 0
    outer loop
      vertex 5 29.5 5.9
      vertex 5 29.75 4.9
      vertex 5 29.5 4.9
    endloop
  endfacet
  facet normal -1 0 0
    outer loop
      vertex 1 28.25 5.9
      vertex 1 28.25 0.95
      vertex 1 26.25 5.9
    endloop
  endfacet
  facet normal -1 0 0
    outer loop
      vertex 1 26.25 5.9
      vertex 1 28.25 0.95
      vertex 1 26.25 0.95
    endloop
  endfacet
  facet normal 0 1 0
    outer loop
      vertex 5 29.75 4.9
      vertex 5 29.75 5.9
      vertex 26 29.75 5.9
    endloop
  endfacet
  facet normal 0 1 0
    outer loop
      vertex 5 29.75 4.9
      vertex 26 29.75 5.9
      vertex 26 29.75 4.4
    endloop
  endfacet
  facet normal 0 1 0
    outer loop
      vertex 5 29.75 4.9
      vertex 26 29.75 4.4
      vertex 2.5 29.75 4.9
    endloop
  endfacet
  facet normal 0 1 0
    outer loop
      vertex 26 29.75 4.4
      vertex 2.5 29.75 4.4
      vertex 2.5 29.75 4.9
    endloop
  endfacet
  facet normal 1 0 0
    outer loop
      vertex 26 29.75 4.4
      vertex 26 29.75 5.9
      vertex 26 28.25 5.9
    endloop
  endfacet
  facet normal 1 0 0
    outer loop
      vertex 26 28.25 4.4
      vertex 26 29.75 4.4
      vertex 26 28.25 5.9
    endloop
  endfacet
  facet normal 0 1 0
    outer loop
      vertex 27.5 28.25 5.9
      vertex 27.5 28.25 4.4
      vertex 26 28.25 5.9
    endloop
  endfacet
  facet normal 0 1 0
    outer loop
      vertex 26 28.25 5.9
      vertex 27.5 28.25 4.4
      vertex 26 28.25 4.4
    endloop
  endfacet
  facet normal 1 0 0
    outer loop
      vertex 27.5 28.25 5.9
      vertex 27.5 21.25 4.4
      vertex 27.5 28.25 4.4
    endloop
  endfacet
  facet normal 1 0 0
    outer loop
      vertex 27.5 16.25 5.9
      vertex 27.5 21.25 4.4
      vertex 27.5 28.25 5.9
    endloop
  endfacet
  facet normal 1 0 0
    outer loop
      vertex 27.5 21.25 1.9
      vertex 27.5 21.25 4.4
      vertex 27.5 16.25 5.9
    endloop
  endfacet
  facet normal 1 0 0
    outer loop
      vertex 27.5 16.25 4.4
      vertex 27.5 21.25 1.9
      vertex 27.5 16.25 5.9
    endloop
  endfacet
  facet normal 1 0 0
    outer loop
      vertex 27.5 14.75 4.4
      vertex 27.5 21.25 1.9
      vertex 27.5 16.25 4.4
    endloop
  endfacet
  facet normal 1 0 0
    outer loop
      vertex 27.5 14.75 1.9
      vertex 27.5 21.25 1.9
      vertex 27.5 14.75 4.4
    endloop
  endfacet
  facet normal 0 -1 0
    outer loop
      vertex 27.5 16.25 4.4
      vertex 27.5 16.25 5.9
      vertex 20.5 16.25 5.9
    endloop
  endfacet
  facet normal 0 -1 0
    outer loop
      vertex 20.5 16.25 4.4
      vertex 27.5 16.25 4.4
      vertex 20.5 16.25 5.9
    endloop
  endfacet
  facet normal -1 0 0
    outer loop
      vertex 20.5 17.75 5.9
      vertex 20.5 17.75 4.4
      vertex 20.5 16.25 5.9
    endloop
  endfacet
  facet normal -1 0 0
    outer loop
      vertex 20.5 16.25 5.9
      vertex 20.5 17.75 4.4
      vertex 20.5 16.25 4.4
    endloop
  endfacet
  facet normal 0 -1 0
    outer loop
      vertex 20.5 17.75 4.4
      vertex 20.5 17.75 5.9
      vertex 19 17.75 5.9
    endloop
  endfacet
  facet normal 0 -1 0
    outer loop
      vertex 19 17.75 4.4
      vertex 20.5 17.75 4.4
      vertex 19 17.75 5.9
    endloop
  endfacet
  facet normal -1 0 0
    outer loop
      vertex 19 24.75 5.9
      vertex 19 24.75 4.4
      vertex 19 17.75 5.9
    endloop
  endfacet
  facet normal -1 0 0
    outer loop
      vertex 19 17.75 5.9
      vertex 19 24.75 4.4
      vertex 19 17.75 4.4
    endloop
  endfacet
  facet normal 0 -1 0
    outer loop
      vertex 19 24.75 4.4
      vertex 19 24.75 5.9
      vertex 5 24.75 5.9
    endloop
  endfacet
  facet normal 0 -1 0
    outer loop
      vertex 2.5 24.75 4.9
      vertex 19 24.75 4.4
      vertex 5 24.75 4.9
    endloop
  endfacet
  facet normal 0 -1 0
    outer loop
      vertex 5 24.75 4.9
      vertex 19 24.75 4.4
      vertex 5 24.75 5.9
    endloop
  endfacet
  facet normal 0 -1 0
    outer loop
      vertex 2.5 24.75 4.4
      vertex 19 24.75 4.4
      vertex 2.5 24.75 4.9
    endloop
  endfacet
  facet normal -1 0 0
    outer loop
      vertex 5 25 5.9
      vertex 5 25 4.9
      vertex 5 24.75 5.9
    endloop
  endfacet
  facet normal -1 0 0
    outer loop
      vertex 5 24.75 5.9
      vertex 5 25 4.9
      vertex 5 24.75 4.9
    endloop
  endfacet
  facet normal -1 0 0
    outer loop
      vertex 1 25 4.9
      vertex 1 25 0.95
      vertex 1 23 4.9
    endloop
  endfacet
  facet normal -1 0 0
    outer loop
      vertex 1 23 4.9
      vertex 1 25 0.95
      vertex 1 23 0.95
    endloop
  endfacet
  facet normal 0 0 1
    outer loop
      vertex 2.5 24.75 4.9
      vertex 1 25 4.9
      vertex 2.5 23.25 4.9
    endloop
  endfacet
  facet normal 0 0 1
    outer loop
      vertex 5 23 4.9
      vertex 5 23.25 4.9
      vertex 2.5 23.25 4.9
    endloop
  endfacet
  facet normal 0 0 1
    outer loop
      vertex 1 23 4.9
      vertex 5 23 4.9
      vertex 2.5 23.25 4.9
    endloop
  endfacet
  facet normal 0 0 1
    outer loop
      vertex 5 24.75 4.9
      vertex 5 25 4.9
      vertex 2.5 24.75 4.9
    endloop
  endfacet
  facet normal 0 0 1
    outer loop
      vertex 5 25 4.9
      vertex 1 25 4.9
      vertex 2.5 24.75 4.9
    endloop
  endfacet
  facet normal 0 0 1
    outer loop
      vertex 1 25 4.9
      vertex 1 23 4.9
      vertex 2.5 23.25 4.9
    endloop
  endfacet
  facet normal -1 0 0
    outer loop
      vertex 5 23.25 5.9
      vertex 5 23.25 4.9
      vertex 5 23 5.9
    endloop
  endfacet
  facet normal -1 0 0
    outer loop
      vertex 5 23 5.9
      vertex 5 23.25 4.9
      vertex 5 23 4.9
    endloop
  endfacet
  facet normal 0 1 0
    outer loop
      vertex 5 23.25 4.9
      vertex 5 23.25 5.9
      vertex 16 23.25 5.9
    endloop
  endfacet
  facet normal 0 1 0
    outer loop
      vertex 5 23.25 4.9
      vertex 16 23.25 5.9
      vertex 16 23.25 4.4
    endloop
  endfacet
  facet normal 0 1 0
    outer loop
      vertex 5 23.25 4.9
      vertex 16 23.25 4.4
      vertex 2.5 23.25 4.9
    endloop
  endfacet
  facet normal 0 1 0
    outer loop
      vertex 16 23.25 4.4
      vertex 2.5 23.25 4.4
      vertex 2.5 23.25 4.9
    endloop
  endfacet
  facet normal 1 0 0
    outer loop
      vertex 16 23.25 4.4
      vertex 16 23.25 5.9
      vertex 16 21.75 5.9
    endloop
  endfacet
  facet normal 1 0 0
    outer loop
      vertex 16 21.75 4.4
      vertex 16 23.25 4.4
      vertex 16 21.75 5.9
    endloop
  endfacet
  facet normal 0 1 0
    outer loop
      vertex 17.5 21.75 5.9
      vertex 17.5 21.75 4.4
      vertex 16 21.75 5.9
    endloop
  endfacet
  facet normal 0 1 0
    outer loop
      vertex 16 21.75 5.9
      vertex 17.5 21.75 4.4
      vertex 16 21.75 4.4
    endloop
  endfacet
  facet normal 1 0 0
    outer loop
      vertex 17.5 21.75 4.4
      vertex 17.5 21.75 5.9
      vertex 17.5 14.75 5.9
    endloop
  endfacet
  facet normal 1 0 0
    outer loop
      vertex 17.5 14.75 4.4
      vertex 17.5 21.75 4.4
      vertex 17.5 14.75 5.9
    endloop
  endfacet
  facet normal 0 1 0
    outer loop
      vertex 17.5 14.75 4.4
      vertex 17.5 14.75 5.9
      vertex 27.5 14.75 4.4
    endloop
  endfacet
  facet normal 0 1 0
    outer loop
      vertex 40.3 14.75 5.9
      vertex 40.3 14.75 1.9
      vertex 27.5 14.75 4.4
    endloop
  endfacet
  facet normal 0 1 0
    outer loop
      vertex 40.3 14.75 5.9
      vertex 27.5 14.75 4.4
      vertex 17.5 14.75 5.9
    endloop
  endfacet
  facet normal 0 1 0
    outer loop
      vertex 27.5 14.75 4.4
      vertex 40.3 14.75 1.9
      vertex 27.5 14.75 1.9
    endloop
  endfacet
  facet normal 0 0 1
    outer loop
      vertex 40.3 14.75 1.9
      vertex 40.3 21.25 1.9
      vertex 27.5 21.25 1.9
    endloop
  endfacet
  facet normal 0 0 1
    outer loop
      vertex 27.5 14.75 1.9
      vertex 40.3 14.75 1.9
      vertex 27.5 21.25 1.9
    endloop
  endfacet
  facet normal 0 0 1
    outer loop
      vertex 26 29.75 4.4
      vertex 26 28.25 4.4
      vertex 27.5 28.25 4.4
    endloop
  endfacet
  facet normal 0 0 1
    outer loop
      vertex 29 31.25 4.4
      vertex 26 29.75 4.4
      vertex 27.5 28.25 4.4
    endloop
  endfacet
  facet normal 0 0 1
    outer loop
      vertex 27.5 21.25 4.4
      vertex 29 21.25 4.4
      vertex 27.5 28.25 4.4
    endloop
  endfacet
  facet normal 0 0 1
    outer loop
      vertex 29 21.25 4.4
      vertex 29 31.25 4.4
      vertex 27.5 28.25 4.4
    endloop
  endfacet
  facet normal 0 0 1
    outer loop
      vertex 29 31.25 4.4
      vertex 2.5 31.25 4.4
      vertex 26 29.75 4.4
    endloop
  endfacet
  facet normal 0 0 1
    outer loop
      vertex 2.5 29.75 4.4
      vertex 26 29.75 4.4
      vertex 2.5 31.25 4.4
    endloop
  endfacet
  facet normal 1 0 0
    outer loop
      vertex 2.5 31.25 4.4
      vertex 2.5 31.25 4.9
      vertex 2.5 29.75 4.9
    endloop
  endfacet
  facet normal 1 0 0
    outer loop
      vertex 2.5 29.75 4.4
      vertex 2.5 31.25 4.4
      vertex 2.5 29.75 4.9
    endloop
  endfacet
  facet normal 0 0 1
    outer loop
      vertex 16 23.25 4.4
      vertex 16 21.75 4.4
      vertex 17.5 21.75 4.4
    endloop
  endfacet
  facet normal 0 0 1
    outer loop
      vertex 17.5 21.75 4.4
      vertex 19 24.75 4.4
      vertex 16 23.25 4.4
    endloop
  endfacet
  facet normal 0 0 1
    outer loop
      vertex 20.5 17.75 4.4
      vertex 19 17.75 4.4
      vertex 20.5 16.25 4.4
    endloop
  endfacet
  facet normal 0 0 1
    outer loop
      vertex 19 17.75 4.4
      vertex 19 24.75 4.4
      vertex 17.5 21.75 4.4
    endloop
  endfacet
  facet normal 0 0 1
    outer loop
      vertex 17.5 14.75 4.4
      vertex 27.5 14.75 4.4
      vertex 20.5 16.25 4.4
    endloop
  endfacet
  facet normal 0 0 1
    outer loop
      vertex 17.5 14.75 4.4
      vertex 19 17.75 4.4
      vertex 17.5 21.75 4.4
    endloop
  endfacet
  facet normal 0 0 1
    outer loop
      vertex 17.5 14.75 4.4
      vertex 20.5 16.25 4.4
      vertex 19 17.75 4.4
    endloop
  endfacet
  facet normal 0 0 1
    outer loop
      vertex 19 24.75 4.4
      vertex 2.5 24.75 4.4
      vertex 16 23.25 4.4
    endloop
  endfacet
  facet normal 0 0 1
    outer loop
      vertex 2.5 23.25 4.4
      vertex 16 23.25 4.4
      vertex 2.5 24.75 4.4
    endloop
  endfacet
  facet normal 0 0 1
    outer loop
      vertex 27.5 16.25 4.4
      vertex 20.5 16.25 4.4
      vertex 27.5 14.75 4.4
    endloop
  endfacet
  facet normal 1 0 0
    outer loop
      vertex 2.5 24.75 4.4
      vertex 2.5 24.75 4.9
      vertex 2.5 23.25 4.9
    endloop
  endfacet
  facet normal 1 0 0
    outer loop
      vertex 2.5 23.25 4.4
      vertex 2.5 24.75 4.4
      vertex 2.5 23.25 4.9
    endloop
  endfacet
endsolid OpenSCAD_Model
